M48
; DRILL file {KiCad 9.0.2} date 2025-06-25T23:25:12-0600
; FORMAT={-:-/ absolute / metric / decimal}
; #@! TF.CreationDate,2025-06-25T23:25:12-06:00
; #@! TF.GenerationSoftware,Kicad,Pcbnew,9.0.2
; #@! TF.FileFunction,Plated,1,2,PTH
FMAT,2
METRIC
; #@! TA.AperFunction,Plated,PTH,ViaDrill
T1C0.300
; #@! TA.AperFunction,Plated,PTH,ComponentDrill
T2C0.750
; #@! TA.AperFunction,Plated,PTH,ComponentDrill
T3C0.800
; #@! TA.AperFunction,Plated,PTH,ComponentDrill
T4C1.000
%
G90
G05
T1
X101.57Y-95.459
X101.57Y-96.459
X101.57Y-97.459
X101.57Y-98.459
X101.57Y-99.459
X101.57Y-100.459
X101.57Y-101.459
X101.57Y-102.459
X101.57Y-103.459
X101.57Y-104.459
X101.57Y-105.459
X101.57Y-106.459
X102.57Y-94.459
X102.57Y-95.459
X102.57Y-96.459
X102.57Y-97.459
X102.57Y-98.459
X102.57Y-99.459
X102.57Y-100.459
X102.57Y-101.459
X102.57Y-102.459
X102.57Y-103.459
X102.57Y-104.459
X102.57Y-105.459
X103.57Y-94.459
X103.57Y-95.459
X103.57Y-96.459
X103.57Y-99.459
X103.57Y-102.459
X103.57Y-103.459
X103.57Y-104.459
X103.57Y-105.459
X104.57Y-94.459
X104.57Y-95.459
X104.57Y-96.459
X104.57Y-99.459
X104.57Y-102.459
X104.57Y-103.459
X104.57Y-104.459
X105.57Y-94.459
X105.57Y-95.459
X105.57Y-96.459
X105.57Y-99.459
X105.57Y-102.459
X105.57Y-103.459
X105.57Y-104.459
X106.57Y-94.459
X106.57Y-95.459
X106.57Y-96.459
X106.57Y-99.459
X106.57Y-102.459
X106.57Y-103.459
X106.57Y-104.459
X107.57Y-94.459
X107.57Y-95.459
X107.57Y-96.459
X107.57Y-97.459
X107.57Y-98.459
X107.57Y-99.459
X107.57Y-102.459
X107.57Y-103.459
X107.57Y-104.459
X108.57Y-94.459
X108.57Y-95.459
X108.57Y-96.459
X108.57Y-97.459
X108.57Y-98.459
X108.57Y-99.459
X108.57Y-102.459
X108.57Y-103.459
X108.57Y-104.459
X110.32Y-95.37
X110.32Y-97.37
X110.32Y-99.37
X111.625Y-107.89
X112.32Y-95.37
X112.32Y-97.37
X112.32Y-99.37
X112.32Y-101.37
X113.81Y-104.74
X122.03Y-106.41
X122.03Y-108.15
X123.54Y-106.42
X124.32Y-109.08
X126.67Y-106.4
X127.43Y-108.65
X128.32Y-107.37
X129.27Y-96.74
X129.76Y-108.64
X129.78Y-105.23
X129.8Y-103.23
X129.81Y-111.32
X132.18Y-97.975
X133.455Y-97.975
X134.05Y-96.73
X137.45Y-96.73
X138.64Y-97.97
X140.41Y-100.14
X140.42Y-98.18
X148.11Y-102.45
X148.14Y-104.95
X149.61Y-95.38
X149.61Y-97.4
X149.62Y-99.44
X150.47Y-102.13
X151.9Y-95.39
X151.91Y-97.08
X152.19Y-100.06
X152.2Y-102.11
X153.735Y-94.449
X153.735Y-95.449
X153.735Y-96.449
X153.735Y-100.449
X153.735Y-101.449
X153.735Y-102.449
X153.735Y-103.449
X153.735Y-104.449
X153.74Y-99.46
X154.735Y-94.449
X154.735Y-95.449
X154.735Y-96.449
X154.735Y-99.449
X154.735Y-100.449
X154.735Y-101.449
X154.735Y-102.449
X154.735Y-103.449
X154.735Y-104.449
X155.735Y-94.449
X155.735Y-95.449
X155.735Y-96.449
X155.735Y-99.449
X155.735Y-102.449
X155.735Y-103.449
X155.735Y-104.449
X156.735Y-94.449
X156.735Y-95.449
X156.735Y-96.449
X156.735Y-99.449
X156.735Y-102.449
X156.735Y-103.449
X156.735Y-104.449
X157.735Y-94.449
X157.735Y-95.449
X157.735Y-96.449
X157.735Y-99.449
X157.735Y-102.449
X157.735Y-103.449
X157.735Y-104.449
X158.735Y-94.449
X158.735Y-95.449
X158.735Y-96.449
X158.735Y-99.449
X158.735Y-102.449
X158.735Y-103.449
X158.735Y-104.449
X158.735Y-105.449
X159.735Y-94.449
X159.735Y-95.449
X159.735Y-96.449
X159.735Y-97.449
X159.735Y-98.449
X159.735Y-99.449
X159.735Y-100.449
X159.735Y-101.449
X159.735Y-102.449
X159.735Y-103.449
X159.735Y-104.449
X159.735Y-105.449
T2
X110.415Y-103.83
X111.685Y-103.83
X112.955Y-103.83
X149.2Y-103.8
X150.47Y-103.8
X151.74Y-103.8
T3
X118.04Y-104.66
X118.04Y-109.66
X120.04Y-104.66
X120.04Y-109.66
X122.04Y-104.66
X122.04Y-109.66
X140.1Y-104.68
X140.1Y-109.68
X142.1Y-104.68
X142.1Y-109.68
X144.1Y-104.68
X144.1Y-109.68
T4
X107.81Y-107.075
X110.35Y-107.075
X112.89Y-107.075
X122.77Y-97.17
X125.08Y-101.94
X125.08Y-106.94
X125.27Y-99.67
X125.97Y-109.91
X127.58Y-104.44
X127.77Y-97.17
X128.51Y-109.91
X131.05Y-109.91
X133.59Y-109.91
X135.78Y-94.92
X135.78Y-96.92
X136.13Y-109.91
X149.31Y-107.03
X151.85Y-107.03
X154.39Y-107.03
M30
