G04 #@! TF.GenerationSoftware,KiCad,Pcbnew,9.0.2*
G04 #@! TF.CreationDate,2025-06-25T23:25:14-06:00*
G04 #@! TF.ProjectId,TurnSignal,5475726e-5369-4676-9e61-6c2e6b696361,rev?*
G04 #@! TF.SameCoordinates,Original*
G04 #@! TF.FileFunction,Soldermask,Top*
G04 #@! TF.FilePolarity,Negative*
%FSLAX46Y46*%
G04 Gerber Fmt 4.6, Leading zero omitted, Abs format (unit mm)*
G04 Created by KiCad (PCBNEW 9.0.2) date 2025-06-25 23:25:14*
%MOMM*%
%LPD*%
G01*
G04 APERTURE LIST*
G04 Aperture macros list*
%AMRoundRect*
0 Rectangle with rounded corners*
0 $1 Rounding radius*
0 $2 $3 $4 $5 $6 $7 $8 $9 X,Y pos of 4 corners*
0 Add a 4 corners polygon primitive as box body*
4,1,4,$2,$3,$4,$5,$6,$7,$8,$9,$2,$3,0*
0 Add four circle primitives for the rounded corners*
1,1,$1+$1,$2,$3*
1,1,$1+$1,$4,$5*
1,1,$1+$1,$6,$7*
1,1,$1+$1,$8,$9*
0 Add four rect primitives between the rounded corners*
20,1,$1+$1,$2,$3,$4,$5,0*
20,1,$1+$1,$4,$5,$6,$7,0*
20,1,$1+$1,$6,$7,$8,$9,0*
20,1,$1+$1,$8,$9,$2,$3,0*%
G04 Aperture macros list end*
%ADD10RoundRect,0.283820X-0.572180X0.572180X-0.572180X-0.572180X0.572180X-0.572180X0.572180X0.572180X0*%
%ADD11C,1.712000*%
%ADD12RoundRect,0.250000X-0.337500X-0.475000X0.337500X-0.475000X0.337500X0.475000X-0.337500X0.475000X0*%
%ADD13RoundRect,0.288991X-0.467009X-0.467009X0.467009X-0.467009X0.467009X0.467009X-0.467009X0.467009X0*%
%ADD14C,1.512000*%
%ADD15RoundRect,0.250000X0.337500X0.475000X-0.337500X0.475000X-0.337500X-0.475000X0.337500X-0.475000X0*%
%ADD16RoundRect,0.288991X0.467009X0.467009X-0.467009X0.467009X-0.467009X-0.467009X0.467009X-0.467009X0*%
%ADD17RoundRect,0.283820X0.572180X0.572180X-0.572180X0.572180X-0.572180X-0.572180X0.572180X-0.572180X0*%
%ADD18R,1.100000X1.700000*%
%ADD19C,1.700000*%
%ADD20O,1.700000X1.700000*%
%ADD21C,0.500000*%
%ADD22RoundRect,0.150000X0.150000X-0.825000X0.150000X0.825000X-0.150000X0.825000X-0.150000X-0.825000X0*%
%ADD23RoundRect,0.250000X-0.275000X-0.500000X0.275000X-0.500000X0.275000X0.500000X-0.275000X0.500000X0*%
%ADD24O,1.050000X1.500000*%
%ADD25C,1.500000*%
G04 APERTURE END LIST*
D10*
X125080000Y-101939999D03*
D11*
X127580000Y-104439999D03*
X125080000Y-106939999D03*
D12*
X133730000Y-107024999D03*
X135805000Y-107024999D03*
D13*
X118040000Y-104660000D03*
D14*
X120040000Y-104660000D03*
X122040000Y-104660000D03*
X118040000Y-109660000D03*
X120040000Y-109660000D03*
X122040000Y-109660000D03*
D12*
X136530000Y-99430000D03*
X138605000Y-99430000D03*
D15*
X105084999Y-107250000D03*
X103009999Y-107250000D03*
D16*
X144100000Y-109680000D03*
D14*
X142100000Y-109680000D03*
X140100000Y-109680000D03*
X144100000Y-104680000D03*
X142100000Y-104680000D03*
X140100000Y-104680000D03*
D17*
X127770000Y-97170000D03*
D11*
X125270000Y-99670000D03*
X122770000Y-97170000D03*
D12*
X157075000Y-107305000D03*
X159150000Y-107305000D03*
D18*
X105845000Y-100965000D03*
X104045000Y-100965000D03*
X104045000Y-97965000D03*
X105845000Y-97965000D03*
D19*
X154390000Y-107030000D03*
D20*
X151850000Y-107030000D03*
X149310000Y-107030000D03*
D21*
X147210000Y-98020000D03*
X145710000Y-98020000D03*
X147210000Y-98770000D03*
X145710000Y-98770000D03*
X147210000Y-99520000D03*
X145710000Y-99520000D03*
D15*
X131890000Y-107024999D03*
X129815000Y-107024999D03*
D19*
X136130000Y-109910000D03*
X133590000Y-109910000D03*
X131050000Y-109910000D03*
X128510000Y-109910000D03*
X125970000Y-109910000D03*
D22*
X130915000Y-104649999D03*
X132185000Y-104649999D03*
X133455000Y-104649999D03*
X134725000Y-104649999D03*
X134725000Y-99699999D03*
X133455000Y-99699999D03*
X132185000Y-99699999D03*
X130915000Y-99699999D03*
D18*
X156424999Y-98000000D03*
X158224999Y-98000000D03*
X158224999Y-101000000D03*
X156424999Y-101000000D03*
D19*
X107809999Y-107075000D03*
D20*
X110349999Y-107075000D03*
X112889999Y-107075000D03*
D21*
X116410000Y-98020000D03*
X114910000Y-98020000D03*
X116410000Y-98770000D03*
X114910000Y-98770000D03*
X116410000Y-99520000D03*
X114910000Y-99520000D03*
D23*
X110415000Y-103830000D03*
D24*
X111685000Y-103830000D03*
X112955000Y-103830000D03*
D23*
X149200000Y-103800000D03*
D24*
X150470000Y-103800000D03*
X151740000Y-103800000D03*
D25*
X135780000Y-96920000D03*
X135780000Y-94920000D03*
M02*
