G04 #@! TF.GenerationSoftware,KiCad,Pcbnew,9.0.2*
G04 #@! TF.CreationDate,2025-06-25T23:25:14-06:00*
G04 #@! TF.ProjectId,TurnSignal,5475726e-5369-4676-9e61-6c2e6b696361,rev?*
G04 #@! TF.SameCoordinates,Original*
G04 #@! TF.FileFunction,Copper,L2,Bot*
G04 #@! TF.FilePolarity,Positive*
%FSLAX46Y46*%
G04 Gerber Fmt 4.6, Leading zero omitted, Abs format (unit mm)*
G04 Created by KiCad (PCBNEW 9.0.2) date 2025-06-25 23:25:14*
%MOMM*%
%LPD*%
G01*
G04 APERTURE LIST*
G04 Aperture macros list*
%AMRoundRect*
0 Rectangle with rounded corners*
0 $1 Rounding radius*
0 $2 $3 $4 $5 $6 $7 $8 $9 X,Y pos of 4 corners*
0 Add a 4 corners polygon primitive as box body*
4,1,4,$2,$3,$4,$5,$6,$7,$8,$9,$2,$3,0*
0 Add four circle primitives for the rounded corners*
1,1,$1+$1,$2,$3*
1,1,$1+$1,$4,$5*
1,1,$1+$1,$6,$7*
1,1,$1+$1,$8,$9*
0 Add four rect primitives between the rounded corners*
20,1,$1+$1,$2,$3,$4,$5,0*
20,1,$1+$1,$4,$5,$6,$7,0*
20,1,$1+$1,$6,$7,$8,$9,0*
20,1,$1+$1,$8,$9,$2,$3,0*%
G04 Aperture macros list end*
G04 #@! TA.AperFunction,ComponentPad*
%ADD10RoundRect,0.250000X-0.504000X0.504000X-0.504000X-0.504000X0.504000X-0.504000X0.504000X0.504000X0*%
G04 #@! TD*
G04 #@! TA.AperFunction,ComponentPad*
%ADD11C,1.508000*%
G04 #@! TD*
G04 #@! TA.AperFunction,ComponentPad*
%ADD12RoundRect,0.250000X-0.404000X-0.404000X0.404000X-0.404000X0.404000X0.404000X-0.404000X0.404000X0*%
G04 #@! TD*
G04 #@! TA.AperFunction,ComponentPad*
%ADD13C,1.308000*%
G04 #@! TD*
G04 #@! TA.AperFunction,ComponentPad*
%ADD14RoundRect,0.250000X0.404000X0.404000X-0.404000X0.404000X-0.404000X-0.404000X0.404000X-0.404000X0*%
G04 #@! TD*
G04 #@! TA.AperFunction,ComponentPad*
%ADD15RoundRect,0.250000X0.504000X0.504000X-0.504000X0.504000X-0.504000X-0.504000X0.504000X-0.504000X0*%
G04 #@! TD*
G04 #@! TA.AperFunction,ComponentPad*
%ADD16C,1.700000*%
G04 #@! TD*
G04 #@! TA.AperFunction,ComponentPad*
%ADD17O,1.700000X1.700000*%
G04 #@! TD*
G04 #@! TA.AperFunction,ComponentPad*
%ADD18RoundRect,0.250000X-0.275000X-0.500000X0.275000X-0.500000X0.275000X0.500000X-0.275000X0.500000X0*%
G04 #@! TD*
G04 #@! TA.AperFunction,ComponentPad*
%ADD19O,1.050000X1.500000*%
G04 #@! TD*
G04 #@! TA.AperFunction,ComponentPad*
%ADD20C,1.500000*%
G04 #@! TD*
G04 #@! TA.AperFunction,ViaPad*
%ADD21C,0.600000*%
G04 #@! TD*
G04 #@! TA.AperFunction,ViaPad*
%ADD22C,0.500000*%
G04 #@! TD*
G04 #@! TA.AperFunction,Conductor*
%ADD23C,0.200000*%
G04 #@! TD*
G04 APERTURE END LIST*
D10*
X125080000Y-101939999D03*
D11*
X127580000Y-104439999D03*
X125080000Y-106939999D03*
D12*
X118040000Y-104660000D03*
D13*
X120040000Y-104660000D03*
X122040000Y-104660000D03*
X118040000Y-109660000D03*
X120040000Y-109660000D03*
X122040000Y-109660000D03*
D14*
X144100000Y-109680000D03*
D13*
X142100000Y-109680000D03*
X140100000Y-109680000D03*
X144100000Y-104680000D03*
X142100000Y-104680000D03*
X140100000Y-104680000D03*
D15*
X127770000Y-97170000D03*
D11*
X125270000Y-99670000D03*
X122770000Y-97170000D03*
D16*
X154390000Y-107030000D03*
D17*
X151850000Y-107030000D03*
X149310000Y-107030000D03*
D16*
X136130000Y-109910000D03*
X133590000Y-109910000D03*
X131050000Y-109910000D03*
X128510000Y-109910000D03*
X125970000Y-109910000D03*
X107809999Y-107075000D03*
D17*
X110349999Y-107075000D03*
X112889999Y-107075000D03*
D18*
X110415000Y-103830000D03*
D19*
X111685000Y-103830000D03*
X112955000Y-103830000D03*
D18*
X149200000Y-103800000D03*
D19*
X150470000Y-103800000D03*
X151740000Y-103800000D03*
D20*
X135780000Y-96920000D03*
X135780000Y-94920000D03*
D21*
X124320000Y-109080000D03*
X149610000Y-97400000D03*
X122030000Y-108150000D03*
X138640000Y-97970000D03*
X151910000Y-97080000D03*
X137450000Y-96730000D03*
X112320000Y-99370000D03*
X140410000Y-100140000D03*
X152200000Y-102110000D03*
X149620000Y-99440000D03*
X127430000Y-108650000D03*
X112320000Y-97370000D03*
X112320000Y-95370000D03*
X122030000Y-106410000D03*
X148110000Y-102450000D03*
X149610000Y-95380000D03*
X111625000Y-107890000D03*
X129270000Y-96740000D03*
X113810000Y-104740000D03*
X123540000Y-106420000D03*
X134050000Y-96730000D03*
D22*
X126670000Y-106400000D03*
D21*
X151900000Y-95390000D03*
X152190000Y-100060000D03*
X110320000Y-95370000D03*
X140420000Y-98180000D03*
X112320000Y-101370000D03*
X129760000Y-108640000D03*
X128320000Y-107370000D03*
X110320000Y-97370000D03*
X129810000Y-111320000D03*
X148140000Y-104950000D03*
X110320000Y-99370000D03*
X150470000Y-102130000D03*
D22*
X129780000Y-105230000D03*
X133455000Y-97974999D03*
X129800000Y-103230000D03*
D21*
X101570000Y-102458987D03*
X102570000Y-95458987D03*
X107570000Y-96458987D03*
X104570000Y-104458987D03*
X105570000Y-102458987D03*
X101570000Y-98458987D03*
X102570000Y-102458987D03*
X106570000Y-102458987D03*
X107570000Y-94458987D03*
X103570000Y-103458987D03*
X101570000Y-100458987D03*
X105570000Y-103458987D03*
X103570000Y-105458987D03*
X104570000Y-99458987D03*
X105570000Y-99458987D03*
X104570000Y-96458987D03*
X108570000Y-97458987D03*
X106570000Y-94458987D03*
X106570000Y-95458987D03*
X102570000Y-98458987D03*
X106570000Y-96458987D03*
X102570000Y-96458987D03*
X107570000Y-98458987D03*
X103570000Y-96458987D03*
X102570000Y-101458987D03*
X101570000Y-96458987D03*
X101570000Y-101458987D03*
X106570000Y-103458987D03*
X107570000Y-103458987D03*
X107570000Y-97458987D03*
X104570000Y-102458987D03*
X106570000Y-104458987D03*
X103570000Y-94458987D03*
X107570000Y-104458987D03*
X108570000Y-96458987D03*
X101570000Y-105458987D03*
X102570000Y-97458987D03*
X108570000Y-102458987D03*
X103570000Y-95458987D03*
X103570000Y-104458987D03*
X108570000Y-94458987D03*
X105570000Y-104458987D03*
X101570000Y-106458987D03*
X102570000Y-99458987D03*
X102570000Y-94458987D03*
X105570000Y-95458987D03*
X103570000Y-102458987D03*
X105570000Y-96458987D03*
X107570000Y-95458987D03*
X108570000Y-104458987D03*
X108570000Y-98458987D03*
X101570000Y-95458987D03*
X102570000Y-100458987D03*
X107570000Y-99458987D03*
X102570000Y-104458987D03*
X108570000Y-103458987D03*
X108570000Y-99458987D03*
X101570000Y-97458987D03*
X104570000Y-103458987D03*
X106570000Y-99458987D03*
X104570000Y-94458987D03*
X101570000Y-103458987D03*
X102570000Y-103458987D03*
X101570000Y-99458987D03*
X102570000Y-105458987D03*
X108570000Y-95458987D03*
X103570000Y-99458987D03*
X104570000Y-95458987D03*
X105570000Y-94458987D03*
X107570000Y-102458987D03*
X101570000Y-104458987D03*
D22*
X132180000Y-97974999D03*
D21*
X159735000Y-103448987D03*
X159735000Y-99448987D03*
X156735000Y-99448987D03*
X155735000Y-103448987D03*
X154735000Y-101448987D03*
X157735000Y-96448987D03*
X155735000Y-94448987D03*
X153735000Y-95448987D03*
X154735000Y-96448987D03*
X157735000Y-95448987D03*
X158735000Y-95448987D03*
X159735000Y-101448987D03*
X154735000Y-100448987D03*
X158735000Y-94448987D03*
X155735000Y-99448987D03*
X153735000Y-96448987D03*
X158735000Y-96448987D03*
X159735000Y-98448987D03*
X154735000Y-104448987D03*
X159735000Y-97448987D03*
X157735000Y-102448987D03*
X153735000Y-103448987D03*
X159735000Y-96448987D03*
X154735000Y-99448987D03*
X157735000Y-99448987D03*
X156735000Y-102448987D03*
X158735000Y-105448987D03*
X156735000Y-94448987D03*
X157735000Y-104448987D03*
X158735000Y-99448987D03*
X159735000Y-102448987D03*
X156735000Y-96448987D03*
X154735000Y-94448987D03*
X155735000Y-104448987D03*
X156735000Y-103448987D03*
X159735000Y-100448987D03*
X154735000Y-102448987D03*
X159735000Y-105448987D03*
X157735000Y-94448987D03*
X155735000Y-95448987D03*
X153735000Y-101448987D03*
X157735000Y-103448987D03*
X156735000Y-95448987D03*
X155735000Y-96448987D03*
X153735000Y-94448987D03*
X158735000Y-102448987D03*
X153735000Y-104448987D03*
X155735000Y-102448987D03*
X159735000Y-95448987D03*
X154735000Y-95448987D03*
X153740000Y-99460000D03*
X158735000Y-104448987D03*
X159735000Y-94448987D03*
X153735000Y-102448987D03*
X154735000Y-103448987D03*
X158735000Y-103448987D03*
X153735000Y-100448987D03*
X159735000Y-104448987D03*
X156735000Y-104448987D03*
D23*
X132910001Y-97430000D02*
X132414233Y-97430000D01*
X129800000Y-103230000D02*
X129800000Y-101629999D01*
X132414233Y-97430000D02*
X132408232Y-97423999D01*
X128030000Y-97430000D02*
X127770000Y-97170000D01*
X131945767Y-97430000D02*
X128030000Y-97430000D01*
X133455000Y-97974999D02*
X132910001Y-97430000D01*
X132408232Y-97423999D02*
X131951768Y-97423999D01*
X129800000Y-101629999D02*
X133455000Y-97974999D01*
X131951768Y-97423999D02*
X131945767Y-97430000D01*
X125270000Y-99670000D02*
X125270000Y-101749999D01*
X132180000Y-97974999D02*
X128765001Y-97974999D01*
X127070000Y-99670000D02*
X125270000Y-99670000D01*
X125270000Y-101749999D02*
X125080000Y-101939999D01*
X128765001Y-97974999D02*
X127070000Y-99670000D01*
G04 #@! TA.AperFunction,Conductor*
G36*
X158763736Y-93430726D02*
G01*
X159053796Y-93448271D01*
X159068659Y-93450076D01*
X159350798Y-93501780D01*
X159365335Y-93505363D01*
X159639172Y-93590695D01*
X159653163Y-93596000D01*
X159914743Y-93713727D01*
X159927989Y-93720680D01*
X160173465Y-93869075D01*
X160185776Y-93877573D01*
X160227907Y-93910580D01*
X160411573Y-94054473D01*
X160422781Y-94064403D01*
X160625596Y-94267218D01*
X160635526Y-94278426D01*
X160755481Y-94431538D01*
X160812422Y-94504217D01*
X160820928Y-94516540D01*
X160969316Y-94762004D01*
X160976275Y-94775263D01*
X161093997Y-95036831D01*
X161099306Y-95050832D01*
X161184635Y-95324663D01*
X161188219Y-95339201D01*
X161239923Y-95621340D01*
X161241728Y-95636205D01*
X161259274Y-95926263D01*
X161259500Y-95933750D01*
X161259500Y-105776249D01*
X161259274Y-105783736D01*
X161241728Y-106073794D01*
X161239923Y-106088659D01*
X161188219Y-106370798D01*
X161184635Y-106385336D01*
X161099306Y-106659167D01*
X161093997Y-106673168D01*
X160976275Y-106934736D01*
X160969316Y-106947995D01*
X160820928Y-107193459D01*
X160812422Y-107205782D01*
X160635526Y-107431573D01*
X160625596Y-107442781D01*
X160422781Y-107645596D01*
X160411573Y-107655526D01*
X160185782Y-107832422D01*
X160173459Y-107840928D01*
X159927995Y-107989316D01*
X159914736Y-107996275D01*
X159653168Y-108113997D01*
X159639167Y-108119306D01*
X159365336Y-108204635D01*
X159350798Y-108208219D01*
X159068659Y-108259923D01*
X159053794Y-108261728D01*
X158763736Y-108279274D01*
X158756249Y-108279500D01*
X154741919Y-108279500D01*
X154674880Y-108259815D01*
X154629125Y-108207011D01*
X154619181Y-108137853D01*
X154648206Y-108074297D01*
X154694466Y-108040939D01*
X154696418Y-108040130D01*
X154696420Y-108040130D01*
X154887598Y-107960941D01*
X155059655Y-107845977D01*
X155205977Y-107699655D01*
X155320941Y-107527598D01*
X155400130Y-107336420D01*
X155440500Y-107133465D01*
X155440500Y-106926535D01*
X155400130Y-106723580D01*
X155320941Y-106532402D01*
X155205977Y-106360345D01*
X155205975Y-106360342D01*
X155059657Y-106214024D01*
X154927471Y-106125701D01*
X154887598Y-106099059D01*
X154886405Y-106098565D01*
X154696420Y-106019870D01*
X154696412Y-106019868D01*
X154493469Y-105979500D01*
X154493465Y-105979500D01*
X154286535Y-105979500D01*
X154286530Y-105979500D01*
X154083587Y-106019868D01*
X154083579Y-106019870D01*
X153892403Y-106099058D01*
X153720342Y-106214024D01*
X153574024Y-106360342D01*
X153459058Y-106532403D01*
X153379870Y-106723579D01*
X153379868Y-106723587D01*
X153339500Y-106926530D01*
X153339500Y-107133469D01*
X153379868Y-107336412D01*
X153379870Y-107336420D01*
X153459058Y-107527596D01*
X153574024Y-107699657D01*
X153720342Y-107845975D01*
X153720345Y-107845977D01*
X153892402Y-107960941D01*
X154083580Y-108040130D01*
X154083581Y-108040130D01*
X154085534Y-108040939D01*
X154139937Y-108084780D01*
X154162002Y-108151074D01*
X154144723Y-108218773D01*
X154093586Y-108266384D01*
X154038081Y-108279500D01*
X153039500Y-108279500D01*
X152972461Y-108259815D01*
X152926706Y-108207011D01*
X152915500Y-108155500D01*
X152915500Y-107671441D01*
X152915491Y-107670983D01*
X152915369Y-107664109D01*
X152915053Y-107655263D01*
X152902227Y-107590784D01*
X152877810Y-107525320D01*
X152871858Y-107511926D01*
X152867604Y-107502352D01*
X152867602Y-107502349D01*
X152865394Y-107499748D01*
X152864007Y-107496628D01*
X152862884Y-107494840D01*
X152863141Y-107494678D01*
X152837019Y-107435900D01*
X152845370Y-107372051D01*
X152860130Y-107336420D01*
X152900500Y-107133465D01*
X152900500Y-106926535D01*
X152860130Y-106723580D01*
X152844774Y-106686508D01*
X152837304Y-106617039D01*
X152851112Y-106578525D01*
X152887490Y-106513492D01*
X152907175Y-106446453D01*
X152915500Y-106388555D01*
X152915500Y-93554500D01*
X152935185Y-93487461D01*
X152987989Y-93441706D01*
X153039500Y-93430500D01*
X158694108Y-93430500D01*
X158756249Y-93430500D01*
X158763736Y-93430726D01*
G37*
G04 #@! TD.AperFunction*
G04 #@! TA.AperFunction,Conductor*
G36*
X152653039Y-93450185D02*
G01*
X152698794Y-93502989D01*
X152710000Y-93554500D01*
X152710000Y-106388555D01*
X152690315Y-106455594D01*
X152637511Y-106501349D01*
X152568353Y-106511293D01*
X152504797Y-106482268D01*
X152498319Y-106476236D01*
X152391847Y-106369764D01*
X152391839Y-106369758D01*
X152252628Y-106276740D01*
X152097936Y-106212665D01*
X152097928Y-106212663D01*
X151933721Y-106180000D01*
X151766279Y-106180000D01*
X151602071Y-106212663D01*
X151602063Y-106212665D01*
X151447372Y-106276740D01*
X151447371Y-106276740D01*
X151308160Y-106369758D01*
X151308152Y-106369764D01*
X151189764Y-106488152D01*
X151189758Y-106488160D01*
X151096740Y-106627371D01*
X151096740Y-106627372D01*
X151032665Y-106782063D01*
X151032663Y-106782071D01*
X151000000Y-106946277D01*
X151000000Y-107113722D01*
X151032663Y-107277928D01*
X151032665Y-107277936D01*
X151096740Y-107432627D01*
X151096740Y-107432628D01*
X151189758Y-107571839D01*
X151189764Y-107571847D01*
X151308152Y-107690235D01*
X151308160Y-107690241D01*
X151447371Y-107783259D01*
X151602063Y-107847334D01*
X151602071Y-107847336D01*
X151766277Y-107879999D01*
X151766280Y-107880000D01*
X151933720Y-107880000D01*
X151933722Y-107879999D01*
X152097928Y-107847336D01*
X152097936Y-107847334D01*
X152252627Y-107783259D01*
X152252628Y-107783259D01*
X152391839Y-107690241D01*
X152391847Y-107690235D01*
X152498319Y-107583764D01*
X152559642Y-107550279D01*
X152629334Y-107555263D01*
X152685267Y-107597135D01*
X152709684Y-107662599D01*
X152710000Y-107671445D01*
X152710000Y-108155500D01*
X152690315Y-108222539D01*
X152637511Y-108268294D01*
X152586000Y-108279500D01*
X150113751Y-108279500D01*
X150106264Y-108279274D01*
X149816205Y-108261728D01*
X149801341Y-108259923D01*
X149718553Y-108244752D01*
X149656160Y-108213306D01*
X149620672Y-108153120D01*
X149623357Y-108083302D01*
X149663363Y-108026019D01*
X149693452Y-108008222D01*
X149807594Y-107960943D01*
X149807595Y-107960942D01*
X149807598Y-107960941D01*
X149979655Y-107845977D01*
X150125977Y-107699655D01*
X150240941Y-107527598D01*
X150320130Y-107336420D01*
X150360500Y-107133465D01*
X150360500Y-106926535D01*
X150320130Y-106723580D01*
X150240941Y-106532402D01*
X150125977Y-106360345D01*
X150125975Y-106360342D01*
X149979657Y-106214024D01*
X149893626Y-106156541D01*
X149807598Y-106099059D01*
X149782490Y-106088659D01*
X149616420Y-106019870D01*
X149616412Y-106019868D01*
X149413469Y-105979500D01*
X149413465Y-105979500D01*
X149206535Y-105979500D01*
X149206530Y-105979500D01*
X149003587Y-106019868D01*
X149003579Y-106019870D01*
X148812403Y-106099058D01*
X148640342Y-106214024D01*
X148494024Y-106360342D01*
X148379058Y-106532403D01*
X148299870Y-106723579D01*
X148299868Y-106723587D01*
X148259500Y-106926530D01*
X148259500Y-107096740D01*
X148259001Y-107098436D01*
X148259453Y-107100145D01*
X148249197Y-107131826D01*
X148239815Y-107163779D01*
X148238479Y-107164936D01*
X148237935Y-107166618D01*
X148212171Y-107187731D01*
X148187011Y-107209534D01*
X148185262Y-107209785D01*
X148183895Y-107210906D01*
X148150814Y-107214738D01*
X148117853Y-107219478D01*
X148116245Y-107218743D01*
X148114490Y-107218947D01*
X148084599Y-107204291D01*
X148054297Y-107190453D01*
X148052834Y-107188717D01*
X148051755Y-107188188D01*
X148029383Y-107160890D01*
X147990603Y-107096740D01*
X147900680Y-106947989D01*
X147893727Y-106934743D01*
X147776000Y-106673163D01*
X147770693Y-106659167D01*
X147760785Y-106627372D01*
X147685363Y-106385335D01*
X147681780Y-106370798D01*
X147630076Y-106088659D01*
X147628271Y-106073794D01*
X147610726Y-105783736D01*
X147610500Y-105776249D01*
X147610500Y-103245730D01*
X148474500Y-103245730D01*
X148474500Y-104354269D01*
X148477353Y-104384699D01*
X148477353Y-104384701D01*
X148513318Y-104487479D01*
X148522207Y-104512882D01*
X148602850Y-104622150D01*
X148712118Y-104702793D01*
X148754845Y-104717744D01*
X148840299Y-104747646D01*
X148870730Y-104750500D01*
X148870734Y-104750500D01*
X149529270Y-104750500D01*
X149559699Y-104747646D01*
X149559701Y-104747646D01*
X149631225Y-104722618D01*
X149687882Y-104702793D01*
X149797150Y-104622150D01*
X149815194Y-104597700D01*
X149870837Y-104555452D01*
X149940493Y-104549993D01*
X150002043Y-104583059D01*
X150002643Y-104583655D01*
X150007517Y-104588529D01*
X150007521Y-104588532D01*
X150126340Y-104667925D01*
X150126346Y-104667928D01*
X150126347Y-104667929D01*
X150258380Y-104722619D01*
X150258384Y-104722619D01*
X150258385Y-104722620D01*
X150398542Y-104750500D01*
X150398545Y-104750500D01*
X150541457Y-104750500D01*
X150635751Y-104731742D01*
X150681620Y-104722619D01*
X150813653Y-104667929D01*
X150932479Y-104588532D01*
X151033532Y-104487479D01*
X151112929Y-104368653D01*
X151112934Y-104368639D01*
X151113948Y-104366744D01*
X151114752Y-104365924D01*
X151116314Y-104363588D01*
X151116756Y-104363883D01*
X151162904Y-104316893D01*
X151231039Y-104301423D01*
X151296722Y-104325245D01*
X151313795Y-104341963D01*
X151314149Y-104341610D01*
X151417640Y-104445101D01*
X151417643Y-104445103D01*
X151537356Y-104514220D01*
X151670885Y-104550000D01*
X151809115Y-104550000D01*
X151942643Y-104514220D01*
X152062356Y-104445103D01*
X152062359Y-104445101D01*
X152160101Y-104347359D01*
X152160103Y-104347356D01*
X152229220Y-104227643D01*
X152265000Y-104094115D01*
X152265000Y-103505884D01*
X152229220Y-103372356D01*
X152160103Y-103252643D01*
X152160101Y-103252640D01*
X152062359Y-103154898D01*
X152062356Y-103154896D01*
X151942643Y-103085779D01*
X151809115Y-103050000D01*
X151670885Y-103050000D01*
X151537356Y-103085779D01*
X151417643Y-103154896D01*
X151417640Y-103154898D01*
X151314149Y-103258390D01*
X151312660Y-103256901D01*
X151265248Y-103291511D01*
X151195502Y-103295657D01*
X151134586Y-103261437D01*
X151113952Y-103233261D01*
X151112927Y-103231343D01*
X151033532Y-103112521D01*
X151033529Y-103112517D01*
X150932482Y-103011470D01*
X150932478Y-103011467D01*
X150813659Y-102932074D01*
X150813650Y-102932069D01*
X150681620Y-102877381D01*
X150681614Y-102877379D01*
X150541457Y-102849500D01*
X150541455Y-102849500D01*
X150398545Y-102849500D01*
X150398543Y-102849500D01*
X150258385Y-102877379D01*
X150258379Y-102877381D01*
X150126349Y-102932069D01*
X150126340Y-102932074D01*
X150007521Y-103011467D01*
X150007514Y-103011472D01*
X150002638Y-103016349D01*
X149941313Y-103049831D01*
X149871622Y-103044842D01*
X149815691Y-103002968D01*
X149815192Y-103002296D01*
X149797151Y-102977851D01*
X149735118Y-102932069D01*
X149687882Y-102897207D01*
X149687880Y-102897206D01*
X149559700Y-102852353D01*
X149529270Y-102849500D01*
X149529266Y-102849500D01*
X148870734Y-102849500D01*
X148870730Y-102849500D01*
X148840300Y-102852353D01*
X148840298Y-102852353D01*
X148712119Y-102897206D01*
X148712117Y-102897207D01*
X148602850Y-102977850D01*
X148522207Y-103087117D01*
X148522206Y-103087119D01*
X148477353Y-103215298D01*
X148477353Y-103215300D01*
X148474500Y-103245730D01*
X147610500Y-103245730D01*
X147610500Y-101839383D01*
X147630185Y-101772344D01*
X147642673Y-101756053D01*
X147676875Y-101718367D01*
X147807774Y-101519920D01*
X147906716Y-101303758D01*
X147971364Y-101074986D01*
X148000191Y-100839010D01*
X147992515Y-100601404D01*
X147982142Y-100546322D01*
X147980000Y-100523374D01*
X147980000Y-96775521D01*
X147973584Y-96749004D01*
X147955304Y-96526718D01*
X147898617Y-96294532D01*
X147806231Y-96074102D01*
X147680432Y-95870881D01*
X147680431Y-95870880D01*
X147680430Y-95870878D01*
X147651342Y-95837153D01*
X147638988Y-95809936D01*
X147624371Y-95783853D01*
X147623753Y-95776374D01*
X147622463Y-95773531D01*
X147621467Y-95748678D01*
X147625024Y-95689891D01*
X147628271Y-95636200D01*
X147630076Y-95621340D01*
X147639448Y-95570202D01*
X147681780Y-95339197D01*
X147685364Y-95324663D01*
X147762096Y-95078422D01*
X147770696Y-95050822D01*
X147775998Y-95036841D01*
X147893731Y-94775249D01*
X147900676Y-94762016D01*
X148049080Y-94516526D01*
X148057567Y-94504230D01*
X148234480Y-94278417D01*
X148244395Y-94267226D01*
X148447226Y-94064395D01*
X148458417Y-94054480D01*
X148684230Y-93877567D01*
X148696526Y-93869080D01*
X148942016Y-93720676D01*
X148955249Y-93713731D01*
X149216841Y-93595998D01*
X149230822Y-93590696D01*
X149504668Y-93505362D01*
X149519197Y-93501780D01*
X149801344Y-93450075D01*
X149816201Y-93448271D01*
X150106264Y-93430726D01*
X150113751Y-93430500D01*
X152586000Y-93430500D01*
X152653039Y-93450185D01*
G37*
G04 #@! TD.AperFunction*
G04 #@! TA.AperFunction,Conductor*
G36*
X109207539Y-93460185D02*
G01*
X109253294Y-93512989D01*
X109264500Y-93564500D01*
X109264500Y-103150939D01*
X109271412Y-103203791D01*
X109271412Y-103203792D01*
X109286424Y-103260199D01*
X109287814Y-103265422D01*
X109293859Y-103284390D01*
X109344087Y-103360819D01*
X109381874Y-103397095D01*
X109416603Y-103457722D01*
X109420000Y-103486546D01*
X109420000Y-104173858D01*
X109400315Y-104240897D01*
X109377204Y-104267570D01*
X109355106Y-104286718D01*
X109337160Y-104304301D01*
X109337154Y-104304308D01*
X109292511Y-104384118D01*
X109292509Y-104384123D01*
X109272826Y-104451155D01*
X109264500Y-104509062D01*
X109264500Y-106170007D01*
X109264631Y-106177335D01*
X109264947Y-106186184D01*
X109264947Y-106186190D01*
X109277772Y-106250662D01*
X109302188Y-106316124D01*
X109312395Y-106339096D01*
X109312397Y-106339099D01*
X109347791Y-106380798D01*
X109371579Y-106408824D01*
X109371585Y-106408828D01*
X109375787Y-106412781D01*
X109377203Y-106413428D01*
X109393790Y-106439238D01*
X109412181Y-106463804D01*
X109413197Y-106469436D01*
X109414977Y-106472206D01*
X109420000Y-106507141D01*
X109420000Y-106550461D01*
X109410561Y-106597914D01*
X109339869Y-106768579D01*
X109339867Y-106768587D01*
X109299499Y-106971530D01*
X109299499Y-107178469D01*
X109339867Y-107381412D01*
X109339869Y-107381420D01*
X109410561Y-107552085D01*
X109412187Y-107560262D01*
X109414977Y-107564603D01*
X109420000Y-107599538D01*
X109420000Y-107644795D01*
X109400315Y-107711834D01*
X109377204Y-107738507D01*
X109355106Y-107757655D01*
X109337160Y-107775238D01*
X109337154Y-107775245D01*
X109292511Y-107855055D01*
X109292509Y-107855060D01*
X109272826Y-107922092D01*
X109272825Y-107922097D01*
X109272825Y-107922098D01*
X109267809Y-107956987D01*
X109264500Y-107979999D01*
X109264500Y-108165500D01*
X109244815Y-108232539D01*
X109192011Y-108278294D01*
X109140500Y-108289500D01*
X108246416Y-108289500D01*
X108179377Y-108269815D01*
X108133622Y-108217011D01*
X108123678Y-108147853D01*
X108152703Y-108084297D01*
X108198963Y-108050939D01*
X108307595Y-108005942D01*
X108307595Y-108005941D01*
X108307597Y-108005941D01*
X108479654Y-107890977D01*
X108625976Y-107744655D01*
X108740940Y-107572598D01*
X108820129Y-107381420D01*
X108860499Y-107178465D01*
X108860499Y-106971535D01*
X108820129Y-106768580D01*
X108740940Y-106577402D01*
X108625976Y-106405345D01*
X108625974Y-106405342D01*
X108479656Y-106259024D01*
X108346431Y-106170007D01*
X108307597Y-106144059D01*
X108257794Y-106123430D01*
X108116419Y-106064870D01*
X108116411Y-106064868D01*
X107913468Y-106024500D01*
X107913464Y-106024500D01*
X107706534Y-106024500D01*
X107706529Y-106024500D01*
X107503586Y-106064868D01*
X107503578Y-106064870D01*
X107312402Y-106144058D01*
X107140341Y-106259024D01*
X106994023Y-106405342D01*
X106879057Y-106577403D01*
X106799869Y-106768579D01*
X106799867Y-106768587D01*
X106759499Y-106971530D01*
X106759499Y-107178469D01*
X106799643Y-107380284D01*
X106799869Y-107381420D01*
X106879058Y-107572598D01*
X106881071Y-107575610D01*
X106994023Y-107744657D01*
X107140341Y-107890975D01*
X107312402Y-108005942D01*
X107421035Y-108050939D01*
X107475438Y-108094780D01*
X107497503Y-108161074D01*
X107480224Y-108228774D01*
X107429086Y-108276384D01*
X107373582Y-108289500D01*
X103348751Y-108289500D01*
X103341264Y-108289274D01*
X103051205Y-108271728D01*
X103036340Y-108269923D01*
X102754201Y-108218219D01*
X102739663Y-108214635D01*
X102465832Y-108129306D01*
X102451831Y-108123997D01*
X102190263Y-108006275D01*
X102177004Y-107999316D01*
X101931540Y-107850928D01*
X101919217Y-107842422D01*
X101915385Y-107839420D01*
X101693426Y-107665526D01*
X101682218Y-107655596D01*
X101479403Y-107452781D01*
X101469473Y-107441573D01*
X101421456Y-107380284D01*
X101292573Y-107215776D01*
X101284075Y-107203465D01*
X101135680Y-106957989D01*
X101128727Y-106944743D01*
X101011000Y-106683163D01*
X101005693Y-106669167D01*
X100943454Y-106469436D01*
X100920363Y-106395335D01*
X100916780Y-106380798D01*
X100878151Y-106170007D01*
X100865075Y-106098657D01*
X100863271Y-106083794D01*
X100859684Y-106024500D01*
X100845726Y-105793736D01*
X100845500Y-105786249D01*
X100845500Y-95943750D01*
X100845726Y-95936263D01*
X100863271Y-95646205D01*
X100865076Y-95631340D01*
X100916780Y-95349201D01*
X100920364Y-95334663D01*
X100927377Y-95312159D01*
X101005696Y-95060822D01*
X101010998Y-95046841D01*
X101128731Y-94785249D01*
X101135676Y-94772016D01*
X101284080Y-94526526D01*
X101292567Y-94514230D01*
X101469480Y-94288417D01*
X101479395Y-94277226D01*
X101682226Y-94074395D01*
X101693417Y-94064480D01*
X101919230Y-93887567D01*
X101931526Y-93879080D01*
X102177016Y-93730676D01*
X102190249Y-93723731D01*
X102451841Y-93605998D01*
X102465822Y-93600696D01*
X102739668Y-93515362D01*
X102754197Y-93511780D01*
X103036344Y-93460075D01*
X103051201Y-93458271D01*
X103341264Y-93440726D01*
X103348751Y-93440500D01*
X103410892Y-93440500D01*
X109140500Y-93440500D01*
X109207539Y-93460185D01*
G37*
G04 #@! TD.AperFunction*
G04 #@! TA.AperFunction,Conductor*
G36*
X111998736Y-93440726D02*
G01*
X112288796Y-93458271D01*
X112303659Y-93460076D01*
X112585798Y-93511780D01*
X112600335Y-93515363D01*
X112874172Y-93600695D01*
X112888163Y-93606000D01*
X113149743Y-93723727D01*
X113162989Y-93730680D01*
X113408465Y-93879075D01*
X113420776Y-93887573D01*
X113646573Y-94064473D01*
X113657781Y-94074403D01*
X113860596Y-94277218D01*
X113870526Y-94288426D01*
X113990481Y-94441538D01*
X114047422Y-94514217D01*
X114055928Y-94526540D01*
X114204316Y-94772004D01*
X114211275Y-94785263D01*
X114328997Y-95046831D01*
X114334306Y-95060832D01*
X114419635Y-95334663D01*
X114423219Y-95349201D01*
X114474923Y-95631340D01*
X114476728Y-95646206D01*
X114483725Y-95761892D01*
X114468123Y-95829997D01*
X114455706Y-95848163D01*
X114423189Y-95887683D01*
X114302762Y-96092065D01*
X114302760Y-96092069D01*
X114215566Y-96312678D01*
X114163717Y-96544160D01*
X114163716Y-96544165D01*
X114148474Y-96780897D01*
X114159478Y-96900466D01*
X114160000Y-96911829D01*
X114160000Y-100495043D01*
X114158336Y-100515292D01*
X114157638Y-100519504D01*
X114137077Y-100758554D01*
X114137077Y-100758563D01*
X114154066Y-100997888D01*
X114154067Y-100997894D01*
X114208192Y-101231632D01*
X114208193Y-101231636D01*
X114208194Y-101231637D01*
X114275785Y-101398808D01*
X114298131Y-101454074D01*
X114298134Y-101454081D01*
X114313167Y-101479108D01*
X114421676Y-101659759D01*
X114421678Y-101659761D01*
X114421681Y-101659766D01*
X114465533Y-101712085D01*
X114493511Y-101776108D01*
X114494500Y-101791738D01*
X114494500Y-105786249D01*
X114494274Y-105793736D01*
X114476728Y-106083794D01*
X114474923Y-106098659D01*
X114423219Y-106380798D01*
X114419635Y-106395336D01*
X114334306Y-106669167D01*
X114328997Y-106683168D01*
X114211275Y-106944736D01*
X114204316Y-106957995D01*
X114055928Y-107203459D01*
X114047422Y-107215782D01*
X113940839Y-107351825D01*
X113883999Y-107392458D01*
X113814214Y-107395910D01*
X113753642Y-107361086D01*
X113721512Y-107299042D01*
X113721611Y-107251160D01*
X113739999Y-107158720D01*
X113739999Y-106991279D01*
X113739998Y-106991277D01*
X113707335Y-106827071D01*
X113707333Y-106827063D01*
X113643258Y-106672372D01*
X113643258Y-106672371D01*
X113550240Y-106533160D01*
X113550234Y-106533152D01*
X113431846Y-106414764D01*
X113431838Y-106414758D01*
X113292627Y-106321740D01*
X113137935Y-106257665D01*
X113137927Y-106257663D01*
X112973720Y-106225000D01*
X112806278Y-106225000D01*
X112642070Y-106257663D01*
X112642062Y-106257665D01*
X112487371Y-106321740D01*
X112487370Y-106321740D01*
X112348159Y-106414758D01*
X112348151Y-106414764D01*
X112229763Y-106533152D01*
X112229757Y-106533160D01*
X112136739Y-106672371D01*
X112136739Y-106672372D01*
X112072664Y-106827063D01*
X112072662Y-106827071D01*
X112039999Y-106991277D01*
X112039999Y-107158722D01*
X112072662Y-107322928D01*
X112072664Y-107322936D01*
X112136739Y-107477627D01*
X112136739Y-107477628D01*
X112229757Y-107616839D01*
X112229763Y-107616847D01*
X112348151Y-107735235D01*
X112348159Y-107735241D01*
X112487370Y-107828259D01*
X112642062Y-107892334D01*
X112642070Y-107892336D01*
X112770045Y-107917793D01*
X112774169Y-107919950D01*
X112778824Y-107919874D01*
X112804839Y-107935993D01*
X112831956Y-107950178D01*
X112834259Y-107954222D01*
X112838217Y-107956675D01*
X112851389Y-107984304D01*
X112866531Y-108010894D01*
X112866281Y-108015541D01*
X112868285Y-108019743D01*
X112864429Y-108050102D01*
X112862791Y-108080663D01*
X112860068Y-108084438D01*
X112859482Y-108089056D01*
X112839822Y-108112513D01*
X112821924Y-108137335D01*
X112816762Y-108140030D01*
X112814603Y-108142607D01*
X112782748Y-108157793D01*
X112600336Y-108214636D01*
X112585798Y-108218219D01*
X112303659Y-108269923D01*
X112288794Y-108271728D01*
X111998736Y-108289274D01*
X111991249Y-108289500D01*
X110786416Y-108289500D01*
X110719377Y-108269815D01*
X110673622Y-108217011D01*
X110663678Y-108147853D01*
X110692703Y-108084297D01*
X110738963Y-108050939D01*
X110847595Y-108005942D01*
X110847595Y-108005941D01*
X110847597Y-108005941D01*
X111019654Y-107890977D01*
X111165976Y-107744655D01*
X111280940Y-107572598D01*
X111360129Y-107381420D01*
X111400499Y-107178465D01*
X111400499Y-106971535D01*
X111360129Y-106768580D01*
X111280940Y-106577402D01*
X111165976Y-106405345D01*
X111165974Y-106405342D01*
X111019656Y-106259024D01*
X110899666Y-106178850D01*
X110847597Y-106144059D01*
X110737992Y-106098659D01*
X110656419Y-106064870D01*
X110656411Y-106064868D01*
X110453468Y-106024500D01*
X110453464Y-106024500D01*
X110246534Y-106024500D01*
X110246529Y-106024500D01*
X110043586Y-106064868D01*
X110043578Y-106064870D01*
X109852402Y-106144058D01*
X109680341Y-106259024D01*
X109675634Y-106262888D01*
X109674556Y-106261575D01*
X109620358Y-106291170D01*
X109550666Y-106286186D01*
X109494733Y-106244314D01*
X109470316Y-106178850D01*
X109470000Y-106170004D01*
X109470000Y-104509059D01*
X109489685Y-104442020D01*
X109542489Y-104396265D01*
X109611647Y-104386321D01*
X109675203Y-104415346D01*
X109711041Y-104468104D01*
X109721517Y-104498044D01*
X109737207Y-104542882D01*
X109817850Y-104652150D01*
X109927118Y-104732793D01*
X109969845Y-104747744D01*
X110055299Y-104777646D01*
X110085730Y-104780500D01*
X110085734Y-104780500D01*
X110744270Y-104780500D01*
X110774699Y-104777646D01*
X110774701Y-104777646D01*
X110846225Y-104752618D01*
X110902882Y-104732793D01*
X111012150Y-104652150D01*
X111030194Y-104627700D01*
X111085837Y-104585452D01*
X111155493Y-104579993D01*
X111217043Y-104613059D01*
X111217643Y-104613655D01*
X111222517Y-104618529D01*
X111222521Y-104618532D01*
X111341340Y-104697925D01*
X111341346Y-104697928D01*
X111341347Y-104697929D01*
X111473380Y-104752619D01*
X111473384Y-104752619D01*
X111473385Y-104752620D01*
X111613542Y-104780500D01*
X111613545Y-104780500D01*
X111756457Y-104780500D01*
X111850751Y-104761742D01*
X111896620Y-104752619D01*
X112028653Y-104697929D01*
X112147479Y-104618532D01*
X112248532Y-104517479D01*
X112327929Y-104398653D01*
X112327934Y-104398639D01*
X112328948Y-104396744D01*
X112329752Y-104395924D01*
X112331314Y-104393588D01*
X112331756Y-104393883D01*
X112377904Y-104346893D01*
X112446039Y-104331423D01*
X112511722Y-104355245D01*
X112528795Y-104371963D01*
X112529149Y-104371610D01*
X112632640Y-104475101D01*
X112632643Y-104475103D01*
X112752356Y-104544220D01*
X112885885Y-104580000D01*
X113024115Y-104580000D01*
X113157643Y-104544220D01*
X113277356Y-104475103D01*
X113277359Y-104475101D01*
X113375101Y-104377359D01*
X113375103Y-104377356D01*
X113444220Y-104257643D01*
X113480000Y-104124115D01*
X113480000Y-103535884D01*
X113444220Y-103402356D01*
X113375103Y-103282643D01*
X113375101Y-103282640D01*
X113277359Y-103184898D01*
X113277356Y-103184896D01*
X113157643Y-103115779D01*
X113024115Y-103080000D01*
X112885885Y-103080000D01*
X112752356Y-103115779D01*
X112632643Y-103184896D01*
X112632640Y-103184898D01*
X112529149Y-103288390D01*
X112527660Y-103286901D01*
X112480248Y-103321511D01*
X112410502Y-103325657D01*
X112349586Y-103291437D01*
X112328952Y-103263261D01*
X112327927Y-103261343D01*
X112248532Y-103142521D01*
X112248529Y-103142517D01*
X112147482Y-103041470D01*
X112147478Y-103041467D01*
X112028659Y-102962074D01*
X112028650Y-102962069D01*
X111896620Y-102907381D01*
X111896614Y-102907379D01*
X111756457Y-102879500D01*
X111756455Y-102879500D01*
X111613545Y-102879500D01*
X111613543Y-102879500D01*
X111473385Y-102907379D01*
X111473379Y-102907381D01*
X111341349Y-102962069D01*
X111341340Y-102962074D01*
X111222521Y-103041467D01*
X111222514Y-103041472D01*
X111217638Y-103046349D01*
X111156313Y-103079831D01*
X111086622Y-103074842D01*
X111030691Y-103032968D01*
X111030192Y-103032296D01*
X111012151Y-103007851D01*
X110950118Y-102962069D01*
X110902882Y-102927207D01*
X110902880Y-102927206D01*
X110774700Y-102882353D01*
X110744270Y-102879500D01*
X110744266Y-102879500D01*
X110085734Y-102879500D01*
X110085730Y-102879500D01*
X110055300Y-102882353D01*
X110055298Y-102882353D01*
X109927119Y-102927206D01*
X109927117Y-102927207D01*
X109817850Y-103007850D01*
X109737207Y-103117117D01*
X109737206Y-103117119D01*
X109711041Y-103191895D01*
X109670319Y-103248671D01*
X109605366Y-103274418D01*
X109536805Y-103260961D01*
X109486402Y-103212574D01*
X109470000Y-103150940D01*
X109470000Y-93564500D01*
X109489685Y-93497461D01*
X109542489Y-93451706D01*
X109594000Y-93440500D01*
X111929108Y-93440500D01*
X111991249Y-93440500D01*
X111998736Y-93440726D01*
G37*
G04 #@! TD.AperFunction*
G04 #@! TA.AperFunction,Conductor*
G36*
X142803736Y-93430726D02*
G01*
X143093796Y-93448271D01*
X143108659Y-93450076D01*
X143390798Y-93501780D01*
X143405335Y-93505363D01*
X143679172Y-93590695D01*
X143693163Y-93596000D01*
X143954743Y-93713727D01*
X143967989Y-93720680D01*
X144213465Y-93869075D01*
X144225776Y-93877573D01*
X144389736Y-94006027D01*
X144451573Y-94054473D01*
X144462781Y-94064403D01*
X144665596Y-94267218D01*
X144675526Y-94278426D01*
X144795481Y-94431538D01*
X144852422Y-94504217D01*
X144860926Y-94516537D01*
X145009314Y-94762000D01*
X145009316Y-94762004D01*
X145016275Y-94775263D01*
X145133997Y-95036831D01*
X145139306Y-95050832D01*
X145224635Y-95324663D01*
X145228219Y-95339201D01*
X145279923Y-95621340D01*
X145281728Y-95636204D01*
X145288532Y-95748678D01*
X145272931Y-95816784D01*
X145258657Y-95837153D01*
X145229573Y-95870873D01*
X145229570Y-95870877D01*
X145229569Y-95870879D01*
X145219166Y-95887685D01*
X145103771Y-96074097D01*
X145011383Y-96294530D01*
X144954695Y-96526715D01*
X144935106Y-96764920D01*
X144939648Y-96825055D01*
X144940000Y-96834392D01*
X144940000Y-100470274D01*
X144937858Y-100493222D01*
X144917484Y-100601404D01*
X144909809Y-100839010D01*
X144909809Y-100839014D01*
X144938636Y-101074989D01*
X145003284Y-101303758D01*
X145003286Y-101303763D01*
X145076389Y-101463473D01*
X145102226Y-101519920D01*
X145233125Y-101718367D01*
X145267324Y-101756051D01*
X145297800Y-101818922D01*
X145299500Y-101839383D01*
X145299500Y-109526249D01*
X145299274Y-109533736D01*
X145281728Y-109823794D01*
X145279923Y-109838659D01*
X145228219Y-110120798D01*
X145224635Y-110135336D01*
X145139306Y-110409167D01*
X145133997Y-110423168D01*
X145016275Y-110684736D01*
X145009316Y-110697995D01*
X144860928Y-110943459D01*
X144852422Y-110955782D01*
X144675526Y-111181573D01*
X144665596Y-111192781D01*
X144462781Y-111395596D01*
X144451573Y-111405526D01*
X144225782Y-111582422D01*
X144213459Y-111590928D01*
X143967995Y-111739316D01*
X143954736Y-111746275D01*
X143693168Y-111863997D01*
X143679167Y-111869306D01*
X143405336Y-111954635D01*
X143390798Y-111958219D01*
X143108659Y-112009923D01*
X143093794Y-112011728D01*
X142803736Y-112029274D01*
X142796249Y-112029500D01*
X119343751Y-112029500D01*
X119336264Y-112029274D01*
X119046205Y-112011728D01*
X119031340Y-112009923D01*
X118749201Y-111958219D01*
X118734663Y-111954635D01*
X118460832Y-111869306D01*
X118446831Y-111863997D01*
X118185263Y-111746275D01*
X118172004Y-111739316D01*
X117926540Y-111590928D01*
X117914217Y-111582422D01*
X117688426Y-111405526D01*
X117677218Y-111395596D01*
X117474403Y-111192781D01*
X117464473Y-111181573D01*
X117287573Y-110955776D01*
X117279075Y-110943465D01*
X117130680Y-110697989D01*
X117123727Y-110684743D01*
X117006000Y-110423163D01*
X117000693Y-110409167D01*
X117000203Y-110407596D01*
X116915363Y-110135335D01*
X116911780Y-110120798D01*
X116892111Y-110013466D01*
X116860075Y-109838657D01*
X116858271Y-109823794D01*
X116844363Y-109593872D01*
X116843272Y-109575834D01*
X117185500Y-109575834D01*
X117185500Y-109744165D01*
X117218336Y-109909241D01*
X117218338Y-109909249D01*
X117282750Y-110064755D01*
X117282755Y-110064764D01*
X117376265Y-110204711D01*
X117376268Y-110204715D01*
X117495284Y-110323731D01*
X117495288Y-110323734D01*
X117635235Y-110417244D01*
X117635241Y-110417247D01*
X117635242Y-110417248D01*
X117790751Y-110481662D01*
X117955834Y-110514499D01*
X117955838Y-110514500D01*
X117955839Y-110514500D01*
X118124162Y-110514500D01*
X118124163Y-110514499D01*
X118289249Y-110481662D01*
X118444758Y-110417248D01*
X118584712Y-110323734D01*
X118703734Y-110204712D01*
X118797248Y-110064758D01*
X118861662Y-109909249D01*
X118894500Y-109744161D01*
X118894500Y-109575839D01*
X118894499Y-109575834D01*
X119185500Y-109575834D01*
X119185500Y-109744165D01*
X119218336Y-109909241D01*
X119218338Y-109909249D01*
X119282750Y-110064755D01*
X119282755Y-110064764D01*
X119376265Y-110204711D01*
X119376268Y-110204715D01*
X119495284Y-110323731D01*
X119495288Y-110323734D01*
X119635235Y-110417244D01*
X119635241Y-110417247D01*
X119635242Y-110417248D01*
X119790751Y-110481662D01*
X119955834Y-110514499D01*
X119955838Y-110514500D01*
X119955839Y-110514500D01*
X120124162Y-110514500D01*
X120124163Y-110514499D01*
X120289249Y-110481662D01*
X120444758Y-110417248D01*
X120584712Y-110323734D01*
X120703734Y-110204712D01*
X120797248Y-110064758D01*
X120861662Y-109909249D01*
X120894500Y-109744161D01*
X120894500Y-109575839D01*
X120894499Y-109575834D01*
X121185500Y-109575834D01*
X121185500Y-109744165D01*
X121218336Y-109909241D01*
X121218338Y-109909249D01*
X121282750Y-110064755D01*
X121282755Y-110064764D01*
X121376265Y-110204711D01*
X121376268Y-110204715D01*
X121495284Y-110323731D01*
X121495288Y-110323734D01*
X121635235Y-110417244D01*
X121635241Y-110417247D01*
X121635242Y-110417248D01*
X121790751Y-110481662D01*
X121955834Y-110514499D01*
X121955838Y-110514500D01*
X121955839Y-110514500D01*
X122124162Y-110514500D01*
X122124163Y-110514499D01*
X122289249Y-110481662D01*
X122444758Y-110417248D01*
X122584712Y-110323734D01*
X122703734Y-110204712D01*
X122797248Y-110064758D01*
X122861662Y-109909249D01*
X122882093Y-109806535D01*
X122882646Y-109803753D01*
X124620000Y-109803753D01*
X124620000Y-110016246D01*
X124653242Y-110226127D01*
X124653242Y-110226130D01*
X124718904Y-110428217D01*
X124815375Y-110617550D01*
X124854728Y-110671716D01*
X125487036Y-110039407D01*
X125504075Y-110102993D01*
X125569901Y-110217007D01*
X125662993Y-110310099D01*
X125777007Y-110375925D01*
X125840590Y-110392962D01*
X125208282Y-111025269D01*
X125208282Y-111025270D01*
X125262449Y-111064624D01*
X125451782Y-111161095D01*
X125653870Y-111226757D01*
X125863754Y-111260000D01*
X126076246Y-111260000D01*
X126286127Y-111226757D01*
X126286130Y-111226757D01*
X126488217Y-111161095D01*
X126677554Y-111064622D01*
X126731716Y-111025270D01*
X126731717Y-111025270D01*
X126099408Y-110392962D01*
X126162993Y-110375925D01*
X126277007Y-110310099D01*
X126370099Y-110217007D01*
X126435925Y-110102993D01*
X126452962Y-110039408D01*
X127085270Y-110671717D01*
X127085270Y-110671716D01*
X127124622Y-110617554D01*
X127221095Y-110428217D01*
X127278343Y-110252026D01*
X127317780Y-110194351D01*
X127382139Y-110167152D01*
X127450985Y-110179066D01*
X127502461Y-110226310D01*
X127510835Y-110242891D01*
X127565939Y-110375925D01*
X127579059Y-110407598D01*
X127598871Y-110437249D01*
X127694024Y-110579657D01*
X127840342Y-110725975D01*
X127840345Y-110725977D01*
X128012402Y-110840941D01*
X128203580Y-110920130D01*
X128382816Y-110955782D01*
X128406530Y-110960499D01*
X128406534Y-110960500D01*
X128406535Y-110960500D01*
X128613466Y-110960500D01*
X128613467Y-110960499D01*
X128816420Y-110920130D01*
X129007598Y-110840941D01*
X129179655Y-110725977D01*
X129325977Y-110579655D01*
X129440941Y-110407598D01*
X129520130Y-110216420D01*
X129560500Y-110013465D01*
X129560500Y-109806535D01*
X129560499Y-109806530D01*
X129999500Y-109806530D01*
X129999500Y-110013469D01*
X130039868Y-110216412D01*
X130039870Y-110216420D01*
X130105939Y-110375925D01*
X130119059Y-110407598D01*
X130138871Y-110437249D01*
X130234024Y-110579657D01*
X130380342Y-110725975D01*
X130380345Y-110725977D01*
X130552402Y-110840941D01*
X130743580Y-110920130D01*
X130922816Y-110955782D01*
X130946530Y-110960499D01*
X130946534Y-110960500D01*
X130946535Y-110960500D01*
X131153466Y-110960500D01*
X131153467Y-110960499D01*
X131356420Y-110920130D01*
X131547598Y-110840941D01*
X131719655Y-110725977D01*
X131865977Y-110579655D01*
X131980941Y-110407598D01*
X132060130Y-110216420D01*
X132100500Y-110013465D01*
X132100500Y-109806535D01*
X132100499Y-109806530D01*
X132539500Y-109806530D01*
X132539500Y-110013469D01*
X132579868Y-110216412D01*
X132579870Y-110216420D01*
X132645939Y-110375925D01*
X132659059Y-110407598D01*
X132678871Y-110437249D01*
X132774024Y-110579657D01*
X132920342Y-110725975D01*
X132920345Y-110725977D01*
X133092402Y-110840941D01*
X133283580Y-110920130D01*
X133462816Y-110955782D01*
X133486530Y-110960499D01*
X133486534Y-110960500D01*
X133486535Y-110960500D01*
X133693466Y-110960500D01*
X133693467Y-110960499D01*
X133896420Y-110920130D01*
X134087598Y-110840941D01*
X134259655Y-110725977D01*
X134405977Y-110579655D01*
X134520941Y-110407598D01*
X134600130Y-110216420D01*
X134640500Y-110013465D01*
X134640500Y-109806535D01*
X134640499Y-109806530D01*
X135079500Y-109806530D01*
X135079500Y-110013469D01*
X135119868Y-110216412D01*
X135119870Y-110216420D01*
X135185939Y-110375925D01*
X135199059Y-110407598D01*
X135218871Y-110437249D01*
X135314024Y-110579657D01*
X135460342Y-110725975D01*
X135460345Y-110725977D01*
X135632402Y-110840941D01*
X135823580Y-110920130D01*
X136002816Y-110955782D01*
X136026530Y-110960499D01*
X136026534Y-110960500D01*
X136026535Y-110960500D01*
X136233466Y-110960500D01*
X136233467Y-110960499D01*
X136436420Y-110920130D01*
X136627598Y-110840941D01*
X136799655Y-110725977D01*
X136945977Y-110579655D01*
X137060941Y-110407598D01*
X137140130Y-110216420D01*
X137180500Y-110013465D01*
X137180500Y-109806535D01*
X137168094Y-109744165D01*
X137142191Y-109613938D01*
X137140131Y-109603585D01*
X137140130Y-109603584D01*
X137140130Y-109603580D01*
X137136921Y-109595834D01*
X139245500Y-109595834D01*
X139245500Y-109764165D01*
X139278336Y-109929241D01*
X139278338Y-109929249D01*
X139342750Y-110084755D01*
X139342755Y-110084764D01*
X139436265Y-110224711D01*
X139436268Y-110224715D01*
X139555284Y-110343731D01*
X139555288Y-110343734D01*
X139695235Y-110437244D01*
X139695241Y-110437247D01*
X139695242Y-110437248D01*
X139850751Y-110501662D01*
X140001491Y-110531646D01*
X140015834Y-110534499D01*
X140015838Y-110534500D01*
X140015839Y-110534500D01*
X140184162Y-110534500D01*
X140184163Y-110534499D01*
X140349249Y-110501662D01*
X140504758Y-110437248D01*
X140644712Y-110343734D01*
X140763734Y-110224712D01*
X140857248Y-110084758D01*
X140921662Y-109929249D01*
X140954500Y-109764161D01*
X140954500Y-109595839D01*
X140954499Y-109595834D01*
X141245500Y-109595834D01*
X141245500Y-109764165D01*
X141278336Y-109929241D01*
X141278338Y-109929249D01*
X141342750Y-110084755D01*
X141342755Y-110084764D01*
X141436265Y-110224711D01*
X141436268Y-110224715D01*
X141555284Y-110343731D01*
X141555288Y-110343734D01*
X141695235Y-110437244D01*
X141695241Y-110437247D01*
X141695242Y-110437248D01*
X141850751Y-110501662D01*
X142001491Y-110531646D01*
X142015834Y-110534499D01*
X142015838Y-110534500D01*
X142015839Y-110534500D01*
X142184162Y-110534500D01*
X142184163Y-110534499D01*
X142349249Y-110501662D01*
X142504758Y-110437248D01*
X142644712Y-110343734D01*
X142763734Y-110224712D01*
X142857248Y-110084758D01*
X142921662Y-109929249D01*
X142954500Y-109764161D01*
X142954500Y-109595839D01*
X142921662Y-109430751D01*
X142857248Y-109275242D01*
X142857246Y-109275239D01*
X142857244Y-109275235D01*
X142821493Y-109221730D01*
X143245500Y-109221730D01*
X143245500Y-110138269D01*
X143248353Y-110168699D01*
X143248353Y-110168701D01*
X143293206Y-110296880D01*
X143293207Y-110296882D01*
X143373850Y-110406150D01*
X143483118Y-110486793D01*
X143525608Y-110501661D01*
X143611299Y-110531646D01*
X143641730Y-110534500D01*
X143641734Y-110534500D01*
X144558270Y-110534500D01*
X144588699Y-110531646D01*
X144588701Y-110531646D01*
X144652790Y-110509219D01*
X144716882Y-110486793D01*
X144826150Y-110406150D01*
X144906793Y-110296882D01*
X144932047Y-110224711D01*
X144951646Y-110168701D01*
X144951646Y-110168699D01*
X144954500Y-110138269D01*
X144954500Y-109221730D01*
X144951646Y-109191300D01*
X144951646Y-109191298D01*
X144906793Y-109063119D01*
X144906792Y-109063117D01*
X144872216Y-109016268D01*
X144826150Y-108953850D01*
X144716882Y-108873207D01*
X144716880Y-108873206D01*
X144588700Y-108828353D01*
X144558270Y-108825500D01*
X144558266Y-108825500D01*
X143641734Y-108825500D01*
X143641730Y-108825500D01*
X143611300Y-108828353D01*
X143611298Y-108828353D01*
X143483119Y-108873206D01*
X143483117Y-108873207D01*
X143373850Y-108953850D01*
X143293207Y-109063117D01*
X143293206Y-109063119D01*
X143248353Y-109191298D01*
X143248353Y-109191300D01*
X143245500Y-109221730D01*
X142821493Y-109221730D01*
X142763734Y-109135288D01*
X142763731Y-109135284D01*
X142644715Y-109016268D01*
X142644711Y-109016265D01*
X142504764Y-108922755D01*
X142504755Y-108922750D01*
X142349249Y-108858338D01*
X142349241Y-108858336D01*
X142184165Y-108825500D01*
X142184161Y-108825500D01*
X142015839Y-108825500D01*
X142015834Y-108825500D01*
X141850758Y-108858336D01*
X141850750Y-108858338D01*
X141695244Y-108922750D01*
X141695235Y-108922755D01*
X141555288Y-109016265D01*
X141555284Y-109016268D01*
X141436268Y-109135284D01*
X141436265Y-109135288D01*
X141342755Y-109275235D01*
X141342750Y-109275244D01*
X141278338Y-109430750D01*
X141278336Y-109430758D01*
X141245500Y-109595834D01*
X140954499Y-109595834D01*
X140921662Y-109430751D01*
X140857248Y-109275242D01*
X140857247Y-109275241D01*
X140857244Y-109275235D01*
X140763734Y-109135288D01*
X140763731Y-109135284D01*
X140644715Y-109016268D01*
X140644711Y-109016265D01*
X140504764Y-108922755D01*
X140504755Y-108922750D01*
X140349249Y-108858338D01*
X140349241Y-108858336D01*
X140184165Y-108825500D01*
X140184161Y-108825500D01*
X140015839Y-108825500D01*
X140015834Y-108825500D01*
X139850758Y-108858336D01*
X139850750Y-108858338D01*
X139695244Y-108922750D01*
X139695235Y-108922755D01*
X139555288Y-109016265D01*
X139555284Y-109016268D01*
X139436268Y-109135284D01*
X139436265Y-109135288D01*
X139342755Y-109275235D01*
X139342750Y-109275244D01*
X139278338Y-109430750D01*
X139278336Y-109430758D01*
X139245500Y-109595834D01*
X137136921Y-109595834D01*
X137060941Y-109412402D01*
X136945977Y-109240345D01*
X136945975Y-109240342D01*
X136799657Y-109094024D01*
X136713626Y-109036541D01*
X136627598Y-108979059D01*
X136566738Y-108953850D01*
X136436420Y-108899870D01*
X136436412Y-108899868D01*
X136233469Y-108859500D01*
X136233465Y-108859500D01*
X136026535Y-108859500D01*
X136026530Y-108859500D01*
X135823587Y-108899868D01*
X135823579Y-108899870D01*
X135632403Y-108979058D01*
X135460342Y-109094024D01*
X135314024Y-109240342D01*
X135199058Y-109412403D01*
X135119870Y-109603579D01*
X135119868Y-109603587D01*
X135079500Y-109806530D01*
X134640499Y-109806530D01*
X134600130Y-109603580D01*
X134520941Y-109412402D01*
X134405977Y-109240345D01*
X134405975Y-109240342D01*
X134259657Y-109094024D01*
X134173626Y-109036541D01*
X134087598Y-108979059D01*
X134026738Y-108953850D01*
X133896420Y-108899870D01*
X133896412Y-108899868D01*
X133693469Y-108859500D01*
X133693465Y-108859500D01*
X133486535Y-108859500D01*
X133486530Y-108859500D01*
X133283587Y-108899868D01*
X133283579Y-108899870D01*
X133092403Y-108979058D01*
X132920342Y-109094024D01*
X132774024Y-109240342D01*
X132659058Y-109412403D01*
X132579870Y-109603579D01*
X132579868Y-109603587D01*
X132539500Y-109806530D01*
X132100499Y-109806530D01*
X132060130Y-109603580D01*
X131980941Y-109412402D01*
X131865977Y-109240345D01*
X131865975Y-109240342D01*
X131719657Y-109094024D01*
X131633626Y-109036541D01*
X131547598Y-108979059D01*
X131486738Y-108953850D01*
X131356420Y-108899870D01*
X131356412Y-108899868D01*
X131153469Y-108859500D01*
X131153465Y-108859500D01*
X130946535Y-108859500D01*
X130946530Y-108859500D01*
X130743587Y-108899868D01*
X130743579Y-108899870D01*
X130552403Y-108979058D01*
X130380342Y-109094024D01*
X130234024Y-109240342D01*
X130119058Y-109412403D01*
X130039870Y-109603579D01*
X130039868Y-109603587D01*
X129999500Y-109806530D01*
X129560499Y-109806530D01*
X129520130Y-109603580D01*
X129440941Y-109412402D01*
X129325977Y-109240345D01*
X129325975Y-109240342D01*
X129179657Y-109094024D01*
X129093626Y-109036541D01*
X129007598Y-108979059D01*
X128946738Y-108953850D01*
X128816420Y-108899870D01*
X128816412Y-108899868D01*
X128613469Y-108859500D01*
X128613465Y-108859500D01*
X128406535Y-108859500D01*
X128406530Y-108859500D01*
X128203587Y-108899868D01*
X128203579Y-108899870D01*
X128012403Y-108979058D01*
X127840342Y-109094024D01*
X127694024Y-109240342D01*
X127579057Y-109412403D01*
X127510835Y-109577108D01*
X127466994Y-109631511D01*
X127400700Y-109653576D01*
X127333000Y-109636297D01*
X127285390Y-109585159D01*
X127278343Y-109567973D01*
X127221095Y-109391782D01*
X127124624Y-109202449D01*
X127085270Y-109148282D01*
X127085269Y-109148282D01*
X126452962Y-109780590D01*
X126435925Y-109717007D01*
X126370099Y-109602993D01*
X126277007Y-109509901D01*
X126162993Y-109444075D01*
X126099409Y-109427037D01*
X126731716Y-108794728D01*
X126677550Y-108755375D01*
X126488217Y-108658904D01*
X126286129Y-108593242D01*
X126076246Y-108560000D01*
X125863754Y-108560000D01*
X125653872Y-108593242D01*
X125653869Y-108593242D01*
X125451782Y-108658904D01*
X125262439Y-108755380D01*
X125208282Y-108794727D01*
X125208282Y-108794728D01*
X125840591Y-109427037D01*
X125777007Y-109444075D01*
X125662993Y-109509901D01*
X125569901Y-109602993D01*
X125504075Y-109717007D01*
X125487037Y-109780591D01*
X124854728Y-109148282D01*
X124854727Y-109148282D01*
X124815380Y-109202439D01*
X124718904Y-109391782D01*
X124653242Y-109593869D01*
X124653242Y-109593872D01*
X124620000Y-109803753D01*
X122882646Y-109803753D01*
X122888428Y-109774690D01*
X122894499Y-109744165D01*
X122894500Y-109744162D01*
X122894500Y-109575838D01*
X122894499Y-109575834D01*
X122872275Y-109464108D01*
X122861662Y-109410751D01*
X122797248Y-109255242D01*
X122797247Y-109255241D01*
X122797244Y-109255235D01*
X122703734Y-109115288D01*
X122703731Y-109115284D01*
X122584715Y-108996268D01*
X122584711Y-108996265D01*
X122508121Y-108945089D01*
X122444764Y-108902755D01*
X122444755Y-108902750D01*
X122289249Y-108838338D01*
X122289241Y-108838336D01*
X122124165Y-108805500D01*
X122124161Y-108805500D01*
X121955839Y-108805500D01*
X121955834Y-108805500D01*
X121790758Y-108838336D01*
X121790750Y-108838338D01*
X121635244Y-108902750D01*
X121635235Y-108902755D01*
X121495288Y-108996265D01*
X121495284Y-108996268D01*
X121376268Y-109115284D01*
X121376265Y-109115288D01*
X121282755Y-109255235D01*
X121282750Y-109255244D01*
X121218338Y-109410750D01*
X121218336Y-109410758D01*
X121185500Y-109575834D01*
X120894499Y-109575834D01*
X120861662Y-109410751D01*
X120797248Y-109255242D01*
X120797247Y-109255241D01*
X120797244Y-109255235D01*
X120703734Y-109115288D01*
X120703731Y-109115284D01*
X120584715Y-108996268D01*
X120584711Y-108996265D01*
X120444764Y-108902755D01*
X120444755Y-108902750D01*
X120289249Y-108838338D01*
X120289241Y-108838336D01*
X120124165Y-108805500D01*
X120124161Y-108805500D01*
X119955839Y-108805500D01*
X119955834Y-108805500D01*
X119790758Y-108838336D01*
X119790750Y-108838338D01*
X119635244Y-108902750D01*
X119635235Y-108902755D01*
X119495288Y-108996265D01*
X119495284Y-108996268D01*
X119376268Y-109115284D01*
X119376265Y-109115288D01*
X119282755Y-109255235D01*
X119282750Y-109255244D01*
X119218338Y-109410750D01*
X119218336Y-109410758D01*
X119185500Y-109575834D01*
X118894499Y-109575834D01*
X118861662Y-109410751D01*
X118797248Y-109255242D01*
X118797247Y-109255241D01*
X118797244Y-109255235D01*
X118703734Y-109115288D01*
X118703731Y-109115284D01*
X118584715Y-108996268D01*
X118584711Y-108996265D01*
X118444764Y-108902755D01*
X118444755Y-108902750D01*
X118289249Y-108838338D01*
X118289241Y-108838336D01*
X118124165Y-108805500D01*
X118124161Y-108805500D01*
X117955839Y-108805500D01*
X117955834Y-108805500D01*
X117790758Y-108838336D01*
X117790750Y-108838338D01*
X117635244Y-108902750D01*
X117635235Y-108902755D01*
X117495288Y-108996265D01*
X117495284Y-108996268D01*
X117376268Y-109115284D01*
X117376265Y-109115288D01*
X117282755Y-109255235D01*
X117282750Y-109255244D01*
X117218338Y-109410750D01*
X117218336Y-109410758D01*
X117185500Y-109575834D01*
X116843272Y-109575834D01*
X116840726Y-109533736D01*
X116840500Y-109526249D01*
X116840500Y-106845984D01*
X124125500Y-106845984D01*
X124125500Y-107034013D01*
X124162179Y-107218408D01*
X124162182Y-107218420D01*
X124234129Y-107392117D01*
X124234136Y-107392130D01*
X124338591Y-107548456D01*
X124338594Y-107548460D01*
X124471538Y-107681404D01*
X124471542Y-107681407D01*
X124627868Y-107785862D01*
X124627881Y-107785869D01*
X124801578Y-107857816D01*
X124801583Y-107857818D01*
X124985985Y-107894498D01*
X124985988Y-107894499D01*
X124985990Y-107894499D01*
X125174012Y-107894499D01*
X125174013Y-107894498D01*
X125358417Y-107857818D01*
X125532125Y-107785866D01*
X125688458Y-107681407D01*
X125821408Y-107548457D01*
X125925867Y-107392124D01*
X125997819Y-107218416D01*
X126034500Y-107034009D01*
X126034500Y-106845989D01*
X126034500Y-106845986D01*
X126034499Y-106845984D01*
X125997820Y-106661589D01*
X125997819Y-106661582D01*
X125997817Y-106661577D01*
X125925870Y-106487880D01*
X125925863Y-106487867D01*
X125821408Y-106331541D01*
X125821405Y-106331537D01*
X125688461Y-106198593D01*
X125688457Y-106198590D01*
X125532131Y-106094135D01*
X125532118Y-106094128D01*
X125358421Y-106022181D01*
X125358409Y-106022178D01*
X125174013Y-105985499D01*
X125174010Y-105985499D01*
X124985990Y-105985499D01*
X124985987Y-105985499D01*
X124801590Y-106022178D01*
X124801578Y-106022181D01*
X124627881Y-106094128D01*
X124627868Y-106094135D01*
X124471542Y-106198590D01*
X124471538Y-106198593D01*
X124338594Y-106331537D01*
X124338591Y-106331541D01*
X124234136Y-106487867D01*
X124234129Y-106487880D01*
X124162182Y-106661577D01*
X124162179Y-106661589D01*
X124125500Y-106845984D01*
X116840500Y-106845984D01*
X116840500Y-104201730D01*
X117185500Y-104201730D01*
X117185500Y-105118269D01*
X117188353Y-105148699D01*
X117188353Y-105148701D01*
X117233206Y-105276880D01*
X117233207Y-105276882D01*
X117313850Y-105386150D01*
X117423118Y-105466793D01*
X117465608Y-105481661D01*
X117551299Y-105511646D01*
X117581730Y-105514500D01*
X117581734Y-105514500D01*
X118498270Y-105514500D01*
X118528699Y-105511646D01*
X118528701Y-105511646D01*
X118592790Y-105489219D01*
X118656882Y-105466793D01*
X118766150Y-105386150D01*
X118846793Y-105276882D01*
X118880202Y-105181404D01*
X118891646Y-105148701D01*
X118891646Y-105148699D01*
X118894500Y-105118269D01*
X118894500Y-104575834D01*
X119185500Y-104575834D01*
X119185500Y-104744165D01*
X119218336Y-104909241D01*
X119218338Y-104909249D01*
X119282750Y-105064755D01*
X119282755Y-105064764D01*
X119376265Y-105204711D01*
X119376268Y-105204715D01*
X119495284Y-105323731D01*
X119495288Y-105323734D01*
X119635235Y-105417244D01*
X119635241Y-105417247D01*
X119635242Y-105417248D01*
X119790751Y-105481662D01*
X119941491Y-105511646D01*
X119955834Y-105514499D01*
X119955838Y-105514500D01*
X119955839Y-105514500D01*
X120124162Y-105514500D01*
X120124163Y-105514499D01*
X120289249Y-105481662D01*
X120444758Y-105417248D01*
X120584712Y-105323734D01*
X120703734Y-105204712D01*
X120797248Y-105064758D01*
X120861662Y-104909249D01*
X120894500Y-104744161D01*
X120894500Y-104575839D01*
X120894499Y-104575834D01*
X121185500Y-104575834D01*
X121185500Y-104744165D01*
X121218336Y-104909241D01*
X121218338Y-104909249D01*
X121282750Y-105064755D01*
X121282755Y-105064764D01*
X121376265Y-105204711D01*
X121376268Y-105204715D01*
X121495284Y-105323731D01*
X121495288Y-105323734D01*
X121635235Y-105417244D01*
X121635241Y-105417247D01*
X121635242Y-105417248D01*
X121790751Y-105481662D01*
X121941491Y-105511646D01*
X121955834Y-105514499D01*
X121955838Y-105514500D01*
X121955839Y-105514500D01*
X122124162Y-105514500D01*
X122124163Y-105514499D01*
X122289249Y-105481662D01*
X122444758Y-105417248D01*
X122584712Y-105323734D01*
X122703734Y-105204712D01*
X122797248Y-105064758D01*
X122861662Y-104909249D01*
X122894500Y-104744161D01*
X122894500Y-104575839D01*
X122861662Y-104410751D01*
X122834835Y-104345986D01*
X122834834Y-104345984D01*
X126625500Y-104345984D01*
X126625500Y-104534013D01*
X126662179Y-104718408D01*
X126662182Y-104718420D01*
X126734129Y-104892117D01*
X126734136Y-104892130D01*
X126838591Y-105048456D01*
X126838594Y-105048460D01*
X126971538Y-105181404D01*
X126971542Y-105181407D01*
X127127868Y-105285862D01*
X127127881Y-105285869D01*
X127267581Y-105343734D01*
X127301583Y-105357818D01*
X127444012Y-105386149D01*
X127485985Y-105394498D01*
X127485988Y-105394499D01*
X127485990Y-105394499D01*
X127674012Y-105394499D01*
X127674013Y-105394498D01*
X127858417Y-105357818D01*
X128032125Y-105285866D01*
X128188458Y-105181407D01*
X128321408Y-105048457D01*
X128425867Y-104892124D01*
X128497819Y-104718416D01*
X128506386Y-104675343D01*
X128522202Y-104595834D01*
X139245500Y-104595834D01*
X139245500Y-104764165D01*
X139278336Y-104929241D01*
X139278338Y-104929249D01*
X139342750Y-105084755D01*
X139342755Y-105084764D01*
X139436265Y-105224711D01*
X139436268Y-105224715D01*
X139555284Y-105343731D01*
X139555288Y-105343734D01*
X139695235Y-105437244D01*
X139695241Y-105437247D01*
X139695242Y-105437248D01*
X139850751Y-105501662D01*
X140015834Y-105534499D01*
X140015838Y-105534500D01*
X140015839Y-105534500D01*
X140184162Y-105534500D01*
X140184163Y-105534499D01*
X140349249Y-105501662D01*
X140504758Y-105437248D01*
X140644712Y-105343734D01*
X140763734Y-105224712D01*
X140857248Y-105084758D01*
X140921662Y-104929249D01*
X140954500Y-104764161D01*
X140954500Y-104595839D01*
X140954499Y-104595834D01*
X141245500Y-104595834D01*
X141245500Y-104764165D01*
X141278336Y-104929241D01*
X141278338Y-104929249D01*
X141342750Y-105084755D01*
X141342755Y-105084764D01*
X141436265Y-105224711D01*
X141436268Y-105224715D01*
X141555284Y-105343731D01*
X141555288Y-105343734D01*
X141695235Y-105437244D01*
X141695241Y-105437247D01*
X141695242Y-105437248D01*
X141850751Y-105501662D01*
X142015834Y-105534499D01*
X142015838Y-105534500D01*
X142015839Y-105534500D01*
X142184162Y-105534500D01*
X142184163Y-105534499D01*
X142349249Y-105501662D01*
X142504758Y-105437248D01*
X142644712Y-105343734D01*
X142763734Y-105224712D01*
X142857248Y-105084758D01*
X142921662Y-104929249D01*
X142954500Y-104764161D01*
X142954500Y-104595839D01*
X142954499Y-104595834D01*
X143245500Y-104595834D01*
X143245500Y-104764165D01*
X143278336Y-104929241D01*
X143278338Y-104929249D01*
X143342750Y-105084755D01*
X143342755Y-105084764D01*
X143436265Y-105224711D01*
X143436268Y-105224715D01*
X143555284Y-105343731D01*
X143555288Y-105343734D01*
X143695235Y-105437244D01*
X143695241Y-105437247D01*
X143695242Y-105437248D01*
X143850751Y-105501662D01*
X144015834Y-105534499D01*
X144015838Y-105534500D01*
X144015839Y-105534500D01*
X144184162Y-105534500D01*
X144184163Y-105534499D01*
X144349249Y-105501662D01*
X144504758Y-105437248D01*
X144644712Y-105343734D01*
X144763734Y-105224712D01*
X144857248Y-105084758D01*
X144921662Y-104929249D01*
X144954500Y-104764161D01*
X144954500Y-104595839D01*
X144921662Y-104430751D01*
X144857248Y-104275242D01*
X144857247Y-104275241D01*
X144857244Y-104275235D01*
X144763734Y-104135288D01*
X144763731Y-104135284D01*
X144644715Y-104016268D01*
X144644711Y-104016265D01*
X144504764Y-103922755D01*
X144504755Y-103922750D01*
X144349249Y-103858338D01*
X144349241Y-103858336D01*
X144184165Y-103825500D01*
X144184161Y-103825500D01*
X144015839Y-103825500D01*
X144015834Y-103825500D01*
X143850758Y-103858336D01*
X143850750Y-103858338D01*
X143695244Y-103922750D01*
X143695235Y-103922755D01*
X143555288Y-104016265D01*
X143555284Y-104016268D01*
X143436268Y-104135284D01*
X143436265Y-104135288D01*
X143342755Y-104275235D01*
X143342750Y-104275244D01*
X143278338Y-104430750D01*
X143278336Y-104430758D01*
X143245500Y-104595834D01*
X142954499Y-104595834D01*
X142921662Y-104430751D01*
X142857248Y-104275242D01*
X142857247Y-104275241D01*
X142857244Y-104275235D01*
X142763734Y-104135288D01*
X142763731Y-104135284D01*
X142644715Y-104016268D01*
X142644711Y-104016265D01*
X142504764Y-103922755D01*
X142504755Y-103922750D01*
X142349249Y-103858338D01*
X142349241Y-103858336D01*
X142184165Y-103825500D01*
X142184161Y-103825500D01*
X142015839Y-103825500D01*
X142015834Y-103825500D01*
X141850758Y-103858336D01*
X141850750Y-103858338D01*
X141695244Y-103922750D01*
X141695235Y-103922755D01*
X141555288Y-104016265D01*
X141555284Y-104016268D01*
X141436268Y-104135284D01*
X141436265Y-104135288D01*
X141342755Y-104275235D01*
X141342750Y-104275244D01*
X141278338Y-104430750D01*
X141278336Y-104430758D01*
X141245500Y-104595834D01*
X140954499Y-104595834D01*
X140921662Y-104430751D01*
X140857248Y-104275242D01*
X140857247Y-104275241D01*
X140857244Y-104275235D01*
X140763734Y-104135288D01*
X140763731Y-104135284D01*
X140644715Y-104016268D01*
X140644711Y-104016265D01*
X140504764Y-103922755D01*
X140504755Y-103922750D01*
X140349249Y-103858338D01*
X140349241Y-103858336D01*
X140184165Y-103825500D01*
X140184161Y-103825500D01*
X140015839Y-103825500D01*
X140015834Y-103825500D01*
X139850758Y-103858336D01*
X139850750Y-103858338D01*
X139695244Y-103922750D01*
X139695235Y-103922755D01*
X139555288Y-104016265D01*
X139555284Y-104016268D01*
X139436268Y-104135284D01*
X139436265Y-104135288D01*
X139342755Y-104275235D01*
X139342750Y-104275244D01*
X139278338Y-104430750D01*
X139278336Y-104430758D01*
X139245500Y-104595834D01*
X128522202Y-104595834D01*
X128528221Y-104565578D01*
X128528225Y-104565557D01*
X128534500Y-104534008D01*
X128534500Y-104345986D01*
X128534499Y-104345984D01*
X128520426Y-104275235D01*
X128497819Y-104161582D01*
X128486926Y-104135284D01*
X128425870Y-103987880D01*
X128425863Y-103987867D01*
X128321408Y-103831541D01*
X128321405Y-103831537D01*
X128188461Y-103698593D01*
X128188457Y-103698590D01*
X128032131Y-103594135D01*
X128032118Y-103594128D01*
X127858421Y-103522181D01*
X127858409Y-103522178D01*
X127674013Y-103485499D01*
X127674010Y-103485499D01*
X127485990Y-103485499D01*
X127485987Y-103485499D01*
X127301590Y-103522178D01*
X127301578Y-103522181D01*
X127127881Y-103594128D01*
X127127868Y-103594135D01*
X126971542Y-103698590D01*
X126971538Y-103698593D01*
X126838594Y-103831537D01*
X126838591Y-103831541D01*
X126734136Y-103987867D01*
X126734129Y-103987880D01*
X126662182Y-104161577D01*
X126662179Y-104161589D01*
X126625500Y-104345984D01*
X122834834Y-104345984D01*
X122797249Y-104255244D01*
X122797244Y-104255235D01*
X122703734Y-104115288D01*
X122703731Y-104115284D01*
X122584715Y-103996268D01*
X122584711Y-103996265D01*
X122444764Y-103902755D01*
X122444755Y-103902750D01*
X122289249Y-103838338D01*
X122289241Y-103838336D01*
X122124165Y-103805500D01*
X122124161Y-103805500D01*
X121955839Y-103805500D01*
X121955834Y-103805500D01*
X121790758Y-103838336D01*
X121790750Y-103838338D01*
X121635244Y-103902750D01*
X121635235Y-103902755D01*
X121495288Y-103996265D01*
X121495284Y-103996268D01*
X121376268Y-104115284D01*
X121376265Y-104115288D01*
X121282755Y-104255235D01*
X121282750Y-104255244D01*
X121218338Y-104410750D01*
X121218336Y-104410758D01*
X121185500Y-104575834D01*
X120894499Y-104575834D01*
X120861662Y-104410751D01*
X120797248Y-104255242D01*
X120797247Y-104255241D01*
X120797244Y-104255235D01*
X120703734Y-104115288D01*
X120703731Y-104115284D01*
X120584715Y-103996268D01*
X120584711Y-103996265D01*
X120444764Y-103902755D01*
X120444755Y-103902750D01*
X120289249Y-103838338D01*
X120289241Y-103838336D01*
X120124165Y-103805500D01*
X120124161Y-103805500D01*
X119955839Y-103805500D01*
X119955834Y-103805500D01*
X119790758Y-103838336D01*
X119790750Y-103838338D01*
X119635244Y-103902750D01*
X119635235Y-103902755D01*
X119495288Y-103996265D01*
X119495284Y-103996268D01*
X119376268Y-104115284D01*
X119376265Y-104115288D01*
X119282755Y-104255235D01*
X119282750Y-104255244D01*
X119218338Y-104410750D01*
X119218336Y-104410758D01*
X119185500Y-104575834D01*
X118894500Y-104575834D01*
X118894500Y-104201730D01*
X118891646Y-104171300D01*
X118891646Y-104171298D01*
X118846793Y-104043119D01*
X118846792Y-104043117D01*
X118766150Y-103933850D01*
X118656882Y-103853207D01*
X118656880Y-103853206D01*
X118528700Y-103808353D01*
X118498270Y-103805500D01*
X118498266Y-103805500D01*
X117581734Y-103805500D01*
X117581730Y-103805500D01*
X117551300Y-103808353D01*
X117551298Y-103808353D01*
X117423119Y-103853206D01*
X117423117Y-103853207D01*
X117313850Y-103933850D01*
X117233207Y-104043117D01*
X117233206Y-104043119D01*
X117188353Y-104171298D01*
X117188353Y-104171300D01*
X117185500Y-104201730D01*
X116840500Y-104201730D01*
X116840500Y-101798229D01*
X116860185Y-101731190D01*
X116870016Y-101717925D01*
X116912187Y-101668307D01*
X116912187Y-101668305D01*
X116912191Y-101668302D01*
X117037143Y-101463473D01*
X117070848Y-101381729D01*
X124125500Y-101381729D01*
X124125500Y-102498268D01*
X124128353Y-102528698D01*
X124128353Y-102528700D01*
X124173206Y-102656879D01*
X124173207Y-102656881D01*
X124253850Y-102766149D01*
X124363118Y-102846792D01*
X124405845Y-102861743D01*
X124491299Y-102891645D01*
X124521730Y-102894499D01*
X124521734Y-102894499D01*
X125638270Y-102894499D01*
X125668699Y-102891645D01*
X125668701Y-102891645D01*
X125732790Y-102869218D01*
X125796882Y-102846792D01*
X125906150Y-102766149D01*
X125986793Y-102656881D01*
X126009219Y-102592789D01*
X126031646Y-102528700D01*
X126031646Y-102528698D01*
X126034500Y-102498268D01*
X126034500Y-101381729D01*
X126031646Y-101351299D01*
X126031646Y-101351297D01*
X125986793Y-101223118D01*
X125986792Y-101223116D01*
X125975210Y-101207423D01*
X125906150Y-101113849D01*
X125796882Y-101033206D01*
X125796880Y-101033205D01*
X125668699Y-100988352D01*
X125668030Y-100988206D01*
X125667584Y-100987962D01*
X125661577Y-100985860D01*
X125661925Y-100984865D01*
X125641161Y-100973502D01*
X125613297Y-100960777D01*
X125610795Y-100956884D01*
X125606738Y-100954664D01*
X125592084Y-100927770D01*
X125575523Y-100901999D01*
X125574619Y-100895714D01*
X125573310Y-100893311D01*
X125570500Y-100867064D01*
X125570500Y-100661525D01*
X125590185Y-100594486D01*
X125642989Y-100548731D01*
X125647004Y-100546982D01*
X125722125Y-100515867D01*
X125878458Y-100411408D01*
X126011408Y-100278458D01*
X126115867Y-100122125D01*
X126146965Y-100047048D01*
X126190805Y-99992644D01*
X126257099Y-99970579D01*
X126261526Y-99970500D01*
X127109560Y-99970500D01*
X127109562Y-99970500D01*
X127185989Y-99950021D01*
X127254511Y-99910460D01*
X127310460Y-99854511D01*
X128853153Y-98311818D01*
X128914476Y-98278333D01*
X128940834Y-98275499D01*
X131617193Y-98275499D01*
X131655545Y-98281579D01*
X131737042Y-98308085D01*
X132055191Y-98411561D01*
X132066415Y-98414861D01*
X132067706Y-98415201D01*
X132067919Y-98415257D01*
X132084444Y-98415786D01*
X132120691Y-98425499D01*
X132239309Y-98425499D01*
X132273165Y-98416427D01*
X132289844Y-98416521D01*
X132307976Y-98421956D01*
X132326902Y-98422407D01*
X132340752Y-98431781D01*
X132356772Y-98436583D01*
X132369087Y-98450958D01*
X132384765Y-98461569D01*
X132391348Y-98476942D01*
X132402229Y-98489643D01*
X132404817Y-98508396D01*
X132412269Y-98525797D01*
X132409495Y-98542288D01*
X132411783Y-98558857D01*
X132403821Y-98576032D01*
X132400683Y-98594700D01*
X132384888Y-98616880D01*
X132382400Y-98622248D01*
X132379964Y-98623793D01*
X132376827Y-98628200D01*
X129615489Y-101389539D01*
X129559541Y-101445486D01*
X129559535Y-101445494D01*
X129519982Y-101514003D01*
X129519979Y-101514008D01*
X129499500Y-101590438D01*
X129499500Y-102667193D01*
X129493420Y-102705546D01*
X129363432Y-103105204D01*
X129361521Y-103111715D01*
X129360091Y-103116586D01*
X129359755Y-103117866D01*
X129359741Y-103117919D01*
X129359460Y-103126653D01*
X129358570Y-103133114D01*
X129357349Y-103135828D01*
X129355509Y-103148261D01*
X129349500Y-103170687D01*
X129349500Y-103170691D01*
X129349500Y-103289309D01*
X129380201Y-103403886D01*
X129439511Y-103506613D01*
X129523387Y-103590489D01*
X129626114Y-103649799D01*
X129740691Y-103680500D01*
X129740694Y-103680500D01*
X129859306Y-103680500D01*
X129859309Y-103680500D01*
X129973886Y-103649799D01*
X130076613Y-103590489D01*
X130160489Y-103506613D01*
X130219799Y-103403886D01*
X130250500Y-103289309D01*
X130250500Y-103170691D01*
X130241741Y-103138007D01*
X130238380Y-103120522D01*
X130236562Y-103105191D01*
X130126291Y-102766148D01*
X130106580Y-102705543D01*
X130100500Y-102667191D01*
X130100500Y-101805831D01*
X130120185Y-101738792D01*
X130136814Y-101718155D01*
X133269524Y-98585444D01*
X133300932Y-98562631D01*
X133675444Y-98371947D01*
X133685680Y-98366364D01*
X133686833Y-98365692D01*
X133687083Y-98365546D01*
X133688685Y-98364042D01*
X133711529Y-98347083D01*
X133731613Y-98335488D01*
X133815489Y-98251612D01*
X133874799Y-98148885D01*
X133905500Y-98034308D01*
X133905500Y-97915690D01*
X133874799Y-97801113D01*
X133815489Y-97698386D01*
X133731613Y-97614510D01*
X133702311Y-97597592D01*
X133687576Y-97587608D01*
X133675451Y-97578055D01*
X133675439Y-97578047D01*
X133300941Y-97387370D01*
X133269522Y-97364550D01*
X133094514Y-97189542D01*
X133094512Y-97189540D01*
X133084118Y-97183539D01*
X133025992Y-97149980D01*
X133025991Y-97149979D01*
X133000514Y-97143152D01*
X132949563Y-97129500D01*
X132949561Y-97129500D01*
X132486515Y-97129500D01*
X132454427Y-97125276D01*
X132447794Y-97123499D01*
X131991330Y-97123499D01*
X131912206Y-97123499D01*
X131905572Y-97125276D01*
X131873485Y-97129500D01*
X128848500Y-97129500D01*
X128839814Y-97126949D01*
X128830853Y-97128238D01*
X128806812Y-97117259D01*
X128781461Y-97109815D01*
X128775533Y-97102974D01*
X128767297Y-97099213D01*
X128753007Y-97076978D01*
X128735706Y-97057011D01*
X128733418Y-97046496D01*
X128729523Y-97040435D01*
X128724500Y-97005500D01*
X128724500Y-96821617D01*
X134530000Y-96821617D01*
X134530000Y-97018382D01*
X134560778Y-97212705D01*
X134621581Y-97399835D01*
X134710905Y-97575145D01*
X134736319Y-97610125D01*
X134736320Y-97610125D01*
X135297037Y-97049408D01*
X135314075Y-97112993D01*
X135379901Y-97227007D01*
X135472993Y-97320099D01*
X135587007Y-97385925D01*
X135650590Y-97402962D01*
X135089873Y-97963677D01*
X135089873Y-97963678D01*
X135124858Y-97989096D01*
X135300164Y-98078418D01*
X135487294Y-98139221D01*
X135681618Y-98170000D01*
X135878382Y-98170000D01*
X136072705Y-98139221D01*
X136259835Y-98078418D01*
X136435143Y-97989095D01*
X136470125Y-97963678D01*
X136470126Y-97963678D01*
X135909410Y-97402962D01*
X135972993Y-97385925D01*
X136087007Y-97320099D01*
X136180099Y-97227007D01*
X136245925Y-97112993D01*
X136262962Y-97049410D01*
X136823678Y-97610126D01*
X136823678Y-97610125D01*
X136849095Y-97575143D01*
X136938418Y-97399835D01*
X136999221Y-97212705D01*
X137030000Y-97018382D01*
X137030000Y-96821617D01*
X136999221Y-96627294D01*
X136938418Y-96440164D01*
X136849096Y-96264858D01*
X136823678Y-96229873D01*
X136823677Y-96229873D01*
X136262962Y-96790589D01*
X136245925Y-96727007D01*
X136180099Y-96612993D01*
X136087007Y-96519901D01*
X135972993Y-96454075D01*
X135909409Y-96437037D01*
X136470125Y-95876320D01*
X136470125Y-95876319D01*
X136435143Y-95850904D01*
X136427007Y-95846759D01*
X136376210Y-95798786D01*
X136359413Y-95730965D01*
X136381949Y-95664830D01*
X136395612Y-95648597D01*
X136518302Y-95525908D01*
X136622322Y-95370231D01*
X136693973Y-95197251D01*
X136730500Y-95013616D01*
X136730500Y-94826384D01*
X136693973Y-94642749D01*
X136622322Y-94469769D01*
X136622321Y-94469768D01*
X136622318Y-94469762D01*
X136518302Y-94314092D01*
X136518299Y-94314088D01*
X136385911Y-94181700D01*
X136385907Y-94181697D01*
X136230237Y-94077681D01*
X136230228Y-94077676D01*
X136057251Y-94006027D01*
X136057243Y-94006025D01*
X135873620Y-93969500D01*
X135873616Y-93969500D01*
X135686384Y-93969500D01*
X135686379Y-93969500D01*
X135502756Y-94006025D01*
X135502748Y-94006027D01*
X135329771Y-94077676D01*
X135329762Y-94077681D01*
X135174092Y-94181697D01*
X135174088Y-94181700D01*
X135041700Y-94314088D01*
X135041697Y-94314092D01*
X134937681Y-94469762D01*
X134937676Y-94469771D01*
X134866027Y-94642748D01*
X134866025Y-94642756D01*
X134829500Y-94826379D01*
X134829500Y-95013620D01*
X134866025Y-95197243D01*
X134866027Y-95197251D01*
X134937676Y-95370228D01*
X134937681Y-95370237D01*
X135041697Y-95525907D01*
X135041700Y-95525911D01*
X135164380Y-95648591D01*
X135197865Y-95709914D01*
X135192881Y-95779606D01*
X135151009Y-95835539D01*
X135132998Y-95846754D01*
X135124870Y-95850895D01*
X135124859Y-95850902D01*
X135089873Y-95876320D01*
X135089872Y-95876320D01*
X135650590Y-96437037D01*
X135587007Y-96454075D01*
X135472993Y-96519901D01*
X135379901Y-96612993D01*
X135314075Y-96727007D01*
X135297037Y-96790590D01*
X134736320Y-96229872D01*
X134736320Y-96229873D01*
X134710902Y-96264859D01*
X134710899Y-96264863D01*
X134621582Y-96440161D01*
X134560778Y-96627294D01*
X134530000Y-96821617D01*
X128724500Y-96821617D01*
X128724500Y-96611730D01*
X128721646Y-96581300D01*
X128721646Y-96581298D01*
X128686372Y-96480493D01*
X128676793Y-96453118D01*
X128596150Y-96343850D01*
X128486882Y-96263207D01*
X128486880Y-96263206D01*
X128358700Y-96218353D01*
X128328270Y-96215500D01*
X128328266Y-96215500D01*
X127211734Y-96215500D01*
X127211730Y-96215500D01*
X127181300Y-96218353D01*
X127181298Y-96218353D01*
X127053119Y-96263206D01*
X127053117Y-96263207D01*
X126943850Y-96343850D01*
X126863207Y-96453117D01*
X126863206Y-96453119D01*
X126818353Y-96581298D01*
X126818353Y-96581300D01*
X126815500Y-96611730D01*
X126815500Y-97728269D01*
X126818353Y-97758699D01*
X126818353Y-97758701D01*
X126863206Y-97886880D01*
X126863207Y-97886882D01*
X126943850Y-97996150D01*
X127053118Y-98076793D01*
X127095845Y-98091744D01*
X127181299Y-98121646D01*
X127211730Y-98124500D01*
X127211734Y-98124500D01*
X127891167Y-98124500D01*
X127958206Y-98144185D01*
X128003961Y-98196989D01*
X128013905Y-98266147D01*
X127984880Y-98329703D01*
X127978848Y-98336181D01*
X126981848Y-99333181D01*
X126920525Y-99366666D01*
X126894167Y-99369500D01*
X126261526Y-99369500D01*
X126194487Y-99349815D01*
X126148732Y-99297011D01*
X126146965Y-99292952D01*
X126115869Y-99217879D01*
X126115868Y-99217877D01*
X126011408Y-99061542D01*
X126011405Y-99061538D01*
X125878461Y-98928594D01*
X125878457Y-98928591D01*
X125722131Y-98824136D01*
X125722118Y-98824129D01*
X125548421Y-98752182D01*
X125548409Y-98752179D01*
X125364013Y-98715500D01*
X125364010Y-98715500D01*
X125175990Y-98715500D01*
X125175987Y-98715500D01*
X124991590Y-98752179D01*
X124991578Y-98752182D01*
X124817881Y-98824129D01*
X124817868Y-98824136D01*
X124661542Y-98928591D01*
X124661538Y-98928594D01*
X124528594Y-99061538D01*
X124528591Y-99061542D01*
X124424136Y-99217868D01*
X124424129Y-99217881D01*
X124352182Y-99391578D01*
X124352179Y-99391590D01*
X124315500Y-99575985D01*
X124315500Y-99764014D01*
X124352179Y-99948409D01*
X124352182Y-99948421D01*
X124424129Y-100122118D01*
X124424136Y-100122131D01*
X124528591Y-100278457D01*
X124528594Y-100278461D01*
X124661538Y-100411405D01*
X124661542Y-100411408D01*
X124817870Y-100515864D01*
X124817871Y-100515864D01*
X124817875Y-100515867D01*
X124892953Y-100546964D01*
X124908517Y-100559506D01*
X124926703Y-100567812D01*
X124935167Y-100580982D01*
X124947355Y-100590804D01*
X124953668Y-100609770D01*
X124964477Y-100626590D01*
X124968439Y-100654149D01*
X124969421Y-100657098D01*
X124969500Y-100661525D01*
X124969500Y-100861499D01*
X124949815Y-100928538D01*
X124897011Y-100974293D01*
X124845500Y-100985499D01*
X124521730Y-100985499D01*
X124491300Y-100988352D01*
X124491298Y-100988352D01*
X124363119Y-101033205D01*
X124363117Y-101033206D01*
X124253850Y-101113849D01*
X124173207Y-101223116D01*
X124173206Y-101223118D01*
X124128353Y-101351297D01*
X124128353Y-101351299D01*
X124125500Y-101381729D01*
X117070848Y-101381729D01*
X117128604Y-101241655D01*
X117184333Y-101008283D01*
X117202966Y-100769074D01*
X117200386Y-100736459D01*
X117200000Y-100726681D01*
X117200000Y-97075985D01*
X121815500Y-97075985D01*
X121815500Y-97264014D01*
X121852179Y-97448409D01*
X121852182Y-97448421D01*
X121924129Y-97622118D01*
X121924136Y-97622131D01*
X122028591Y-97778457D01*
X122028594Y-97778461D01*
X122161538Y-97911405D01*
X122161542Y-97911408D01*
X122317868Y-98015863D01*
X122317881Y-98015870D01*
X122468887Y-98078418D01*
X122491583Y-98087819D01*
X122661642Y-98121646D01*
X122675985Y-98124499D01*
X122675988Y-98124500D01*
X122675990Y-98124500D01*
X122864012Y-98124500D01*
X122864013Y-98124499D01*
X123048417Y-98087819D01*
X123222125Y-98015867D01*
X123378458Y-97911408D01*
X123511408Y-97778458D01*
X123615867Y-97622125D01*
X123687819Y-97448417D01*
X123724500Y-97264010D01*
X123724500Y-97075990D01*
X123724500Y-97075987D01*
X123724499Y-97075985D01*
X123713041Y-97018382D01*
X123687819Y-96891583D01*
X123664130Y-96834392D01*
X123615870Y-96717881D01*
X123615863Y-96717868D01*
X123511408Y-96561542D01*
X123511405Y-96561538D01*
X123378461Y-96428594D01*
X123378457Y-96428591D01*
X123222131Y-96324136D01*
X123222118Y-96324129D01*
X123048421Y-96252182D01*
X123048409Y-96252179D01*
X122864013Y-96215500D01*
X122864010Y-96215500D01*
X122675990Y-96215500D01*
X122675987Y-96215500D01*
X122491590Y-96252179D01*
X122491578Y-96252182D01*
X122317881Y-96324129D01*
X122317868Y-96324136D01*
X122161542Y-96428591D01*
X122161538Y-96428594D01*
X122028594Y-96561538D01*
X122028591Y-96561542D01*
X121924136Y-96717868D01*
X121924129Y-96717881D01*
X121852182Y-96891578D01*
X121852179Y-96891590D01*
X121815500Y-97075985D01*
X117200000Y-97075985D01*
X117200000Y-96750000D01*
X117195832Y-96739938D01*
X117186707Y-96701310D01*
X117174749Y-96533714D01*
X117121294Y-96302595D01*
X117032568Y-96082592D01*
X116910727Y-95879052D01*
X116879661Y-95841827D01*
X116868136Y-95815298D01*
X116853995Y-95790064D01*
X116853249Y-95781031D01*
X116851821Y-95777744D01*
X116851091Y-95754896D01*
X116858271Y-95636200D01*
X116860076Y-95621340D01*
X116861653Y-95612738D01*
X116911780Y-95339197D01*
X116915364Y-95324663D01*
X117000696Y-95050822D01*
X117005998Y-95036841D01*
X117123731Y-94775249D01*
X117130686Y-94762000D01*
X117279080Y-94516526D01*
X117287567Y-94504230D01*
X117464480Y-94278417D01*
X117474395Y-94267226D01*
X117677226Y-94064395D01*
X117688417Y-94054480D01*
X117914230Y-93877567D01*
X117926526Y-93869080D01*
X118172016Y-93720676D01*
X118185249Y-93713731D01*
X118446841Y-93595998D01*
X118460822Y-93590696D01*
X118734668Y-93505362D01*
X118749197Y-93501780D01*
X119031344Y-93450075D01*
X119046201Y-93448271D01*
X119336264Y-93430726D01*
X119343751Y-93430500D01*
X119405892Y-93430500D01*
X142734108Y-93430500D01*
X142796249Y-93430500D01*
X142803736Y-93430726D01*
G37*
G04 #@! TD.AperFunction*
G04 #@! TA.AperFunction,Conductor*
G36*
X132127679Y-97734560D02*
G01*
X132133496Y-97741367D01*
X132133836Y-97742658D01*
X132180527Y-97972671D01*
X132180527Y-97977327D01*
X132133836Y-98207339D01*
X132128832Y-98214765D01*
X132120042Y-98216477D01*
X132118751Y-98216137D01*
X131692885Y-98077627D01*
X131686078Y-98071810D01*
X131684804Y-98066501D01*
X131684804Y-97883496D01*
X131688231Y-97875223D01*
X131692882Y-97872371D01*
X132118752Y-97733860D01*
X132127679Y-97734560D01*
G37*
G04 #@! TD.AperFunction*
G04 #@! TA.AperFunction,Conductor*
G36*
X129899775Y-102738231D02*
G01*
X129902628Y-102742885D01*
X130041138Y-103168751D01*
X130040438Y-103177679D01*
X130033631Y-103183496D01*
X130032340Y-103183836D01*
X129802328Y-103230527D01*
X129797672Y-103230527D01*
X129567659Y-103183836D01*
X129560233Y-103178832D01*
X129558521Y-103170042D01*
X129558857Y-103168762D01*
X129697372Y-102742885D01*
X129703189Y-102736078D01*
X129708498Y-102734804D01*
X129891502Y-102734804D01*
X129899775Y-102738231D01*
G37*
G04 #@! TD.AperFunction*
G04 #@! TA.AperFunction,Conductor*
G36*
X133256915Y-97842679D02*
G01*
X133258068Y-97843351D01*
X133453726Y-97972980D01*
X133457018Y-97976272D01*
X133586647Y-98171930D01*
X133588359Y-98180719D01*
X133583355Y-98188146D01*
X133582202Y-98188818D01*
X133183127Y-98392010D01*
X133174199Y-98392710D01*
X133169545Y-98389857D01*
X133040141Y-98260453D01*
X133036714Y-98252180D01*
X133037986Y-98246876D01*
X133241181Y-97847794D01*
X133247987Y-97841979D01*
X133256915Y-97842679D01*
G37*
G04 #@! TD.AperFunction*
G04 #@! TA.AperFunction,Conductor*
G36*
X133183123Y-97557986D02*
G01*
X133582202Y-97761179D01*
X133588019Y-97767986D01*
X133587319Y-97776914D01*
X133586647Y-97778067D01*
X133457018Y-97973725D01*
X133453726Y-97977017D01*
X133258068Y-98106646D01*
X133249279Y-98108358D01*
X133241852Y-98103354D01*
X133241180Y-98102201D01*
X133177442Y-97977017D01*
X133037987Y-97703124D01*
X133037288Y-97694198D01*
X133040139Y-97689546D01*
X133169546Y-97560139D01*
X133177818Y-97556713D01*
X133183123Y-97557986D01*
G37*
G04 #@! TD.AperFunction*
M02*
