G04 #@! TF.GenerationSoftware,KiCad,Pcbnew,9.0.2*
G04 #@! TF.CreationDate,2025-06-25T23:25:14-06:00*
G04 #@! TF.ProjectId,TurnSignal,5475726e-5369-4676-9e61-6c2e6b696361,rev?*
G04 #@! TF.SameCoordinates,Original*
G04 #@! TF.FileFunction,Legend,Top*
G04 #@! TF.FilePolarity,Positive*
%FSLAX46Y46*%
G04 Gerber Fmt 4.6, Leading zero omitted, Abs format (unit mm)*
G04 Created by KiCad (PCBNEW 9.0.2) date 2025-06-25 23:25:14*
%MOMM*%
%LPD*%
G01*
G04 APERTURE LIST*
%ADD10C,0.300000*%
%ADD11C,0.120000*%
%ADD12C,0.100000*%
%ADD13C,0.200000*%
%ADD14C,0.127000*%
G04 APERTURE END LIST*
D10*
G36*
X112054284Y-96130910D02*
G01*
X112054284Y-97140000D01*
X111785495Y-97140000D01*
X111785495Y-96612679D01*
X110844794Y-96612679D01*
X110844794Y-97140000D01*
X110575882Y-97140000D01*
X110575882Y-96184155D01*
X110844794Y-96184155D01*
X110844794Y-96366238D01*
X111785495Y-96366238D01*
X111785495Y-96184155D01*
X111396294Y-95424926D01*
X111233872Y-95424926D01*
X110844794Y-96184155D01*
X110575882Y-96184155D01*
X110575882Y-96130910D01*
X111063147Y-95178241D01*
X111567142Y-95178241D01*
X112054284Y-96130910D01*
G37*
G36*
X151425882Y-95443206D02*
G01*
X151425882Y-95810792D01*
X151210338Y-96037815D01*
X151481936Y-96320771D01*
X151481936Y-96755157D01*
X151173946Y-97080000D01*
X150322759Y-97080000D01*
X150053970Y-97080000D01*
X150053970Y-96833681D01*
X150322759Y-96833681D01*
X151050725Y-96833681D01*
X151213147Y-96662711D01*
X151213147Y-96413217D01*
X151000289Y-96189002D01*
X150322759Y-96189002D01*
X150322759Y-96833681D01*
X150053970Y-96833681D01*
X150053970Y-95942683D01*
X150322759Y-95942683D01*
X150944357Y-95942683D01*
X151157093Y-95718224D01*
X151157093Y-95535896D01*
X150994672Y-95364682D01*
X150322759Y-95364682D01*
X150322759Y-95942683D01*
X150053970Y-95942683D01*
X150053970Y-95118241D01*
X150322759Y-95118241D01*
X151117892Y-95118241D01*
X151425882Y-95443206D01*
G37*
D11*
G36*
X148752347Y-105592005D02*
G01*
X148630830Y-105834312D01*
X148589669Y-105834312D01*
X148467169Y-105592005D01*
X148467169Y-105264384D01*
X148343686Y-105264384D01*
X148343686Y-105617523D01*
X148511236Y-105951000D01*
X148709220Y-105951000D01*
X148876770Y-105617523D01*
X148876770Y-105264384D01*
X148752347Y-105264384D01*
X148752347Y-105592005D01*
G37*
G36*
X149421438Y-105558367D02*
G01*
X149421438Y-105854017D01*
X149322446Y-105951000D01*
X149071591Y-105951000D01*
X148971616Y-105854017D01*
X148971616Y-105606367D01*
X149088260Y-105606367D01*
X149088260Y-105806017D01*
X149129378Y-105847135D01*
X149264616Y-105847135D01*
X149305777Y-105806017D01*
X149305777Y-105606367D01*
X149264616Y-105565248D01*
X149129378Y-105565248D01*
X149088260Y-105606367D01*
X148971616Y-105606367D01*
X148971616Y-105558367D01*
X149071591Y-105461341D01*
X149322446Y-105461341D01*
X149421438Y-105558367D01*
G37*
G36*
X149828517Y-105751178D02*
G01*
X149732475Y-105847135D01*
X149673661Y-105848118D01*
X149635450Y-105807983D01*
X149635450Y-105461341D01*
X149518848Y-105461341D01*
X149518848Y-105854017D01*
X149615874Y-105951000D01*
X149755000Y-105951000D01*
X149831467Y-105866754D01*
X149837322Y-105960830D01*
X149945119Y-105951000D01*
X149945119Y-105461341D01*
X149828517Y-105461341D01*
X149828517Y-105751178D01*
G37*
G36*
X150260430Y-105847135D02*
G01*
X150219269Y-105806017D01*
X150219269Y-105565248D01*
X150374125Y-105565248D01*
X150355490Y-105461341D01*
X150219269Y-105461341D01*
X150219269Y-105340979D01*
X150102668Y-105351664D01*
X150102668Y-105461341D01*
X150022312Y-105461341D01*
X150022312Y-105565248D01*
X150102668Y-105565248D01*
X150102668Y-105854017D01*
X150202600Y-105951000D01*
X150376049Y-105951000D01*
X150357456Y-105847135D01*
X150260430Y-105847135D01*
G37*
G36*
X107222347Y-105622005D02*
G01*
X107100830Y-105864312D01*
X107059669Y-105864312D01*
X106937169Y-105622005D01*
X106937169Y-105294384D01*
X106813686Y-105294384D01*
X106813686Y-105647523D01*
X106981236Y-105981000D01*
X107179220Y-105981000D01*
X107346770Y-105647523D01*
X107346770Y-105294384D01*
X107222347Y-105294384D01*
X107222347Y-105622005D01*
G37*
G36*
X107775777Y-105981000D02*
G01*
X107853226Y-105905559D01*
X107771887Y-105824306D01*
X107717989Y-105877135D01*
X107599378Y-105877135D01*
X107558260Y-105836017D01*
X107558260Y-105636367D01*
X107599378Y-105595248D01*
X107716023Y-105595248D01*
X107768938Y-105647138D01*
X107850277Y-105565842D01*
X107773853Y-105491341D01*
X107541591Y-105491341D01*
X107441616Y-105588367D01*
X107441616Y-105884017D01*
X107541591Y-105981000D01*
X107775777Y-105981000D01*
G37*
G36*
X108259280Y-105981000D02*
G01*
X108336729Y-105905559D01*
X108255390Y-105824306D01*
X108201492Y-105877135D01*
X108082882Y-105877135D01*
X108041763Y-105836017D01*
X108041763Y-105636367D01*
X108082882Y-105595248D01*
X108199526Y-105595248D01*
X108252441Y-105647138D01*
X108333780Y-105565842D01*
X108257356Y-105491341D01*
X108025094Y-105491341D01*
X107925119Y-105588367D01*
X107925119Y-105884017D01*
X108025094Y-105981000D01*
X108259280Y-105981000D01*
G37*
G36*
X108879388Y-105417653D02*
G01*
X108776464Y-105314772D01*
X108459913Y-105314772D01*
X108440337Y-105428424D01*
X108711795Y-105428424D01*
X108757828Y-105472535D01*
X108757828Y-105568534D01*
X108418752Y-105728220D01*
X108418752Y-105981000D01*
X108879388Y-105981000D01*
X108858786Y-105867347D01*
X108540312Y-105867347D01*
X108540312Y-105798745D01*
X108879388Y-105639060D01*
X108879388Y-105417653D01*
G37*
D10*
G36*
X142815882Y-101103206D02*
G01*
X142815882Y-101470792D01*
X142600338Y-101697815D01*
X142871936Y-101980771D01*
X142871936Y-102415157D01*
X142563946Y-102740000D01*
X141712759Y-102740000D01*
X141443970Y-102740000D01*
X141443970Y-102493681D01*
X141712759Y-102493681D01*
X142440725Y-102493681D01*
X142603147Y-102322711D01*
X142603147Y-102073217D01*
X142390289Y-101849002D01*
X141712759Y-101849002D01*
X141712759Y-102493681D01*
X141443970Y-102493681D01*
X141443970Y-101602683D01*
X141712759Y-101602683D01*
X142334357Y-101602683D01*
X142547093Y-101378224D01*
X142547093Y-101195896D01*
X142384672Y-101024682D01*
X141712759Y-101024682D01*
X141712759Y-101602683D01*
X141443970Y-101602683D01*
X141443970Y-100778241D01*
X141712759Y-100778241D01*
X142507892Y-100778241D01*
X142815882Y-101103206D01*
G37*
D11*
G36*
X109812347Y-105642005D02*
G01*
X109690830Y-105884312D01*
X109649669Y-105884312D01*
X109527169Y-105642005D01*
X109527169Y-105314384D01*
X109403686Y-105314384D01*
X109403686Y-105667523D01*
X109571236Y-106001000D01*
X109769220Y-106001000D01*
X109936770Y-105667523D01*
X109936770Y-105314384D01*
X109812347Y-105314384D01*
X109812347Y-105642005D01*
G37*
G36*
X110481438Y-105608367D02*
G01*
X110481438Y-105904017D01*
X110382446Y-106001000D01*
X110131591Y-106001000D01*
X110031616Y-105904017D01*
X110031616Y-105656367D01*
X110148260Y-105656367D01*
X110148260Y-105856017D01*
X110189378Y-105897135D01*
X110324616Y-105897135D01*
X110365777Y-105856017D01*
X110365777Y-105656367D01*
X110324616Y-105615248D01*
X110189378Y-105615248D01*
X110148260Y-105656367D01*
X110031616Y-105656367D01*
X110031616Y-105608367D01*
X110131591Y-105511341D01*
X110382446Y-105511341D01*
X110481438Y-105608367D01*
G37*
G36*
X110888517Y-105801178D02*
G01*
X110792475Y-105897135D01*
X110733661Y-105898118D01*
X110695450Y-105857983D01*
X110695450Y-105511341D01*
X110578848Y-105511341D01*
X110578848Y-105904017D01*
X110675874Y-106001000D01*
X110815000Y-106001000D01*
X110891467Y-105916754D01*
X110897322Y-106010830D01*
X111005119Y-106001000D01*
X111005119Y-105511341D01*
X110888517Y-105511341D01*
X110888517Y-105801178D01*
G37*
G36*
X111320430Y-105897135D02*
G01*
X111279269Y-105856017D01*
X111279269Y-105615248D01*
X111434125Y-105615248D01*
X111415490Y-105511341D01*
X111279269Y-105511341D01*
X111279269Y-105390979D01*
X111162668Y-105401664D01*
X111162668Y-105511341D01*
X111082312Y-105511341D01*
X111082312Y-105615248D01*
X111162668Y-105615248D01*
X111162668Y-105904017D01*
X111262600Y-106001000D01*
X111436049Y-106001000D01*
X111417456Y-105897135D01*
X111320430Y-105897135D01*
G37*
D10*
G36*
X120744284Y-101730910D02*
G01*
X120744284Y-102740000D01*
X120475495Y-102740000D01*
X120475495Y-102212679D01*
X119534794Y-102212679D01*
X119534794Y-102740000D01*
X119265882Y-102740000D01*
X119265882Y-101784155D01*
X119534794Y-101784155D01*
X119534794Y-101966238D01*
X120475495Y-101966238D01*
X120475495Y-101784155D01*
X120086294Y-101024926D01*
X119923872Y-101024926D01*
X119534794Y-101784155D01*
X119265882Y-101784155D01*
X119265882Y-101730910D01*
X119753147Y-100778241D01*
X120257142Y-100778241D01*
X120744284Y-101730910D01*
G37*
D11*
G36*
X125289033Y-111356505D02*
G01*
X125445855Y-111356505D01*
X125445855Y-111398607D01*
X125320406Y-111524398D01*
X125198889Y-111524398D01*
X125132254Y-111457036D01*
X125132254Y-111139160D01*
X125198889Y-111071028D01*
X125382169Y-111071028D01*
X125459576Y-111150016D01*
X125547753Y-111061240D01*
X125443889Y-110954384D01*
X125138152Y-110954384D01*
X125008770Y-111086843D01*
X125008770Y-111508797D01*
X125138152Y-111641000D01*
X125364516Y-111641000D01*
X125449788Y-111546923D01*
X125456626Y-111648864D01*
X125570321Y-111641000D01*
X125570321Y-111243836D01*
X125308652Y-111243836D01*
X125289033Y-111356505D01*
G37*
G36*
X126108877Y-111527262D02*
G01*
X126078487Y-111527262D01*
X125933462Y-110954384D01*
X125693377Y-110954384D01*
X125693377Y-111641000D01*
X125812928Y-111641000D01*
X125812928Y-111068207D01*
X125842335Y-111068207D01*
X125986377Y-111641000D01*
X126228428Y-111641000D01*
X126228428Y-110954384D01*
X126108877Y-110954384D01*
X126108877Y-111527262D01*
G37*
G36*
X126885722Y-111086715D02*
G01*
X126885722Y-111508711D01*
X126756340Y-111641000D01*
X126380035Y-111641000D01*
X126362383Y-111641000D01*
X126362383Y-111524398D01*
X126485866Y-111524398D01*
X126694620Y-111524398D01*
X126761256Y-111456694D01*
X126761256Y-111138732D01*
X126694620Y-111071028D01*
X126485866Y-111071028D01*
X126485866Y-111524398D01*
X126362383Y-111524398D01*
X126362383Y-110954384D01*
X126756340Y-110954384D01*
X126885722Y-111086715D01*
G37*
G36*
X134272347Y-111252005D02*
G01*
X134150830Y-111494312D01*
X134109669Y-111494312D01*
X133987169Y-111252005D01*
X133987169Y-110924384D01*
X133863686Y-110924384D01*
X133863686Y-111277523D01*
X134031236Y-111611000D01*
X134229220Y-111611000D01*
X134396770Y-111277523D01*
X134396770Y-110924384D01*
X134272347Y-110924384D01*
X134272347Y-111252005D01*
G37*
G36*
X134941438Y-111218367D02*
G01*
X134941438Y-111514017D01*
X134842446Y-111611000D01*
X134591591Y-111611000D01*
X134491616Y-111514017D01*
X134491616Y-111266367D01*
X134608260Y-111266367D01*
X134608260Y-111466017D01*
X134649378Y-111507135D01*
X134784616Y-111507135D01*
X134825777Y-111466017D01*
X134825777Y-111266367D01*
X134784616Y-111225248D01*
X134649378Y-111225248D01*
X134608260Y-111266367D01*
X134491616Y-111266367D01*
X134491616Y-111218367D01*
X134591591Y-111121341D01*
X134842446Y-111121341D01*
X134941438Y-111218367D01*
G37*
G36*
X135348517Y-111411178D02*
G01*
X135252475Y-111507135D01*
X135193661Y-111508118D01*
X135155450Y-111467983D01*
X135155450Y-111121341D01*
X135038848Y-111121341D01*
X135038848Y-111514017D01*
X135135874Y-111611000D01*
X135275000Y-111611000D01*
X135351467Y-111526754D01*
X135357322Y-111620830D01*
X135465119Y-111611000D01*
X135465119Y-111121341D01*
X135348517Y-111121341D01*
X135348517Y-111411178D01*
G37*
G36*
X135780430Y-111507135D02*
G01*
X135739269Y-111466017D01*
X135739269Y-111225248D01*
X135894125Y-111225248D01*
X135875490Y-111121341D01*
X135739269Y-111121341D01*
X135739269Y-111000979D01*
X135622668Y-111011664D01*
X135622668Y-111121341D01*
X135542312Y-111121341D01*
X135542312Y-111225248D01*
X135622668Y-111225248D01*
X135622668Y-111514017D01*
X135722600Y-111611000D01*
X135896049Y-111611000D01*
X135877456Y-111507135D01*
X135780430Y-111507135D01*
G37*
G36*
X151259033Y-105666505D02*
G01*
X151415855Y-105666505D01*
X151415855Y-105708607D01*
X151290406Y-105834398D01*
X151168889Y-105834398D01*
X151102254Y-105767036D01*
X151102254Y-105449160D01*
X151168889Y-105381028D01*
X151352169Y-105381028D01*
X151429576Y-105460016D01*
X151517753Y-105371240D01*
X151413889Y-105264384D01*
X151108152Y-105264384D01*
X150978770Y-105396843D01*
X150978770Y-105818797D01*
X151108152Y-105951000D01*
X151334516Y-105951000D01*
X151419788Y-105856923D01*
X151426626Y-105958864D01*
X151540321Y-105951000D01*
X151540321Y-105553836D01*
X151278652Y-105553836D01*
X151259033Y-105666505D01*
G37*
G36*
X152078877Y-105837262D02*
G01*
X152048487Y-105837262D01*
X151903462Y-105264384D01*
X151663377Y-105264384D01*
X151663377Y-105951000D01*
X151782928Y-105951000D01*
X151782928Y-105378207D01*
X151812335Y-105378207D01*
X151956377Y-105951000D01*
X152198428Y-105951000D01*
X152198428Y-105264384D01*
X152078877Y-105264384D01*
X152078877Y-105837262D01*
G37*
G36*
X152855722Y-105396715D02*
G01*
X152855722Y-105818711D01*
X152726340Y-105951000D01*
X152350035Y-105951000D01*
X152332383Y-105951000D01*
X152332383Y-105834398D01*
X152455866Y-105834398D01*
X152664620Y-105834398D01*
X152731256Y-105766694D01*
X152731256Y-105448732D01*
X152664620Y-105381028D01*
X152455866Y-105381028D01*
X152455866Y-105834398D01*
X152332383Y-105834398D01*
X152332383Y-105264384D01*
X152726340Y-105264384D01*
X152855722Y-105396715D01*
G37*
G36*
X112289033Y-105716505D02*
G01*
X112445855Y-105716505D01*
X112445855Y-105758607D01*
X112320406Y-105884398D01*
X112198889Y-105884398D01*
X112132254Y-105817036D01*
X112132254Y-105499160D01*
X112198889Y-105431028D01*
X112382169Y-105431028D01*
X112459576Y-105510016D01*
X112547753Y-105421240D01*
X112443889Y-105314384D01*
X112138152Y-105314384D01*
X112008770Y-105446843D01*
X112008770Y-105868797D01*
X112138152Y-106001000D01*
X112364516Y-106001000D01*
X112449788Y-105906923D01*
X112456626Y-106008864D01*
X112570321Y-106001000D01*
X112570321Y-105603836D01*
X112308652Y-105603836D01*
X112289033Y-105716505D01*
G37*
G36*
X113108877Y-105887262D02*
G01*
X113078487Y-105887262D01*
X112933462Y-105314384D01*
X112693377Y-105314384D01*
X112693377Y-106001000D01*
X112812928Y-106001000D01*
X112812928Y-105428207D01*
X112842335Y-105428207D01*
X112986377Y-106001000D01*
X113228428Y-106001000D01*
X113228428Y-105314384D01*
X113108877Y-105314384D01*
X113108877Y-105887262D01*
G37*
G36*
X113885722Y-105446715D02*
G01*
X113885722Y-105868711D01*
X113756340Y-106001000D01*
X113380035Y-106001000D01*
X113362383Y-106001000D01*
X113362383Y-105884398D01*
X113485866Y-105884398D01*
X113694620Y-105884398D01*
X113761256Y-105816694D01*
X113761256Y-105498732D01*
X113694620Y-105431028D01*
X113485866Y-105431028D01*
X113485866Y-105884398D01*
X113362383Y-105884398D01*
X113362383Y-105314384D01*
X113756340Y-105314384D01*
X113885722Y-105446715D01*
G37*
G36*
X127842347Y-111242005D02*
G01*
X127720830Y-111484312D01*
X127679669Y-111484312D01*
X127557169Y-111242005D01*
X127557169Y-110914384D01*
X127433686Y-110914384D01*
X127433686Y-111267523D01*
X127601236Y-111601000D01*
X127799220Y-111601000D01*
X127966770Y-111267523D01*
X127966770Y-110914384D01*
X127842347Y-110914384D01*
X127842347Y-111242005D01*
G37*
G36*
X128395777Y-111601000D02*
G01*
X128473226Y-111525559D01*
X128391887Y-111444306D01*
X128337989Y-111497135D01*
X128219378Y-111497135D01*
X128178260Y-111456017D01*
X128178260Y-111256367D01*
X128219378Y-111215248D01*
X128336023Y-111215248D01*
X128388938Y-111267138D01*
X128470277Y-111185842D01*
X128393853Y-111111341D01*
X128161591Y-111111341D01*
X128061616Y-111208367D01*
X128061616Y-111504017D01*
X128161591Y-111601000D01*
X128395777Y-111601000D01*
G37*
G36*
X128879280Y-111601000D02*
G01*
X128956729Y-111525559D01*
X128875390Y-111444306D01*
X128821492Y-111497135D01*
X128702882Y-111497135D01*
X128661763Y-111456017D01*
X128661763Y-111256367D01*
X128702882Y-111215248D01*
X128819526Y-111215248D01*
X128872441Y-111267138D01*
X128953780Y-111185842D01*
X128877356Y-111111341D01*
X128645094Y-111111341D01*
X128545119Y-111208367D01*
X128545119Y-111504017D01*
X128645094Y-111601000D01*
X128879280Y-111601000D01*
G37*
G36*
X129499388Y-111037653D02*
G01*
X129396464Y-110934772D01*
X129079913Y-110934772D01*
X129060337Y-111048424D01*
X129331795Y-111048424D01*
X129377828Y-111092535D01*
X129377828Y-111188534D01*
X129038752Y-111348220D01*
X129038752Y-111601000D01*
X129499388Y-111601000D01*
X129478786Y-111487347D01*
X129160312Y-111487347D01*
X129160312Y-111418745D01*
X129499388Y-111259060D01*
X129499388Y-111037653D01*
G37*
G36*
X130562347Y-111242005D02*
G01*
X130440830Y-111484312D01*
X130399669Y-111484312D01*
X130277169Y-111242005D01*
X130277169Y-110914384D01*
X130153686Y-110914384D01*
X130153686Y-111267523D01*
X130321236Y-111601000D01*
X130519220Y-111601000D01*
X130686770Y-111267523D01*
X130686770Y-110914384D01*
X130562347Y-110914384D01*
X130562347Y-111242005D01*
G37*
G36*
X131115777Y-111601000D02*
G01*
X131193226Y-111525559D01*
X131111887Y-111444306D01*
X131057989Y-111497135D01*
X130939378Y-111497135D01*
X130898260Y-111456017D01*
X130898260Y-111256367D01*
X130939378Y-111215248D01*
X131056023Y-111215248D01*
X131108938Y-111267138D01*
X131190277Y-111185842D01*
X131113853Y-111111341D01*
X130881591Y-111111341D01*
X130781616Y-111208367D01*
X130781616Y-111504017D01*
X130881591Y-111601000D01*
X131115777Y-111601000D01*
G37*
G36*
X131599280Y-111601000D02*
G01*
X131676729Y-111525559D01*
X131595390Y-111444306D01*
X131541492Y-111497135D01*
X131422882Y-111497135D01*
X131381763Y-111456017D01*
X131381763Y-111256367D01*
X131422882Y-111215248D01*
X131539526Y-111215248D01*
X131592441Y-111267138D01*
X131673780Y-111185842D01*
X131597356Y-111111341D01*
X131365094Y-111111341D01*
X131265119Y-111208367D01*
X131265119Y-111504017D01*
X131365094Y-111601000D01*
X131599280Y-111601000D01*
G37*
G36*
X132044913Y-111487347D02*
G01*
X132044913Y-110933533D01*
X131874413Y-110933533D01*
X131752896Y-111054323D01*
X131827354Y-111126985D01*
X131909676Y-111047441D01*
X131923396Y-111047441D01*
X131923396Y-111487347D01*
X131769566Y-111487347D01*
X131769566Y-111601000D01*
X132185066Y-111601000D01*
X132165447Y-111487347D01*
X132044913Y-111487347D01*
G37*
G36*
X153812347Y-105582005D02*
G01*
X153690830Y-105824312D01*
X153649669Y-105824312D01*
X153527169Y-105582005D01*
X153527169Y-105254384D01*
X153403686Y-105254384D01*
X153403686Y-105607523D01*
X153571236Y-105941000D01*
X153769220Y-105941000D01*
X153936770Y-105607523D01*
X153936770Y-105254384D01*
X153812347Y-105254384D01*
X153812347Y-105582005D01*
G37*
G36*
X154365777Y-105941000D02*
G01*
X154443226Y-105865559D01*
X154361887Y-105784306D01*
X154307989Y-105837135D01*
X154189378Y-105837135D01*
X154148260Y-105796017D01*
X154148260Y-105596367D01*
X154189378Y-105555248D01*
X154306023Y-105555248D01*
X154358938Y-105607138D01*
X154440277Y-105525842D01*
X154363853Y-105451341D01*
X154131591Y-105451341D01*
X154031616Y-105548367D01*
X154031616Y-105844017D01*
X154131591Y-105941000D01*
X154365777Y-105941000D01*
G37*
G36*
X154849280Y-105941000D02*
G01*
X154926729Y-105865559D01*
X154845390Y-105784306D01*
X154791492Y-105837135D01*
X154672882Y-105837135D01*
X154631763Y-105796017D01*
X154631763Y-105596367D01*
X154672882Y-105555248D01*
X154789526Y-105555248D01*
X154842441Y-105607138D01*
X154923780Y-105525842D01*
X154847356Y-105451341D01*
X154615094Y-105451341D01*
X154515119Y-105548367D01*
X154515119Y-105844017D01*
X154615094Y-105941000D01*
X154849280Y-105941000D01*
G37*
G36*
X155294913Y-105827347D02*
G01*
X155294913Y-105273533D01*
X155124413Y-105273533D01*
X155002896Y-105394323D01*
X155077354Y-105466985D01*
X155159676Y-105387441D01*
X155173396Y-105387441D01*
X155173396Y-105827347D01*
X155019566Y-105827347D01*
X155019566Y-105941000D01*
X155435066Y-105941000D01*
X155415447Y-105827347D01*
X155294913Y-105827347D01*
G37*
D12*
G36*
X123832000Y-101846935D02*
G01*
X123481853Y-102064214D01*
X123481853Y-102218770D01*
X123832000Y-102218770D01*
X123832000Y-102296049D01*
X123047296Y-102296049D01*
X123047296Y-102218770D01*
X123047296Y-101920843D01*
X123120129Y-101920843D01*
X123120129Y-102218770D01*
X123410192Y-102218770D01*
X123410192Y-101941017D01*
X123303800Y-101840194D01*
X123204100Y-101840194D01*
X123120129Y-101920843D01*
X123047296Y-101920843D01*
X123047296Y-101886112D01*
X123177233Y-101762916D01*
X123330667Y-101762916D01*
X123481853Y-101906286D01*
X123481853Y-101974625D01*
X123832000Y-101753976D01*
X123832000Y-101846935D01*
G37*
G36*
X123759215Y-101366754D02*
G01*
X123069180Y-101366754D01*
X123069180Y-101510075D01*
X123202732Y-101642260D01*
X123253193Y-101591848D01*
X123142111Y-101476468D01*
X123142111Y-101444032D01*
X123759215Y-101444032D01*
X123759215Y-101629950D01*
X123832000Y-101629950D01*
X123832000Y-101187528D01*
X123759215Y-101199838D01*
X123759215Y-101366754D01*
G37*
G36*
X134741981Y-108147233D02*
G01*
X134741981Y-108300667D01*
X134598611Y-108451853D01*
X134530272Y-108451853D01*
X134750921Y-108802000D01*
X134657962Y-108802000D01*
X134440683Y-108451853D01*
X134286127Y-108451853D01*
X134286127Y-108802000D01*
X134208848Y-108802000D01*
X134208848Y-108380192D01*
X134286127Y-108380192D01*
X134563880Y-108380192D01*
X134664703Y-108273800D01*
X134664703Y-108174100D01*
X134584054Y-108090129D01*
X134286127Y-108090129D01*
X134286127Y-108380192D01*
X134208848Y-108380192D01*
X134208848Y-108017296D01*
X134286127Y-108017296D01*
X134618785Y-108017296D01*
X134741981Y-108147233D01*
G37*
G36*
X135311751Y-108520876D02*
G01*
X135405833Y-108520876D01*
X135419267Y-108592537D01*
X135311751Y-108592537D01*
X135311751Y-108802000D01*
X135233349Y-108802000D01*
X135233349Y-108592537D01*
X134864884Y-108592537D01*
X134864884Y-108520876D01*
X134952226Y-108520876D01*
X135233349Y-108520876D01*
X135233349Y-108112160D01*
X135205359Y-108112160D01*
X134952226Y-108520876D01*
X134864884Y-108520876D01*
X134864884Y-108514135D01*
X135165059Y-108039180D01*
X135311751Y-108039180D01*
X135311751Y-108520876D01*
G37*
G36*
X119585074Y-111181050D02*
G01*
X119683650Y-111080129D01*
X119977083Y-111080129D01*
X119964774Y-111007296D01*
X119650042Y-111007296D01*
X119506672Y-111147394D01*
X119506672Y-111324568D01*
X119942352Y-111506187D01*
X119942352Y-111612725D01*
X119842701Y-111719215D01*
X119511166Y-111719215D01*
X119498856Y-111792000D01*
X119878507Y-111792000D01*
X120020754Y-111640715D01*
X120020754Y-111455726D01*
X119585074Y-111274107D01*
X119585074Y-111181050D01*
G37*
G36*
X120413545Y-111719215D02*
G01*
X120413545Y-111029180D01*
X120270224Y-111029180D01*
X120138039Y-111162732D01*
X120188451Y-111213193D01*
X120303832Y-111102111D01*
X120336267Y-111102111D01*
X120336267Y-111719215D01*
X120150349Y-111719215D01*
X120150349Y-111792000D01*
X120592771Y-111792000D01*
X120580461Y-111719215D01*
X120413545Y-111719215D01*
G37*
G36*
X137572847Y-101086619D02*
G01*
X137517990Y-101035035D01*
X137430649Y-101129215D01*
X137180886Y-101129215D01*
X137082310Y-101023849D01*
X137082310Y-100595545D01*
X137180886Y-100490129D01*
X137421661Y-100490129D01*
X137510125Y-100584309D01*
X137563908Y-100532725D01*
X137457515Y-100417296D01*
X137145031Y-100417296D01*
X137005031Y-100568629D01*
X137005031Y-101050715D01*
X137145031Y-101202000D01*
X137465331Y-101202000D01*
X137572847Y-101086619D01*
G37*
G36*
X137975359Y-101129215D02*
G01*
X137975359Y-100439180D01*
X137832037Y-100439180D01*
X137699853Y-100572732D01*
X137750265Y-100623193D01*
X137865645Y-100512111D01*
X137898081Y-100512111D01*
X137898081Y-101129215D01*
X137712163Y-101129215D01*
X137712163Y-101202000D01*
X138154585Y-101202000D01*
X138142275Y-101129215D01*
X137975359Y-101129215D01*
G37*
G36*
X104004877Y-105517233D02*
G01*
X104004877Y-105670667D01*
X103861507Y-105821853D01*
X103793168Y-105821853D01*
X104013817Y-106172000D01*
X103920858Y-106172000D01*
X103703579Y-105821853D01*
X103549023Y-105821853D01*
X103549023Y-106172000D01*
X103471744Y-106172000D01*
X103471744Y-105750192D01*
X103549023Y-105750192D01*
X103826776Y-105750192D01*
X103927599Y-105643800D01*
X103927599Y-105544100D01*
X103846950Y-105460129D01*
X103549023Y-105460129D01*
X103549023Y-105750192D01*
X103471744Y-105750192D01*
X103471744Y-105387296D01*
X103549023Y-105387296D01*
X103881681Y-105387296D01*
X104004877Y-105517233D01*
G37*
G36*
X104632923Y-105705300D02*
G01*
X104632923Y-105528908D01*
X104514173Y-105411427D01*
X104222986Y-105411427D01*
X104140090Y-105494274D01*
X104193873Y-105546738D01*
X104257718Y-105484212D01*
X104480565Y-105484212D01*
X104554521Y-105556801D01*
X104554521Y-105677408D01*
X104480565Y-105749948D01*
X104310327Y-105749948D01*
X104310327Y-105822781D01*
X104487306Y-105822781D01*
X104561214Y-105895517D01*
X104561214Y-106026480D01*
X104487306Y-106099215D01*
X104250976Y-106099215D01*
X104187131Y-106036542D01*
X104133398Y-106089152D01*
X104216245Y-106172000D01*
X104520914Y-106172000D01*
X104639616Y-106054470D01*
X104639616Y-105867526D01*
X104554521Y-105782432D01*
X104632923Y-105705300D01*
G37*
G36*
X141593029Y-111181050D02*
G01*
X141691605Y-111080129D01*
X141985038Y-111080129D01*
X141972729Y-111007296D01*
X141657997Y-111007296D01*
X141514627Y-111147394D01*
X141514627Y-111324568D01*
X141950307Y-111506187D01*
X141950307Y-111612725D01*
X141850656Y-111719215D01*
X141519121Y-111719215D01*
X141506811Y-111792000D01*
X141886462Y-111792000D01*
X142028709Y-111640715D01*
X142028709Y-111455726D01*
X141593029Y-111274107D01*
X141593029Y-111181050D01*
G37*
G36*
X142644396Y-111148957D02*
G01*
X142526818Y-111031427D01*
X142187467Y-111031427D01*
X142173985Y-111104212D01*
X142492087Y-111104212D01*
X142567118Y-111176898D01*
X142567118Y-111330087D01*
X142153859Y-111531392D01*
X142153859Y-111792000D01*
X142644396Y-111792000D01*
X142632087Y-111719215D01*
X142232261Y-111719215D01*
X142232261Y-111574965D01*
X142644396Y-111373709D01*
X142644396Y-111148957D01*
G37*
G36*
X125215038Y-95347233D02*
G01*
X125215038Y-95500667D01*
X125071668Y-95651853D01*
X125003329Y-95651853D01*
X125223978Y-96002000D01*
X125131019Y-96002000D01*
X124913740Y-95651853D01*
X124759184Y-95651853D01*
X124759184Y-96002000D01*
X124681905Y-96002000D01*
X124681905Y-95580192D01*
X124759184Y-95580192D01*
X125036937Y-95580192D01*
X125137760Y-95473800D01*
X125137760Y-95374100D01*
X125057111Y-95290129D01*
X124759184Y-95290129D01*
X124759184Y-95580192D01*
X124681905Y-95580192D01*
X124681905Y-95217296D01*
X124759184Y-95217296D01*
X125091842Y-95217296D01*
X125215038Y-95347233D01*
G37*
G36*
X125834096Y-95358957D02*
G01*
X125716518Y-95241427D01*
X125377167Y-95241427D01*
X125363685Y-95314212D01*
X125681786Y-95314212D01*
X125756818Y-95386898D01*
X125756818Y-95540087D01*
X125343559Y-95741392D01*
X125343559Y-96002000D01*
X125834096Y-96002000D01*
X125821786Y-95929215D01*
X125421961Y-95929215D01*
X125421961Y-95784965D01*
X125834096Y-95583709D01*
X125834096Y-95358957D01*
G37*
G36*
X158067382Y-105597233D02*
G01*
X158067382Y-105750667D01*
X157924012Y-105901853D01*
X157855673Y-105901853D01*
X158076322Y-106252000D01*
X157983363Y-106252000D01*
X157766084Y-105901853D01*
X157611528Y-105901853D01*
X157611528Y-106252000D01*
X157534249Y-106252000D01*
X157534249Y-105830192D01*
X157611528Y-105830192D01*
X157889281Y-105830192D01*
X157990104Y-105723800D01*
X157990104Y-105624100D01*
X157909455Y-105540129D01*
X157611528Y-105540129D01*
X157611528Y-105830192D01*
X157534249Y-105830192D01*
X157534249Y-105467296D01*
X157611528Y-105467296D01*
X157944186Y-105467296D01*
X158067382Y-105597233D01*
G37*
G36*
X158304542Y-105786180D02*
G01*
X158304542Y-105564212D01*
X158643893Y-105564212D01*
X158630460Y-105491427D01*
X158226140Y-105491427D01*
X158226140Y-105859013D01*
X158527389Y-105859013D01*
X158602470Y-105933165D01*
X158602470Y-106106187D01*
X158527389Y-106179215D01*
X158313481Y-106179215D01*
X158249636Y-106116298D01*
X158195903Y-106169103D01*
X158278750Y-106252000D01*
X158562121Y-106252000D01*
X158679748Y-106134274D01*
X158679748Y-105905077D01*
X158562121Y-105786180D01*
X158304542Y-105786180D01*
G37*
G36*
X107964019Y-100318629D02*
G01*
X107964019Y-100800715D01*
X107820649Y-100952000D01*
X107404019Y-100952000D01*
X107404019Y-100879215D01*
X107481298Y-100879215D01*
X107785917Y-100879215D01*
X107886741Y-100772725D01*
X107886741Y-100346619D01*
X107785917Y-100240129D01*
X107481298Y-100240129D01*
X107481298Y-100879215D01*
X107404019Y-100879215D01*
X107404019Y-100167296D01*
X107820649Y-100167296D01*
X107964019Y-100318629D01*
G37*
G36*
X108373175Y-100879215D02*
G01*
X108373175Y-100189180D01*
X108229853Y-100189180D01*
X108097669Y-100322732D01*
X108148081Y-100373193D01*
X108263461Y-100262111D01*
X108295896Y-100262111D01*
X108295896Y-100879215D01*
X108109979Y-100879215D01*
X108109979Y-100952000D01*
X108552400Y-100952000D01*
X108540090Y-100879215D01*
X108373175Y-100879215D01*
G37*
G36*
X130840803Y-108676619D02*
G01*
X130785946Y-108625035D01*
X130698605Y-108719215D01*
X130448842Y-108719215D01*
X130350266Y-108613849D01*
X130350266Y-108185545D01*
X130448842Y-108080129D01*
X130689617Y-108080129D01*
X130778081Y-108174309D01*
X130831864Y-108122725D01*
X130725471Y-108007296D01*
X130412987Y-108007296D01*
X130272987Y-108158629D01*
X130272987Y-108640715D01*
X130412987Y-108792000D01*
X130733287Y-108792000D01*
X130840803Y-108676619D01*
G37*
G36*
X131466211Y-108148957D02*
G01*
X131348633Y-108031427D01*
X131009282Y-108031427D01*
X130995799Y-108104212D01*
X131313901Y-108104212D01*
X131388933Y-108176898D01*
X131388933Y-108330087D01*
X130975674Y-108531392D01*
X130975674Y-108792000D01*
X131466211Y-108792000D01*
X131453901Y-108719215D01*
X131054076Y-108719215D01*
X131054076Y-108574965D01*
X131466211Y-108373709D01*
X131466211Y-108148957D01*
G37*
G36*
X132970764Y-102167915D02*
G01*
X132337296Y-102167915D01*
X132337296Y-102245193D01*
X132942725Y-102245193D01*
X133049215Y-102346017D01*
X133049215Y-102547566D01*
X132942725Y-102648389D01*
X132337296Y-102648389D01*
X132337296Y-102725668D01*
X132970764Y-102725668D01*
X133122000Y-102582297D01*
X133122000Y-102311285D01*
X132970764Y-102167915D01*
G37*
G36*
X133049215Y-101747133D02*
G01*
X132359180Y-101747133D01*
X132359180Y-101890455D01*
X132492732Y-102022639D01*
X132543193Y-101972228D01*
X132432111Y-101856847D01*
X132432111Y-101824412D01*
X133049215Y-101824412D01*
X133049215Y-102010329D01*
X133122000Y-102010329D01*
X133122000Y-101567908D01*
X133049215Y-101580218D01*
X133049215Y-101747133D01*
G37*
G36*
X154231975Y-97728629D02*
G01*
X154231975Y-98210715D01*
X154088605Y-98362000D01*
X153671975Y-98362000D01*
X153671975Y-98289215D01*
X153749254Y-98289215D01*
X154053873Y-98289215D01*
X154154697Y-98182725D01*
X154154697Y-97756619D01*
X154053873Y-97650129D01*
X153749254Y-97650129D01*
X153749254Y-98289215D01*
X153671975Y-98289215D01*
X153671975Y-97577296D01*
X154088605Y-97577296D01*
X154231975Y-97728629D01*
G37*
G36*
X154864027Y-97718957D02*
G01*
X154746448Y-97601427D01*
X154407097Y-97601427D01*
X154393615Y-97674212D01*
X154711717Y-97674212D01*
X154786748Y-97746898D01*
X154786748Y-97900087D01*
X154373489Y-98101392D01*
X154373489Y-98362000D01*
X154864027Y-98362000D01*
X154851717Y-98289215D01*
X154451891Y-98289215D01*
X154451891Y-98144965D01*
X154864027Y-97943709D01*
X154864027Y-97718957D01*
G37*
D13*
X125110000Y-103339999D02*
G75*
G02*
X124910000Y-103339999I-100000J0D01*
G01*
X124910000Y-103339999D02*
G75*
G02*
X125110000Y-103339999I100000J0D01*
G01*
D11*
X134506248Y-106289999D02*
X135028752Y-106289999D01*
X134506248Y-107759999D02*
X135028752Y-107759999D01*
D14*
X123540000Y-104610000D02*
X123540000Y-109660000D01*
D11*
X118230000Y-106140000D02*
X117750000Y-106140000D01*
X117990000Y-105810000D01*
X118230000Y-106140000D01*
G36*
X118230000Y-106140000D02*
G01*
X117750000Y-106140000D01*
X117990000Y-105810000D01*
X118230000Y-106140000D01*
G37*
X137306248Y-98695000D02*
X137828752Y-98695000D01*
X137306248Y-100165000D02*
X137828752Y-100165000D01*
X104308751Y-106515000D02*
X103786247Y-106515000D01*
X104308751Y-107985000D02*
X103786247Y-107985000D01*
D14*
X138600000Y-109680000D02*
X138600000Y-104630000D01*
D11*
X144150000Y-108580000D02*
X143910000Y-108250000D01*
X144390000Y-108250000D01*
X144150000Y-108580000D01*
G36*
X144150000Y-108580000D02*
G01*
X143910000Y-108250000D01*
X144390000Y-108250000D01*
X144150000Y-108580000D01*
G37*
D13*
X126570000Y-97200000D02*
G75*
G02*
X126370000Y-97200000I-100000J0D01*
G01*
X126370000Y-97200000D02*
G75*
G02*
X126570000Y-97200000I100000J0D01*
G01*
D11*
X157851248Y-106570000D02*
X158373752Y-106570000D01*
X157851248Y-108040000D02*
X158373752Y-108040000D01*
X103295000Y-101440000D02*
X103295000Y-97490000D01*
X106595000Y-101440000D02*
X106595000Y-97490000D01*
D13*
X107195000Y-100965000D02*
G75*
G02*
X106995000Y-100965000I-100000J0D01*
G01*
X106995000Y-100965000D02*
G75*
G02*
X107195000Y-100965000I100000J0D01*
G01*
D11*
X131113752Y-106289999D02*
X130591248Y-106289999D01*
X131113752Y-107759999D02*
X130591248Y-107759999D01*
X130830000Y-103254999D02*
X130590000Y-102924999D01*
X131070000Y-102924999D01*
X130830000Y-103254999D01*
G36*
X130830000Y-103254999D02*
G01*
X130590000Y-102924999D01*
X131070000Y-102924999D01*
X130830000Y-103254999D01*
G37*
X155674999Y-97525000D02*
X155674999Y-101475000D01*
X158974999Y-97525000D02*
X158974999Y-101475000D01*
D13*
X155274999Y-98000000D02*
G75*
G02*
X155074999Y-98000000I-100000J0D01*
G01*
X155074999Y-98000000D02*
G75*
G02*
X155274999Y-98000000I100000J0D01*
G01*
M02*
