<?xml version="1.0" encoding="UTF-8" standalone="no"?>
<!-- Created with Inkscape (http://www.inkscape.org/) -->

<svg
   width="210mm"
   height="297mm"
   viewBox="0 0 210 297"
   version="1.1"
   id="svg1"
   xml:space="preserve"
   xmlns="http://www.w3.org/2000/svg"
   xmlns:svg="http://www.w3.org/2000/svg"><defs
     id="defs1" /><g
     id="layer1"><path
       style="fill:#000000"
       d="m 132.25454,191.01707 c -0.36381,-0.0487 -0.77457,-0.19753 -0.91282,-0.33073 -0.13824,-0.1332 -0.52519,-0.24218 -0.85989,-0.24218 -0.3347,0 -0.60854,-0.11906 -0.60854,-0.26458 0,-0.14553 0.11906,-0.26459 0.26458,-0.26459 0.50022,0 0.26379,-0.44459 -0.3964,-0.74539 -0.36353,-0.16564 -1.18052,-0.78006 -1.81552,-1.36538 -1.25398,-1.15589 -1.49225,-1.26493 -1.49225,-0.68297 0,0.20969 -0.0948,0.43986 -0.2107,0.51148 -0.11589,0.0716 -0.20519,-0.51666 -0.19844,-1.30731 0.007,-0.79064 -0.077,-1.43753 -0.18617,-1.43752 -0.10914,0 -0.19844,0.0893 -0.19844,0.19845 0,0.10914 -0.28628,0.19843 -0.63619,0.19843 -0.34991,0 -0.581,-0.0893 -0.51355,-0.19843 0.0674,-0.10914 -0.003,-0.21332 -0.15756,-0.23151 -0.15411,-0.0182 -0.39926,-0.0628 -0.54478,-0.0992 -0.14552,-0.0364 -0.38365,-0.081 -0.52917,-0.0992 -0.14552,-0.0182 -0.25077,-0.42003 -0.23389,-0.89297 0.0169,-0.47294 0.0807,-0.67468 0.14179,-0.44831 0.12139,0.44972 1.6796,1.47995 1.6796,1.11048 0,-0.60089 -1.78819,-1.90347 -2.84427,-2.07186 -0.61846,-0.0986 -1.12448,-0.27982 -1.12448,-0.40267 0,-0.12286 -0.65484,-0.41375 -1.4552,-0.64642 -1.76614,-0.51343 -1.85219,-0.68346 -0.26459,-0.52281 0.65485,0.0663 1.19063,0.009 1.19063,-0.12738 0,-0.13633 -0.1786,-0.17933 -0.39688,-0.0956 -0.21828,0.0838 -0.39687,0.0241 -0.39687,-0.13253 0,-0.15666 -0.39801,-0.26988 -0.88447,-0.25159 -0.48646,0.0183 -1.02224,-0.0519 -1.19063,-0.15596 -0.16838,-0.10407 -0.30615,-0.0561 -0.30615,0.1066 0,0.16269 -0.11907,0.22223 -0.26459,0.13229 -0.14552,-0.0899 -0.26458,-0.0537 -0.26458,0.0805 0,0.2557 -0.64714,0.25321 -1.32291,-0.005 -0.21828,-0.0834 -0.81359,-0.27121 -1.32291,-0.4173 l 0.16604,-0.29261 c 0.60064,-0.0149 1.23253,-0.19624 1.40418,-0.40307 0.25839,-0.31135 0.20705,-0.34898 -0.29833,-0.2187 -0.53186,0.1371 -0.56621,0.1034 -0.26686,-0.26184 0.26481,-0.32309 0.2706,-0.46431 0.0253,-0.61593 -0.19457,-0.12025 -0.24932,-0.0851 -0.14083,0.0905 0.25501,0.41261 -0.27769,0.66086 -0.79586,0.37088 -0.38603,-0.21603 -0.35397,-0.30229 0.26249,-0.70621 0.38623,-0.25306 0.70041,-0.59525 0.69818,-0.76041 -0.003,-0.21574 -0.0588,-0.21833 -0.19844,-0.009 -0.53695,0.80416 -1.36585,0.92951 -2.17767,0.3293 -0.95624,-0.70698 -0.99767,-0.86099 -0.17616,-0.6548 0.35705,0.0896 0.83257,-0.007 1.12448,-0.22749 0.3419,-0.25874 0.38813,-0.38549 0.14267,-0.39118 -0.29272,-0.007 -0.29926,-0.0854 -0.0337,-0.40529 0.18374,-0.22139 0.21239,-0.39687 0.0648,-0.39687 -0.14552,0 -0.41281,0.17859 -0.59396,0.39687 -0.18116,0.21828 -0.63521,0.39688 -1.00901,0.39688 -0.62965,0 -0.64431,-0.0258 -0.19937,-0.35118 0.56758,-0.41502 -0.29648,-0.87749 -1.94971,-1.04355 -0.50003,-0.0502 -0.96235,-0.25096 -1.02739,-0.44608 -0.0921,-0.27618 0.12395,-0.31602 0.97528,-0.17989 1.25149,0.20013 1.46821,-0.20404 0.55337,-1.03196 -0.54016,-0.48883 -0.54016,-0.48883 0.0662,-0.82538 l 0.6063,-0.33655 -0.59531,-0.009 c -0.32742,-0.005 -0.59531,-0.13547 -0.59531,-0.28957 0,-0.15411 -0.12699,-0.20172 -0.28219,-0.1058 -0.5675,0.35073 -1.6345,-2.52336 -1.35465,-3.6489 0.0852,-0.34262 -0.69457,-0.21552 -0.81163,0.13229 -0.13442,0.39939 -0.99371,-0.20465 -0.98706,-0.69386 0.002,-0.1697 0.10487,-0.13911 0.23788,0.071 0.14957,0.23622 0.41028,0.29764 0.72355,0.17045 0.45525,-0.18483 0.44781,-0.21833 -0.10559,-0.47586 -0.60711,-0.28253 -0.80902,-0.72534 -0.33073,-0.72534 0.14552,0 0.27213,0.14883 0.28135,0.33073 0.009,0.1819 0.13085,0.0455 0.27027,-0.30299 0.30978,-0.77442 0.13017,-1.01295 -0.41933,-0.5569 -0.55638,0.46175 -0.77278,0.17322 -0.39687,-0.52917 0.39287,-0.7341 0.18406,-0.92863 -0.89684,-0.83551 -0.82372,0.071 -0.86256,0.0346 -0.75399,-0.70507 0.063,-0.42895 -0.028,-1.04607 -0.20209,-1.37138 -0.21012,-0.39262 -0.21872,-0.53102 -0.0256,-0.41165 0.16004,0.0989 0.29098,0.0538 0.29098,-0.10036 0,-0.15411 -0.11906,-0.2802 -0.26458,-0.2802 -0.44325,0 -0.2949,-1.10928 0.19844,-1.48377 0.4309,-0.3271 0.42369,-0.35207 -0.10399,-0.3599 -0.77363,-0.0115 -1.0076,-0.76085 -0.43507,-1.39349 0.44199,-0.48839 0.44231,-0.53203 0.006,-0.8508 -0.46816,-0.34232 -0.65835,-0.82866 -0.21752,-0.55621 0.13309,0.0823 0.29137,10e-4 0.35174,-0.17971 0.0875,-0.26253 0.25655,-0.26238 0.83402,7.3e-4 0.69802,0.31804 0.79069,0.26278 2.55679,-1.52447 1.00789,-1.01995 2.00494,-1.85446 2.21567,-1.85446 0.57979,0 0.73097,0.43935 0.29961,0.87072 -1.33763,1.33763 -2.25405,3.42522 -1.22018,2.77956 0.91554,-0.57177 0.91884,0.0208 0.007,1.3111 -0.4902,0.69388 -0.64868,1.04886 -0.35399,0.79291 0.42942,-0.37296 0.76178,-0.42265 1.70291,-0.25458 1.35927,0.24274 2.57695,-0.0871 3.49071,-0.94552 0.34275,-0.32199 0.92065,-0.58544 1.28422,-0.58544 0.38941,0 0.97416,-0.32683 1.42306,-0.79538 0.5516,-0.57574 0.91231,-0.74932 1.30627,-0.62859 0.80121,0.24553 0.81732,0.31121 0.23589,0.96199 -0.54756,0.61288 -1.78648,2.63766 -2.46821,4.03385 -0.21317,0.43657 -1.01509,1.48515 -1.78205,2.33019 -0.76697,0.84504 -1.39208,1.73801 -1.38913,1.98437 0.003,0.27676 0.68583,-0.29324 1.78594,-1.49151 1.66351,-1.81196 2.70661,-2.32584 2.70661,-1.33343 0,0.13331 0.30782,0.0407 0.68404,-0.20582 0.52096,-0.34135 0.73174,-0.37102 0.88414,-0.12443 0.5311,0.85934 3.33539,-2.40801 4.11657,-4.79632 0.24592,-0.75185 0.61526,-1.60706 0.82077,-1.90046 0.45113,-0.64408 0.48221,-1.02516 0.0725,-0.88858 -0.16565,0.0552 -0.51307,0.63068 -0.77205,1.27882 -0.25898,0.64813 -0.5929,1.15092 -0.74205,1.11731 -0.14914,-0.0336 -0.64657,0.38311 -1.10539,0.92605 -0.71942,0.85129 -0.80786,0.89611 -0.64262,0.32569 0.27742,-0.95771 1.12764,-2.58099 1.45916,-2.78588 0.15658,-0.0968 0.40152,-0.43227 0.54431,-0.74555 0.49552,-1.08717 0.9679,-1.79808 1.70827,-2.57086 1.10943,-1.15799 1.27059,-0.94105 0.37827,0.50916 -0.83563,1.35807 -0.92895,1.62438 -0.56919,1.62438 0.12216,0 0.35773,-0.29766 0.52349,-0.66146 0.31627,-0.69413 1.03191,-0.85285 1.83767,-0.40757 0.25269,0.13964 0.99521,0.3669 1.65006,0.50501 0.65484,0.13812 2.05232,0.50012 3.1055,0.80444 2.08593,0.60275 2.97991,0.69297 2.97991,0.30073 0,-0.13892 0.38696,-0.31942 0.8599,-0.4011 1.59323,-0.27516 2.18126,-0.36522 2.51354,-0.38497 0.33316,-0.0198 0.48402,-1.34258 0.15313,-1.34258 -0.0977,0 -0.40047,0.20168 -0.67285,0.44818 -0.36815,0.33318 -0.45851,0.35015 -0.3521,0.0662 0.0969,-0.25873 -0.19952,-0.52567 -0.91848,-0.82705 -1.21292,-0.50843 -2.24571,-2.32676 -2.533,-4.45964 l -0.16171,-1.20049 -1.36244,0.01 c -1.03906,0.008 -1.36244,-0.0843 -1.36244,-0.38701 0,-0.25233 0.20453,-0.36881 0.56159,-0.31981 0.38996,0.0535 0.60738,-0.098 0.7114,-0.49577 0.1207,-0.46157 0.28016,-0.54012 0.82091,-0.4044 1.60813,0.40361 4.97151,-3.81661 4.44032,-5.5715 -0.37422,-1.23631 0.8427,-1.99764 1.74723,-1.09311 0.24695,0.24695 0.3175,0.12148 0.3175,-0.56461 0,-1.28802 0.57004,-2.99711 1.16135,-3.48199 1.65309,-1.35554 -1.91197,-2.89704 -3.94484,-1.7057 -1.92644,1.12897 -2.48927,2.79535 -0.80103,2.37163 0.77769,-0.19519 1.19166,0.15264 1.19922,1.00761 0.007,0.81629 -1.13611,0.83344 -2.60684,0.0391 -0.74682,-0.40334 -1.35786,-0.80758 -1.35786,-0.8983 0,-0.52426 -1.58039,-1.84776 -2.20641,-1.84776 -0.83297,0 -0.90704,-0.42329 -0.18383,-1.05053 0.2861,-0.24813 0.74692,-0.97647 1.02405,-1.61854 0.96402,-2.23349 3.80457,-3.26649 3.02818,-1.10124 -0.18126,0.50552 0.18414,0.39808 1.149,-0.33786 0.60704,-0.46301 1.06819,-0.62048 1.49982,-0.51215 0.39921,0.10019 0.74672,0.008 0.96674,-0.25746 0.18893,-0.22764 0.49263,-0.41388 0.6749,-0.41388 0.18228,0 0.40285,-0.35719 0.49016,-0.79375 0.31135,-1.55675 2.46825,0.50517 2.94053,2.81104 0.0931,0.45467 0.46079,1.1005 0.81705,1.43518 0.77434,0.72746 0.83839,1.47844 0.14487,1.69855 -0.27658,0.0878 -0.5694,0.42468 -0.65071,0.74865 -0.0813,0.32398 -0.68846,1.2224 -1.34922,1.9965 -0.68828,0.80634 -1.20138,1.67406 -1.20138,2.03169 0,0.34333 -0.11906,0.69783 -0.26458,0.78776 -1.00654,0.62208 1.52407,4.89479 2.89904,4.89479 0.36345,0 1.63367,2.1377 1.54374,2.59801 -0.0607,0.31045 -0.36279,0.44887 -1.00082,0.45852 -0.91393,0.0138 -0.91393,0.0138 -1.27646,1.85208 -0.40304,2.04366 -0.72565,2.51842 -2.36362,3.47833 -1.05242,0.61676 -1.4647,1.42593 -0.90331,1.77289 0.23218,0.14349 3.27396,-1.54703 4.45458,-2.47571 0.37783,-0.2972 0.88658,-0.54037 1.13056,-0.54037 0.41358,0 0.99463,-0.46293 1.81058,-1.4425 0.51683,-0.62048 0.71481,-0.52216 1.86997,0.92866 1.26667,1.59088 3.62159,3.5299 4.0017,3.29498 0.43748,-0.27038 0.30782,-1.19602 -0.19356,-1.38185 -1.68351,-0.62397 -4.0349,-2.59522 -4.0349,-3.38259 0,-1.14877 -1.50502,-2.06098 -2.13934,-1.29667 -0.53742,0.64755 -0.63745,0.4124 -0.69837,-1.64171 -0.0538,-1.81246 -0.0149,-1.99027 0.39687,-1.81696 1.06063,0.44638 1.64709,0.45443 1.64709,0.0226 0,-0.23524 -0.11906,-0.42772 -0.26458,-0.42772 -0.14552,0 -0.26459,-0.18278 -0.26459,-0.40618 0,-0.5871 0.64175,-0.1833 2.39238,1.50533 0.80649,0.77792 1.90081,1.74253 2.43182,2.14358 l 0.96548,0.72919 -0.53293,1.20478 c -0.6885,1.55646 -0.39712,1.96705 1.39591,1.96705 1.20046,0 3.31639,0.96605 3.622,1.65365 0.0485,0.10914 0.20039,0.19844 0.33752,0.19844 0.84409,0 -2.72733,-4.19617 -5.00406,-5.87943 -0.77184,-0.57064 -1.54001,-1.35645 -1.70704,-1.74624 -0.16704,-0.38979 -0.59711,-0.95735 -0.95571,-1.26124 -2.3252,-1.97044 1.25123,-0.41894 5.59521,2.42728 2.65875,1.74204 3.46058,2.00285 2.28633,0.74369 -1.15576,-1.23936 -5.14387,-3.55714 -7.20566,-4.18775 -0.86207,-0.26367 -0.17936,-0.67965 1.11545,-0.67965 1.26796,0 3.44045,0.62139 5.0098,1.43293 0.49931,0.2582 0.83684,0.31883 0.83684,0.1503 0,-0.29452 -2.77217,-1.62876 -4.0349,-1.94199 -1.23341,-0.30595 -0.81897,-0.60448 1.45521,-1.04821 2.17965,-0.42529 0.83562,-0.44591 -1.68413,-0.0258 -0.8647,0.14416 -1.01582,0.0745 -1.57422,-0.72522 -0.33974,-0.48657 -0.76357,-0.97489 -0.94186,-1.08515 -0.17829,-0.11027 -0.46139,-0.61628 -0.62911,-1.12448 -0.30495,-0.924 -0.30495,-0.924 -2.00422,-0.924 -1.58617,0 -2.42179,-0.50882 -1.39675,-0.8505 0.22539,-0.0751 0.22304,-0.24936 -0.009,-0.68338 -0.28296,-0.52871 -0.22489,-0.62397 0.62845,-1.03089 1.02992,-0.49114 1.07344,-0.8476 0.15958,-1.30719 -0.97155,-0.48861 -1.14443,-0.77337 -0.69565,-1.14582 0.66241,-0.54976 0.4657,-0.90167 -0.24406,-0.43661 -1.11936,0.73343 -3.56359,-0.47897 -3.57642,-1.77398 -0.003,-0.26483 -0.38795,-1.03844 -0.85629,-1.71915 -1.77474,-2.5795 -0.95151,-6.30641 1.86452,-8.44097 2.07227,-1.57079 3.58569,-1.2895 5.29595,0.98432 1.05205,1.3987 1.62855,1.6512 1.62855,0.71325 0,-0.7188 0.35874,-1.09183 1.26306,-1.31337 0.37654,-0.0922 0.58364,-0.0323 0.55358,0.16022 -0.0264,0.16919 0.0107,0.4862 0.0824,0.70448 0.0717,0.21828 0.37486,1.15324 0.67366,2.07769 l 0.54326,1.68081 -0.83036,-0.18664 c -2.87551,-0.64633 -2.81465,-0.64853 -2.81572,0.10169 -0.001,0.95722 -0.88446,2.31425 -1.91482,2.94247 -1.30384,0.79496 -1.39776,0.64145 -0.35377,-0.57823 0.68085,-0.79542 0.94666,-1.35699 0.94666,-1.99999 0,-1.17562 -0.39067,-0.89877 -0.75099,0.53219 -0.71444,2.83732 -3.31068,3.35495 -5.79745,1.15588 -0.32742,-0.28954 -0.59531,-0.39019 -0.59531,-0.22366 0,0.16653 0.35899,0.56819 0.79775,0.89258 0.48046,0.35522 0.90552,0.99004 1.06872,1.59613 0.30373,1.12796 1.31318,1.95811 2.03409,1.67279 1.17467,-0.46491 1.98263,-0.40574 1.84127,0.13484 -0.11807,0.4515 1.4e-4,0.5202 0.89509,0.5202 0.88781,0 1.11422,0.12856 1.62888,0.9249 0.76915,1.19012 1.09087,1.28381 4.48843,1.30701 2.45721,0.0168 2.74658,-0.0256 2.18475,-0.31996 -0.46003,-0.24103 -0.69646,-0.64482 -0.81626,-1.39404 -0.13382,-0.83683 -0.24114,-0.99457 -0.51952,-0.76354 -0.19297,0.16016 -0.50188,0.19785 -0.68647,0.0838 -0.18459,-0.11408 -0.97384,-0.29403 -1.7539,-0.39989 -0.84005,-0.114 -1.55036,-0.37308 -1.74222,-0.63547 -0.2756,-0.37689 -0.47951,-0.3998 -1.36654,-0.15353 -1.33368,0.37028 -1.96865,0.3693 -1.96865,-0.003 0,-0.16513 0.23328,-0.23444 0.5289,-0.15713 0.2909,0.0761 0.60012,0.0231 0.68716,-0.11776 0.087,-0.14083 0.44648,-0.36564 0.79876,-0.49958 0.35227,-0.13393 0.75448,-0.54331 0.89379,-0.90972 0.27679,-0.728 0.53182,-0.8241 0.98484,-0.37108 0.2171,0.2171 0.53495,0.11218 1.20237,-0.39688 0.49899,-0.3806 1.04903,-0.69199 1.22231,-0.69199 0.21293,0 0.23912,-0.15011 0.0808,-0.46302 -0.26848,-0.53059 -0.25129,-2.43505 0.026,-2.88376 0.10238,-0.16565 0.0218,-0.70078 -0.17899,-1.18918 -0.46188,-1.1233 -0.69064,-4.46146 -0.30536,-4.45583 1.05831,0.0155 1.98385,1.91999 2.80259,5.76702 0.13354,0.62747 0.42361,1.67343 0.6446,2.32435 0.52046,1.53296 0.52477,1.51551 -0.32579,1.31794 -0.53984,-0.1254 -0.62519,-0.0997 -0.33073,0.0995 0.21828,0.14772 0.65974,0.2704 0.98103,0.27262 0.64835,0.005 1.92938,1.8896 1.92938,2.83918 0,0.29681 0.17145,0.68195 0.38099,0.85586 0.20955,0.17391 0.42074,0.57544 0.46931,0.89229 0.0486,0.31686 0.23002,0.54776 0.40323,0.51313 0.17321,-0.0346 0.25157,0.10215 0.17412,0.30397 -0.0774,0.20181 -0.0133,0.44573 0.14253,0.54205 0.65118,0.40244 -0.23057,1.24541 -1.12555,1.07605 -0.8415,-0.15923 -0.8415,-0.15923 -0.18004,0.23823 0.3638,0.2186 0.81879,0.40168 1.01108,0.40684 0.75383,0.0202 1.13993,0.81932 1.24979,2.58668 0.12294,1.97771 0.60108,4.30186 0.88501,4.30186 0.23274,0 0.15137,2.23398 -0.0959,2.63414 -0.1022,0.16537 -0.0905,0.92026 0.026,1.67753 0.45003,2.92526 0.14602,3.31907 -1.31744,1.70659 l -1.01964,-1.12347 0.94655,1.34891 c 0.86896,1.23834 0.92958,1.44437 0.73951,2.51354 l -0.20704,1.16464 -0.84013,-0.88336 c -0.46207,-0.48584 -0.98747,-0.83423 -1.16756,-0.7742 -0.33329,0.11109 0.55088,1.11823 1.45518,1.65756 0.71294,0.42519 -0.13732,3.83283 -0.95936,3.84484 -0.54023,0.008 -0.53125,0.0401 0.15389,0.55123 0.82438,0.61505 0.89665,1.09438 0.3291,2.18261 -0.21738,0.41681 -0.39524,0.92283 -0.39524,1.12448 0,0.60161 -1.59586,-0.24685 -3.30729,-1.75836 -0.91706,-0.80994 -3.84224,-2.4748 -3.82456,-2.17675 0.007,0.11038 1.30245,1.14722 2.87979,2.30409 1.57734,1.15686 3.0197,2.34647 3.20524,2.64358 0.42338,0.67794 0.59162,1.9999 0.25451,1.9999 -0.13904,0 -0.50863,0.56555 -0.82131,1.25677 -0.31268,0.69123 -0.72304,1.34676 -0.9119,1.45674 -0.18887,0.10999 -0.54127,0.79573 -0.78312,1.52388 -0.24185,0.72814 -0.64337,1.43288 -0.89226,1.56609 -0.24889,0.1332 -0.73555,0.84644 -1.08146,1.58498 -0.34591,0.73854 -0.77443,1.34279 -0.95227,1.34279 -0.3863,0 -0.64454,0.59513 -0.64454,1.48535 0,0.35657 -0.16955,1.05411 -0.37679,1.55009 -0.35875,0.85861 -0.34925,0.90714 0.19844,1.0138 0.51806,0.1009 0.50949,0.11602 -0.0862,0.15212 -1.11039,0.0673 -1.41936,0.45161 -1.56784,1.95021 -0.0377,0.38029 -0.54883,0.19547 -0.54883,-0.19844 0,-0.47721 -0.0521,-0.48234 -0.91359,-0.0898 -0.76672,0.34934 -0.95797,1.17314 -0.21089,0.9084 0.27808,-0.0986 0.20177,0.0404 -0.19104,0.34787 -0.35973,0.28157 -0.77059,0.43994 -0.91301,0.35191 -0.15578,-0.0963 -0.13237,-0.20223 0.0588,-0.26593 0.17473,-0.0582 0.3177,-0.21923 0.3177,-0.35775 0,-0.14779 -0.2217,-0.13319 -0.53658,0.0353 -0.29512,0.15794 -0.46668,0.40025 -0.38126,0.53847 0.0854,0.13822 0.033,0.25131 -0.11658,0.25131 -0.14954,0 -0.20336,0.17859 -0.1196,0.39688 0.0937,0.24407 -5e-4,0.39687 -0.24458,0.39687 -0.21828,0 -0.47062,0.19219 -0.56076,0.42709 -0.10873,0.28336 -0.37727,0.3863 -0.7979,0.30589 -0.43484,-0.0831 -0.59388,-0.0166 -0.50626,0.21172 0.0733,0.1911 -0.38824,0.63531 -1.08355,1.04279 -0.66622,0.39043 -1.44895,1.01199 -1.73941,1.38125 -0.29046,0.36925 -0.52811,0.53625 -0.52811,0.37111 0,-0.16515 -0.13295,-0.30027 -0.29544,-0.30027 -0.16249,0 -0.23849,0.21777 -0.16889,0.48392 0.0696,0.26615 -0.0186,0.68246 -0.19608,0.92512 -0.38984,0.53313 -1.98542,0.91576 -1.98542,0.47612 0,-0.16371 -0.18562,-0.29766 -0.41249,-0.29766 -0.22687,0 -0.34484,0.10947 -0.26215,0.24326 0.19176,0.31027 -0.56651,1.07966 -1.06405,1.07966 -0.61682,0 -0.43025,0.52239 0.28348,0.79375 0.3638,0.13832 0.6776,0.40326 0.69732,0.58877 0.11865,1.11601 0.10686,2.55491 -0.0194,2.3638 -0.24678,-0.37363 -1.44919,-0.56631 -1.87077,-0.29978 -0.33491,0.21174 -0.32456,0.25014 0.0683,0.25358 0.78245,0.007 0.51293,0.4793 -0.39687,0.69569 -1.06085,0.25232 -1.03767,0.24566 -1.52136,0.43759 -0.54616,0.21673 -2.11126,0.34441 -2.91041,0.23743 z m -0.16891,-1.23437 c 0.0838,-0.21828 0.0497,-0.39687 -0.0757,-0.39687 -0.12539,0 -0.29651,0.17859 -0.38027,0.39687 -0.0838,0.21828 -0.0497,0.39688 0.0757,0.39688 0.12538,0 0.2965,-0.1786 0.38026,-0.39688 z m -1.15401,-1.04272 c 0,-0.20969 -0.11186,-0.45039 -0.24857,-0.53488 -0.13671,-0.0845 -0.23044,0.0871 -0.20828,0.38126 0.0455,0.60418 0.45685,0.7425 0.45685,0.15362 z m -1.5875,-1.44715 c 0,-0.22041 -2.65845,-1.68675 -2.80051,-1.54469 -0.0543,0.0543 0.37178,0.38901 0.94688,0.74375 0.57511,0.35474 1.04885,0.79007 1.05276,0.9674 0.007,0.33075 0.80087,0.16581 0.80087,-0.16646 z m 8.46667,0.26922 c 0,-0.12995 -0.1786,-0.30481 -0.39688,-0.38857 -0.24175,-0.0928 -0.39687,-4.2e-4 -0.39687,0.23627 0,0.21372 0.17859,0.38858 0.39687,0.38858 0.21828,0 0.39688,-0.10633 0.39688,-0.23628 z m 0.39687,-2.40956 c 0.0899,-0.14552 0.0374,-0.26458 -0.11667,-0.26458 -0.15411,0 -0.2802,0.11906 -0.2802,0.26458 0,0.14552 0.0525,0.26458 0.11667,0.26458 0.0642,0 0.19027,-0.11906 0.2802,-0.26458 z m -13.09687,-1.68936 c 0,-0.056 -0.32742,-0.31258 -0.72761,-0.57013 -0.7276,-0.46826 -0.7276,-0.46826 -0.22357,0.10187 0.44602,0.50451 0.95118,0.7532 0.95118,0.46826 z m 16.88223,-1.36035 c -0.0815,-0.0815 -0.2294,0.0654 -0.32876,0.32632 -0.14359,0.37708 -0.1132,0.40748 0.14811,0.14811 0.18082,-0.17947 0.26211,-0.39297 0.18065,-0.47443 z m -19.26348,0.048 c 0,-0.0502 -0.26789,-0.3181 -0.59532,-0.59531 -0.59531,-0.50403 -0.59531,-0.50403 -0.0913,0.0913 0.47366,0.55945 0.6866,0.71576 0.6866,0.50403 z m -4.74927,-3.47241 c 0.13491,0.0834 0.17438,-0.0332 0.0877,-0.25902 -0.17007,-0.44321 -0.63012,-0.56563 -0.63012,-0.16768 0,0.13362 -0.0685,0.46105 -0.15227,0.72761 -0.14363,0.45716 -0.1352,0.45808 0.14855,0.0161 0.16546,-0.25772 0.41121,-0.40036 0.54612,-0.31698 z m 29.29411,0.12411 c 0.18176,-0.29104 0.23422,-0.52917 0.11657,-0.52917 -0.27564,0 -0.84891,0.57176 -0.84891,0.84667 0,0.38984 0.3985,0.21707 0.73234,-0.3175 z m -31.42401,-0.91043 c 0,-0.0642 -0.11905,-0.19026 -0.26457,-0.28019 -0.14552,-0.0899 -0.26459,-0.0374 -0.26459,0.11667 0,0.15411 0.11907,0.2802 0.26459,0.2802 0.14552,0 0.26457,-0.0525 0.26457,-0.11668 z m -3.70416,-4.23333 c 0,-0.0642 -0.11906,-0.19026 -0.26458,-0.2802 -0.14552,-0.0899 -0.26458,-0.0374 -0.26458,0.11668 0,0.15411 0.11906,0.2802 0.26458,0.2802 0.14552,0 0.26458,-0.0525 0.26458,-0.11668 z m -2.30063,-3.07344 c 0.11679,-0.44661 0.0749,-0.48828 -0.23372,-0.23219 -0.42091,0.34932 -0.49921,0.77647 -0.14234,0.77647 0.12855,0 0.29778,-0.24493 0.37606,-0.54428 z m 0.92662,-1.97626 c -0.0815,-0.0815 -0.22941,0.0654 -0.32877,0.32632 -0.14358,0.37708 -0.11319,0.40747 0.14812,0.14811 0.18082,-0.17947 0.26211,-0.39297 0.18065,-0.47443 z m -3.01398,-7.53944 c 0.39427,-0.72441 0.59036,-1.3171 0.43576,-1.3171 -0.15461,0 -0.2811,0.1071 -0.2811,0.23799 0,0.1309 -0.41672,0.85724 -0.92604,1.61409 -0.50932,0.75685 -0.92604,1.44211 -0.92604,1.52281 0,0.39655 1.06296,-0.89208 1.69742,-2.05779 z m -1.96201,0.006 c 0,-0.14552 -0.11906,-0.26459 -0.26458,-0.26459 -0.14553,0 -0.26459,0.11907 -0.26459,0.26459 0,0.14552 0.11906,0.26458 0.26459,0.26458 0.14552,0 0.26458,-0.11906 0.26458,-0.26458 z m 0.26459,-3.69148 c 0,-0.36303 -0.7625,-0.5419 -0.95846,-0.22484 -0.10999,0.17797 -0.0611,0.21944 0.12382,0.10512 0.18282,-0.11299 0.30547,-0.0169 0.30547,0.23932 0,0.23546 0.11906,0.35452 0.26458,0.26458 0.14552,-0.0899 0.26459,-0.26282 0.26459,-0.38418 z m 53.18124,-2.9138 c 0,-0.1404 -0.26789,-0.39585 -0.59532,-0.56767 -0.59212,-0.31071 -0.59261,-0.30934 -0.0913,0.25528 0.55995,0.63064 0.6866,0.68827 0.6866,0.31239 z m -19.68999,-3.79888 c 1.2633,-1.14373 1.2633,-1.14373 1.28237,-3.10885 l 0.0191,-1.96512 h -1.18814 -1.18814 l -0.22342,1.40361 c -0.27002,1.69633 -0.80257,1.71672 -0.92427,0.0354 -0.0943,-1.30336 -0.34434,-1.56135 -1.51869,-1.56723 -1.4903,-0.007 -1.85898,0.51296 -1.49143,2.1053 0.17495,0.7579 0.25114,1.48631 0.16932,1.6187 -0.0818,0.13238 -0.0209,0.2407 0.13533,0.2407 0.15625,0 0.51512,0.3799 0.7975,0.84423 1.11425,1.83224 2.40534,1.95517 4.13049,0.39328 z m 19.03772,-1.91362 c -0.40125,-0.37187 -0.79491,-0.61075 -0.8748,-0.53085 -0.17563,0.17563 0.97076,1.20696 1.3416,1.20696 0.14451,0 -0.0656,-0.30425 -0.4668,-0.67611 z m -3.94927,-20.13614 c -0.88477,-0.76104 -1.74846,-0.8184 -1.74846,-0.11612 0,0.36062 0.28068,0.57305 0.99218,0.75094 1.34746,0.33687 1.61999,0.10811 0.75628,-0.63482 z m -27.94221,61.22545 c 0,-0.0373 -0.11075,-0.45406 -0.24612,-0.92604 -0.15176,-0.52917 -0.15176,-0.85815 0,-0.85815 0.13537,0 0.24612,0.29765 0.24612,0.66146 0,0.41157 0.14993,0.66146 0.39687,0.66146 0.21828,0 0.39688,0.11906 0.39688,0.26458 0,0.14552 -0.1786,0.26458 -0.39688,0.26458 -0.21828,0 -0.39687,-0.0305 -0.39687,-0.0679 z m 1.05833,-0.19669 c 0,-0.14552 0.18562,-0.26458 0.41249,-0.26458 0.22687,0 0.33891,0.11906 0.24897,0.26458 -0.0899,0.14552 -0.27556,0.26458 -0.41249,0.26458 -0.13693,0 -0.24897,-0.11906 -0.24897,-0.26458 z m 37.57083,-10.49862 c -0.21828,-0.0759 -1.11844,-0.41844 -2.00036,-0.76121 -0.89487,-0.34779 -1.85952,-0.55626 -2.18282,-0.47172 -0.32636,0.0854 -0.57932,0.0293 -0.57932,-0.12833 0,-0.41905 0.51405,-0.6566 1.36832,-0.63231 0.67167,0.0191 0.75412,-0.0621 0.68948,-0.67902 -0.0516,-0.49225 0.0643,-0.72896 0.3896,-0.79566 0.37015,-0.0759 0.46302,0.0889 0.46302,0.82176 0,2.08719 3.77544,2.45273 5.75004,0.55671 l 1.26142,-1.21121 -0.73182,-0.63181 c -1.3681,-1.18113 -4.91874,-1.51987 -6.58482,-0.6282 -0.75226,0.40259 -1.12106,-0.0276 -1.13715,-1.32653 -0.0112,-0.90483 -0.12339,-1.09235 -0.86583,-1.44727 -0.50883,-0.24325 -0.92069,-0.67767 -1.02087,-1.0768 -0.0923,-0.36798 -0.26019,-0.66905 -0.37297,-0.66905 -1.48859,0 0.41464,-3.98369 2.08554,-4.36531 0.47185,-0.10776 0.8439,-0.48876 1.17523,-1.20348 0.58911,-1.27077 0.72072,-1.28173 1.9429,-0.16168 1.14588,1.05012 0.79027,1.56851 -0.39298,0.57286 -0.99454,-0.83685 -1.10907,-0.83019 -1.10702,0.0644 0.001,0.5304 0.21635,0.84976 0.79375,1.17832 0.43565,0.24789 0.79208,0.63485 0.79208,0.8599 0,0.52472 -0.68914,0.53426 -0.88943,0.0123 -0.35579,-0.92718 -0.69807,-0.30232 -0.69807,1.27442 v 1.67129 l 1.14067,-0.26465 c 1.20447,-0.27945 1.52817,-1.81639 0.70608,-3.35248 -0.21869,-0.40862 -0.19334,-0.5192 0.11901,-0.5192 0.59413,0 0.94466,0.86662 0.94466,2.33555 0,1.40922 0.2126,1.6332 1.55027,1.6332 2.17839,0 3.08337,2.67638 1.11611,3.30077 -0.31646,0.10044 -0.4649,0.31655 -0.3762,0.54771 0.0806,0.21 0.25203,0.3166 0.381,0.23689 0.35315,-0.21826 1.54433,0.74522 1.55384,1.25682 0.005,0.24608 0.1162,0.51409 0.24805,0.59558 0.67011,0.41415 -0.9693,2.33769 -2.80203,3.28767 -0.58974,0.30568 -2.01484,0.36823 -2.72938,0.11979 z m 0.69291,-6.05082 c 3.54601,-0.61838 4.30958,-1.38053 2.32919,-2.32491 -1.22349,-0.58345 -2.37622,-0.56316 -2.80866,0.0494 -0.19015,0.26937 -0.71755,0.68132 -1.17199,0.91545 -0.7696,0.39648 -1.29103,1.28409 -0.95295,1.62217 0.18353,0.18353 -0.13525,0.21561 2.60441,-0.26214 z m -3.3303,-2.39057 c 0.14296,-0.37602 0.2037,-0.77464 0.13498,-0.88583 -0.0687,-0.1112 -0.14692,-0.93464 -0.17379,-1.82988 -0.0577,-1.9237 -0.54616,-2.15023 -1.84207,-0.85432 -1.1359,1.1359 -0.97987,2.68158 0.38205,3.78478 0.78815,0.63843 1.19671,0.57989 1.49883,-0.21475 z m 1.71135,0.15449 c 0.20695,-0.33486 -0.1433,-0.33486 -0.66146,0 -0.34202,0.22103 -0.33504,0.25704 0.0505,0.26053 0.24608,0.002 0.521,-0.11501 0.61093,-0.26053 z m -9.17773,-0.44524 c 0.19099,-0.0764 0.4192,-0.067 0.50712,0.0209 0.0879,0.0879 -0.0684,0.15046 -0.34727,0.13897 -0.30822,-0.0127 -0.37092,-0.0754 -0.15985,-0.15985 z m -51.01497,-12.51961 c 0,-0.14553 0.11906,-0.26459 0.26458,-0.26459 0.14552,0 0.26459,0.11906 0.26459,0.26459 0,0.14552 -0.11907,0.26458 -0.26459,0.26458 -0.14552,0 -0.26458,-0.11906 -0.26458,-0.26458 z m -0.61937,-2.38125 -0.46888,-0.79375 h 1.20558 c 0.66307,0 1.20559,0.10914 1.20559,0.24253 0,0.37478 -0.61048,0.50593 -1.12448,0.24157 -0.53127,-0.27324 -0.57642,-0.13203 -0.18913,0.59162 0.44697,0.83517 -0.11862,0.58149 -0.62868,-0.28197 z m 15.43603,-0.0663 c 0,-0.46192 1.05477,-2.5111 1.4659,-2.84791 0.32239,-0.26411 0.19572,0.12785 -0.38599,1.19437 -0.88876,1.6295 -1.07991,1.92218 -1.07991,1.65354 z m 2.64583,-0.95401 c 0,-0.3331 1.8824,-2.74176 2.02852,-2.59564 0.12323,0.12323 -1.71394,2.82218 -1.92104,2.82218 -0.0591,0 -0.10748,-0.10195 -0.10748,-0.22654 z m -0.79375,-0.70485 c 0,-0.26926 1.40222,-2.25218 1.51375,-2.14065 0.0624,0.0624 -0.209,0.60057 -0.60304,1.196 -0.67539,1.02058 -0.91071,1.26467 -0.91071,0.94465 z m -18.25624,-0.71354 c 0,-0.11378 0.13891,-0.20688 0.30868,-0.20688 0.16977,0 0.21938,-0.0893 0.11024,-0.19844 -0.10914,-0.10914 -0.32436,-0.19843 -0.47828,-0.19843 -0.15391,0 -0.36361,-0.1786 -0.46599,-0.39688 -0.10239,-0.21828 -0.33415,-0.67985 -0.51504,-1.02571 -0.27411,-0.52411 -0.25893,-0.69878 0.0912,-1.04888 0.38368,-0.38368 0.42005,-0.38269 0.42005,0.0115 0,0.23734 -0.14882,0.49158 -0.33072,0.56498 -0.20903,0.0843 -0.17092,0.14114 0.10356,0.15434 0.26949,0.013 0.59579,-0.38275 0.85989,-1.0428 0.52659,-1.31607 0.53078,-1.46965 0.0287,-1.05298 -0.21828,0.18116 -0.39687,0.51323 -0.39687,0.73795 0,0.22472 -0.0783,0.33023 -0.17409,0.23448 -0.0958,-0.0958 -0.33676,-0.0391 -0.53556,0.1259 -0.51263,0.42544 -0.78686,0.0342 -0.40481,-0.57761 0.43838,-0.70197 0.40289,-1.31447 -0.0762,-1.31447 -0.21828,0 -0.39688,-0.13295 -0.39688,-0.29544 0,-0.1625 0.21506,-0.23921 0.4779,-0.17047 0.42066,0.11 0.47339,-0.0473 0.44024,-1.31305 -0.0624,-2.38119 1.38639,-3.2929 4.99969,-3.14631 2.73256,0.11086 3.87175,-0.0945 3.87175,-0.69785 0,-1.13333 0.68082,-1.43274 2.55892,-1.12539 1.67549,0.2742 2.8779,1.19226 1.56153,1.19226 -0.87601,0 -0.35953,0.44896 0.91607,0.79631 1.81083,0.49311 2.14343,0.93975 0.85429,1.14719 -0.54781,0.0882 -1.47226,0.40391 -2.05435,0.70167 -0.83813,0.42875 -1.49873,0.53164 -3.175,0.49452 -3.34648,-0.0741 -5.17824,1.36864 -1.98437,1.56295 0.65484,0.0398 1.45188,0.20524 1.77119,0.36755 0.54406,0.27655 1.50717,0.21681 3.36136,-0.2085 0.54311,-0.12458 0.71229,-0.0875 0.5797,0.12703 -0.10298,0.16662 -0.38951,0.30294 -0.63674,0.30294 -0.24724,0 -1.00568,0.29607 -1.68543,0.65793 -0.67975,0.36186 -1.86943,0.90306 -2.64373,1.20266 -0.7743,0.2996 -1.79448,0.72336 -2.26707,0.94168 -0.56111,0.25922 -1.18445,0.33595 -1.79652,0.22112 -1.10945,-0.20813 -1.97443,0.39785 -1.97443,1.38325 0,0.34125 -0.13364,0.62045 -0.29698,0.62045 -0.20529,0 -0.19536,0.12244 0.0321,0.39657 0.27937,0.33662 0.22428,0.38789 -0.36448,0.33917 -0.38148,-0.0316 -0.6936,-0.1505 -0.6936,-0.26428 z m 1.45521,-0.20685 c -0.0899,-0.14552 -0.0445,-0.26458 0.10106,-0.26458 0.14552,0 0.33817,0.11906 0.4281,0.26458 0.0899,0.14552 0.0445,0.26459 -0.10106,0.26459 -0.14552,0 -0.33817,-0.11907 -0.4281,-0.26459 z m 6.21771,-1.57107 c 0,-0.19525 2.51071,-1.97714 3.9026,-2.76974 1.01615,-0.57864 0.10957,0.43466 -1.05833,1.18291 -0.76398,0.48948 -1.71648,1.10084 -2.11667,1.35858 -0.40018,0.25774 -0.7276,0.36046 -0.7276,0.22825 z m 6.01926,-4.95414 c 0.1819,-0.0734 0.47956,-0.0734 0.66146,0 0.1819,0.0734 0.0331,0.13345 -0.33073,0.13345 -0.3638,0 -0.51263,-0.06 -0.33073,-0.13345 z m 10.64948,-0.35394 c 0,-0.14552 0.11906,-0.26458 0.26458,-0.26458 0.14552,0 0.26459,0.11906 0.26459,0.26458 0,0.14553 -0.11907,0.26459 -0.26459,0.26459 -0.14552,0 -0.26458,-0.11906 -0.26458,-0.26459 z m -26.07515,-2.31508 c -0.11143,-0.25466 -0.17883,-0.56692 -0.14978,-0.69392 0.0291,-0.12699 -0.10631,-0.16983 -0.3008,-0.0952 -0.642659,0.24661 -0.513125,-1.29452 0.19672,-2.34053 0.70168,-1.03399 0.86126,-1.5873 0.37027,-1.28385 -0.16179,0.1 -0.39809,0.0177 -0.52512,-0.18282 -0.16724,-0.26404 -0.23207,-0.2734 -0.235,-0.0339 -0.002,0.1819 -0.246364,0.33073 -0.542526,0.33073 -0.456487,0 -0.495355,-0.0806 -0.255274,-0.52917 0.162567,-0.30376 0.55399,-0.52916 0.91891,-0.52916 0.4726,0 0.62547,-0.13577 0.59584,-0.52917 -0.0219,-0.29104 -0.13359,-0.52917 -0.24814,-0.52917 -0.11455,0 -0.20828,-0.12708 -0.20828,-0.28241 0,-0.15608 0.2227,-0.21173 0.49784,-0.12441 0.31418,0.0997 0.55513,0.009 0.65315,-0.24675 0.0854,-0.22262 0.0202,-0.40476 -0.14506,-0.40476 -0.44242,0 -0.0129,-0.35287 0.52082,-0.42785 1.35288,-0.19007 2.31147,-0.4525 3.31207,-0.90675 0.61287,-0.27822 1.44876,-0.50848 1.85753,-0.51167 0.42803,-0.003 0.67372,-0.11826 0.57934,-0.27097 -0.25113,-0.40634 -2.24094,-0.006 -3.45616,0.69546 -0.7657,0.44195 -1.15701,0.53888 -1.3592,0.33669 -0.20219,-0.20219 -0.33511,-0.20113 -0.4617,0.004 -0.0978,0.1582 -0.30826,0.28764 -0.46775,0.28764 -0.15949,0 -0.064,-0.26789 0.21216,-0.59531 0.45361,-0.53779 0.43211,-0.53343 -0.22253,0.0451 -1.14139,1.00874 -1.17342,0.41897 -0.0451,-0.82997 0.85405,-0.94534 0.94323,-1.14443 0.54684,-1.22076 -0.32737,-0.0631 -0.41654,-0.22706 -0.28876,-0.5311 0.10167,-0.24193 0.26816,-0.85659 0.36997,-1.36592 0.10181,-0.50932 0.32918,-1.19388 0.50527,-1.52124 0.21576,-0.40111 0.27369,-1.35016 0.17767,-2.91041 -0.16658,-2.70674 0.17409,-3.43074 1.71786,-3.65084 1.38229,-0.19708 2.12761,0.44918 1.42751,1.23777 -0.36216,0.40795 -0.41357,0.60502 -0.17922,0.68701 0.22805,0.0798 0.25209,0.25798 0.0786,0.58222 -0.19697,0.36804 -0.0842,0.58989 0.53128,1.04491 0.42973,0.31772 0.78134,0.73997 0.78134,0.93832 0,0.40725 0.71604,0.7611 1.08221,0.5348 0.13239,-0.0818 0.2407,-0.27831 0.2407,-0.43663 0,-0.83265 1.84109,-2.49267 3.16412,-2.85294 0.75203,-0.20479 1.43794,-0.48658 1.52423,-0.62621 0.0959,-0.15521 -0.0905,-0.17557 -0.47979,-0.0524 -1.03452,0.32737 -1.93673,0.35836 -2.29033,0.0787 -0.52876,-0.41823 -0.38462,-0.72596 0.34004,-0.72596 0.59758,0 0.6386,-0.0601 0.37596,-0.55086 -0.41411,-0.77378 0.35047,-1.31867 1.7314,-1.2339 0.87214,0.0535 1.07321,0.1697 1.14288,0.66028 0.0465,0.32742 0.25486,0.59531 0.46302,0.59531 0.49266,0 0.4786,0.24457 -0.0475,0.8259 -0.40238,0.44462 -0.36434,0.46775 0.68707,0.4177 2.39352,-0.11393 1.59036,2.28683 -1.12675,3.36801 -1.54486,0.61472 -1.94132,1.41021 -1.02329,2.05322 0.46638,0.32666 0.48943,0.47134 0.2149,1.34846 -0.31013,0.99085 -0.70722,1.31969 -0.70722,0.58567 0,-0.21828 -0.14882,-0.39516 -0.33073,-0.39306 -0.48975,0.006 -1.7765,2.48866 -1.61322,3.11302 0.0764,0.29219 -0.19756,1.39272 -0.60881,2.44564 -0.72332,1.85187 -0.89699,2.0386 -2.32013,2.49446 -0.38662,0.12385 -0.43381,0.23594 -0.19843,0.47132 0.76593,0.76593 0.33158,1.27509 -2.00381,2.34894 -1.27196,0.58486 -2.69276,1.35332 -3.15735,1.70768 -0.99889,0.76189 -1.54202,0.81599 -1.81976,0.18127 z m 5.63491,-12.05484 c 0.25531,-0.28799 -0.27351,-3e-4 -1.17518,0.63931 -0.90166,0.63961 -1.6458,1.25962 -1.65364,1.3778 -0.018,0.27091 2.20679,-1.31548 2.82882,-2.01711 z m 19.5142,11.4595 c 0.0899,-0.14552 0.21602,-0.26459 0.2802,-0.26459 0.0642,0 0.11667,0.11907 0.11667,0.26459 0,0.14552 -0.12609,0.26458 -0.28019,0.26458 -0.15411,0 -0.20662,-0.11906 -0.11668,-0.26458 z m -26.904813,-0.44533 c 0.190996,-0.0764 0.419199,-0.067 0.507118,0.0209 0.08792,0.0879 -0.06835,0.15045 -0.347266,0.13897 -0.308224,-0.0127 -0.370919,-0.0754 -0.159852,-0.15986 z m 17.391113,-1.12386 c -0.18073,-0.29243 0.23664,-0.60819 0.48096,-0.36387 0.25156,0.25156 0.20468,0.61017 -0.0798,0.61017 -0.13693,0 -0.31747,-0.11083 -0.40119,-0.2463 z m -16.770561,-1.3412 c 0,-0.3638 0.06005,-0.51263 0.133452,-0.33073 0.0734,0.1819 0.0734,0.47956 0,0.66146 -0.0734,0.1819 -0.133452,0.0331 -0.133452,-0.33073 z m 0.575581,-0.38524 c 0,-0.21188 0.10116,-0.32271 0.22481,-0.2463 0.12364,0.0764 0.1563,0.24977 0.0726,0.38524 -0.21395,0.34618 -0.29739,0.3072 -0.29739,-0.13894 z m 23.56352,-1.0488 c -0.23455,-0.61123 1.00394,-2.26313 1.69953,-2.26685 1.37361,-0.007 2.22265,1.32226 1.30552,2.04444 -0.59707,0.47016 -2.8461,0.63662 -3.00505,0.22241 z m -2.48505,-0.5222 c 0,-0.41276 -0.23663,-0.43973 -2.4474,-0.27893 -1.68012,0.12221 -2.82066,0.0726 -3.63801,-0.15839 -1.34248,-0.3793 -1.49374,-0.28789 1.70943,-1.03307 1.65159,-0.38422 2.81529,-1.33587 1.63354,-1.33587 -0.58289,0 -1.79992,-1.09005 -1.65082,-1.47859 0.21622,-0.56346 -0.23779,-0.66978 -1.57775,-0.36948 -0.68362,0.1532 -1.28862,0.23288 -1.34443,0.17706 -0.19333,-0.19333 2.60449,-1.50399 3.21051,-1.50399 0.3348,0 0.67726,-0.17859 0.76103,-0.39688 0.0838,-0.21828 0.39415,-0.39687 0.68976,-0.39687 0.29561,0 0.53747,-0.11906 0.53747,-0.26458 0,-0.14552 -0.50601,-0.26514 -1.12448,-0.26581 -1.18241,-0.001 -2.99586,-1.27497 -2.76633,-1.94294 0.37349,-1.08699 5.09713,0.0577 5.70397,1.38226 0.42465,0.92689 0.53823,1.04703 0.46868,0.49576 -0.10857,-0.86063 1.80792,-1.14503 2.12623,-0.31553 0.087,0.22665 0.32825,0.3468 0.53617,0.26702 0.20792,-0.0798 0.83857,0.0899 1.40145,0.37703 l 1.0234,0.52211 0.68108,-0.80942 c 0.95276,-1.13229 0.88531,-1.56257 -0.24496,-1.56257 -1.10009,0 -1.14644,-0.14735 -0.26458,-0.84102 0.73946,-0.58166 0.85456,-1.31517 0.28106,-1.79114 -0.30923,-0.25663 -0.45303,-0.17607 -0.76861,0.43063 -1.025,1.97053 -2.96893,2.776 -4.77332,1.97783 -0.6495,-0.2873 -1.24328,-0.45999 -1.31952,-0.38375 -0.65725,0.65725 -3.0769,-2.62765 -3.0769,-4.17718 0,-6.39655 7.86475,-7.01858 11.24983,-0.88975 0.55831,1.01086 1.35113,2.33563 1.76181,2.94393 1.49839,2.21942 0.94438,3.80742 -2.1356,6.12148 -1.58996,1.19458 -4.34927,0.99632 -3.57477,-0.25685 0.0777,-0.12567 0.0572,-0.49337 -0.0456,-0.8171 -0.18681,-0.58859 -0.18681,-0.58859 -0.41961,0.0407 -0.33385,0.90249 -0.0725,1.47077 1.16266,2.52801 0.59871,0.51248 1.03822,0.97277 0.97669,1.02288 -0.0615,0.0501 -0.67742,0.35912 -1.36864,0.68669 -0.69123,0.32757 -1.25677,0.74324 -1.25677,0.92371 0,0.18048 -0.2619,0.31868 -0.582,0.30713 -0.35287,-0.0127 -0.70192,0.21519 -0.88663,0.57899 -0.43305,0.85293 -0.64804,1.01431 -0.64804,0.48647 z m -1.61602,-10.932 c -0.27536,-0.54009 -0.50065,-1.1354 -0.50065,-1.32291 0,-0.18752 -0.11906,-0.34093 -0.26458,-0.34093 -0.42848,0 -0.30234,0.86087 0.26168,1.78593 0.72151,1.18336 1.11986,1.08677 0.50355,-0.12209 z m 8.59917,10.35302 c 0.0883,-0.23018 0.1606,-0.46831 0.1606,-0.52917 0,-0.0609 0.11906,-0.11065 0.26458,-0.11065 0.14552,0 0.26459,0.23813 0.26459,0.52917 0,0.30964 -0.17639,0.52916 -0.42519,0.52916 -0.279,0 -0.36997,-0.14388 -0.26458,-0.41851 z m 0.1606,-1.16899 c 0,-0.14552 0.12609,-0.26458 0.2802,-0.26458 0.15411,0 0.20661,0.11906 0.11668,0.26458 -0.0899,0.14552 -0.21603,0.26459 -0.2802,0.26459 -0.0642,0 -0.11668,-0.11907 -0.11668,-0.26459 z m 9.26042,-0.79375 c 0,-0.43656 0.11906,-0.79375 0.26458,-0.79375 0.14552,0 0.26458,0.35719 0.26458,0.79375 0,0.43657 -0.11906,0.79375 -0.26458,0.79375 -0.14552,0 -0.26458,-0.35718 -0.26458,-0.79375 z m 13.16302,-3.58926 c -1.1616,-0.60467 -1.25614,-0.72896 -1.24839,-1.64133 l 0.008,-0.98712 0.54266,0.72735 c 0.50905,0.68229 0.63102,0.71696 1.96901,0.5597 1.37732,-0.16187 1.43587,-0.14257 1.7036,0.56161 0.5813,1.52894 -0.82702,1.89805 -2.97526,0.77979 z m -14.47611,-4.71925 c -0.34246,-0.90075 -0.35177,-1.66661 -0.0227,-1.86997 0.3976,-0.24573 0.96258,1.92631 0.59633,2.29256 -0.22251,0.22251 -0.36949,0.11422 -0.57359,-0.42259 z m -28.8494,-2.5111 c 0,-0.57966 0.75901,-0.96263 1.14428,-0.57736 0.173,0.173 0.14696,0.40071 -0.0766,0.67013 -0.46788,0.56376 -1.06764,0.51164 -1.06764,-0.0928 z m 25.94184,-0.67447 c -0.18001,-0.21691 -0.27646,-0.54689 -0.21432,-0.7333 0.0715,-0.21445 0.23429,-0.11222 0.44332,0.27835 0.38896,0.72678 0.24083,1.02106 -0.229,0.45495 z m 3.47255,-0.9867 c -0.54325,-0.661 -0.56453,-0.76894 -0.18065,-0.91625 0.59105,-0.22681 0.98849,0.23069 0.88329,1.01675 l -0.0868,0.64876 z m -4.54357,-0.76398 c 0,-0.15411 0.11906,-0.20661 0.26458,-0.11668 0.14552,0.0899 0.26459,0.21603 0.26459,0.2802 0,0.0642 -0.11907,0.11668 -0.26459,0.11668 -0.14552,0 -0.26458,-0.12609 -0.26458,-0.2802 z m 1.76389,0.10381 c -0.39623,-0.39623 -0.19431,-0.96161 0.22049,-0.61736 0.21828,0.18116 0.39687,0.43386 0.39687,0.56156 0,0.27398 -0.36609,0.30707 -0.61736,0.0558 z m -30.22491,-0.55122 c -0.7034,-1.57167 -0.99941,-8.79739 -0.3604,-8.79739 0.13553,0 0.24643,0.24287 0.24643,0.53971 0,0.29683 0.24568,1.02128 0.54596,1.60987 0.30027,0.5886 0.58574,1.7374 0.63437,2.55289 0.0613,1.02824 0.22951,1.5859 0.54877,1.81934 0.40613,0.29697 0.41968,0.43913 0.11503,1.20689 -0.62726,1.58079 -1.31175,2.00359 -1.73016,1.06869 z m 31.01866,-0.50711 c -0.097,-0.097 -0.17639,-0.60416 -0.17639,-1.12698 0,-0.67888 -0.15868,-1.04969 -0.55515,-1.29729 -0.43899,-0.27416 -0.52412,-0.52275 -0.40685,-1.18813 0.1118,-0.63432 -0.002,-1.02493 -0.46131,-1.587 l -0.60961,-0.74558 -0.47525,1.53933 c -0.6111,1.97938 -0.68798,2.0979 -1.04454,1.61028 -0.16332,-0.22335 -0.52228,-0.44975 -0.79769,-0.50311 -0.31168,-0.0604 -0.5213,-0.34676 -0.55519,-0.75847 -0.0758,-0.92162 0.35729,-1.66345 0.85886,-1.47098 0.63988,0.24555 0.20549,-1.45963 -0.52255,-2.05125 -0.84544,-0.68703 -2.14149,-1.50271 -2.38953,-1.50386 -0.69857,-0.003 -1.34507,3.97467 -0.70979,4.3673 0.14789,0.0914 0.2004,0.27702 0.11668,0.41249 -0.0837,0.13547 -0.0261,0.2463 0.12797,0.2463 0.15411,0 0.2802,0.23813 0.2802,0.52917 0,1.46987 -2.24517,-0.0148 -3.40083,-2.24896 -0.99068,-1.91518 -0.98873,-1.91383 -1.74461,-1.20372 -0.77038,0.72374 -0.854,1.54606 -0.27172,2.67207 0.22201,0.42933 0.37084,0.78977 0.33073,0.80097 -0.13728,0.0383 -1.65976,0.21922 -2.96931,0.3528 -0.71987,0.0734 -1.63778,0.3767 -2.0398,0.67393 -0.86266,0.63778 -1.36395,0.68185 -1.79862,0.1581 -0.47017,-0.56653 -0.22848,-1.56516 0.45093,-1.86324 0.32742,-0.14365 0.59531,-0.35201 0.59531,-0.46303 0,-0.11101 0.2311,-0.20184 0.51356,-0.20184 0.78294,0 0.92561,-0.50358 0.32412,-1.14406 -0.75388,-0.80274 -0.51604,-2.62304 0.44109,-3.37592 0.51146,-0.40231 0.67099,-0.76116 0.65105,-1.46447 -0.0329,-1.16106 -0.24504,-1.39347 -0.70179,-0.76883 -0.49286,0.67403 -0.96344,0.28183 -0.96344,-0.80296 0,-1.85227 1.63121,-2.54075 2.3964,-1.01144 0.41202,0.82348 0.41202,0.82348 1.04315,0.31242 0.35633,-0.28854 0.85635,-0.45216 1.14839,-0.37578 0.2845,0.0744 0.98427,-0.10298 1.55504,-0.39416 1.14135,-0.58228 2.64919,-0.26488 4.1453,0.87256 0.34705,0.26385 0.77615,0.47972 0.95355,0.47972 0.85742,0 4.10042,3.79569 4.1226,4.82519 0.015,0.69818 0.0581,0.76215 0.22504,0.33437 0.46299,-1.18636 -0.76288,-3.54914 -2.1366,-4.11815 -0.75333,-0.31204 -1.22868,-1.27933 -0.89446,-1.82012 0.1086,-0.17572 -0.16505,-0.27962 -0.73644,-0.27962 -0.75072,0 -2.06645,-0.785 -1.33718,-0.7978 0.12696,-0.002 0.0522,-0.13252 -0.16604,-0.28954 -0.31114,-0.22382 -0.28256,-0.23723 0.13229,-0.0621 0.98993,0.41792 4.57993,0.16237 5.77214,-0.41087 1.16164,-0.55854 7.45703,-0.89433 7.45703,-0.39774 0,0.46396 -1.35145,0.90716 -2.38125,0.78092 -4.14495,-0.5081 -4.10291,-0.50841 -4.84295,0.0361 -0.39232,0.28865 -1.04073,0.60621 -1.44091,0.70568 -0.87965,0.21866 -0.92178,0.53394 -0.14414,1.07862 0.55374,0.38786 0.6351,0.35493 1.59732,-0.64645 1.18567,-1.23393 1.15285,-1.22827 2.71677,-0.46846 0.99775,0.48474 1.29714,0.53071 1.72328,0.26458 0.80469,-0.50254 1.09725,-0.38447 1.00487,0.40552 -0.10448,0.89356 0.90041,1.08093 1.06425,0.19844 0.21844,-1.1766 1.09963,-1.61062 1.09963,-0.54162 0,0.76209 0.51708,1.99682 0.83622,1.99682 0.5102,0 0.16249,0.87816 -0.63778,1.61074 -0.67158,0.61477 -0.78005,0.8368 -0.49527,1.01384 0.20054,0.12467 0.29632,0.3372 0.21284,0.47228 -0.0835,0.13508 0.19426,0.76831 0.61721,1.40719 l 0.76901,1.16159 -0.58497,1.05035 c -0.78966,1.41789 -1.24643,1.52823 -1.24643,0.30109 0,-1.57769 -0.76864,-3.51328 -1.68505,-4.24325 -0.45567,-0.36297 -1.01707,-0.83791 -1.24756,-1.05543 -0.23049,-0.21751 -0.48516,-0.39548 -0.56595,-0.39548 -0.20074,0 -0.0395,4.18987 0.19603,5.09475 0.11617,0.44626 0.0676,0.8764 -0.12526,1.10875 -0.38002,0.4579 -1.15779,0.22743 -0.96122,-0.28483 0.0766,-0.19967 -0.15466,-0.79623 -0.51396,-1.32569 -0.68393,-1.00783 -0.82203,-0.82212 -0.40719,0.54761 0.71387,2.35715 0.78224,2.9108 0.51391,4.16197 -0.26315,1.22702 -0.46402,1.48856 -0.84819,1.10439 z m -0.22847,-8.81945 c -0.0333,-0.43656 -0.16695,-0.79375 -0.29709,-0.79375 -0.13014,0 -0.16434,0.18833 -0.076,0.41852 0.0883,0.23018 0.1606,0.58737 0.1606,0.79375 0,0.20638 0.0614,0.37523 0.13649,0.37523 0.0751,0 0.10928,-0.35719 0.076,-0.79375 z m -0.29635,-1.63711 c -0.0845,-0.21107 -0.14715,-0.14837 -0.15985,0.15985 -0.0115,0.27892 0.0511,0.43519 0.13897,0.34727 0.0879,-0.0879 0.0973,-0.31612 0.0209,-0.50712 z m -3.35574,10.00272 c 0,-0.21828 0.11907,-0.47046 0.26459,-0.5604 0.14552,-0.0899 0.26458,0.0151 0.26458,0.23335 0,0.21829 -0.11906,0.47046 -0.26458,0.5604 -0.14552,0.0899 -0.26459,-0.0151 -0.26459,-0.23335 z m 6.26732,-0.0698 c -0.40126,-0.40126 0.33292,-3.59425 0.9082,-3.9498 0.50181,-0.31013 0.71707,0.17753 0.44821,1.01539 -0.15113,0.47098 -0.35072,1.32289 -0.44353,1.89313 -0.16261,0.99912 -0.53279,1.42137 -0.91288,1.04128 z m -24.52356,-0.35829 c 0,-0.14552 0.11907,-0.26458 0.26459,-0.26458 0.14552,0 0.26458,0.11906 0.26458,0.26458 0,0.14552 -0.11906,0.26459 -0.26458,0.26459 -0.14552,0 -0.26459,-0.11907 -0.26459,-0.26459 z m 20.24062,-1.05833 c 0.0899,-0.14552 0.27556,-0.26458 0.41249,-0.26458 0.13693,0 0.24897,0.11906 0.24897,0.26458 0,0.14552 -0.18562,0.26458 -0.41249,0.26458 -0.22687,0 -0.33891,-0.11906 -0.24897,-0.26458 z m -18.65312,-1.55627 c 0,-0.14552 0.11907,-0.33817 0.26459,-0.42811 0.14552,-0.0899 0.26458,-0.0445 0.26458,0.10107 0,0.14552 -0.11906,0.33816 -0.26458,0.4281 -0.14552,0.0899 -0.26459,0.0445 -0.26459,-0.10106 z m 29.44838,-1.26367 c -0.0764,-0.19899 0.0133,-0.54512 0.19925,-0.76917 0.18595,-0.22406 0.40806,-0.83784 0.49358,-1.36396 0.19095,-1.17476 0.74463,-1.44478 0.86209,-0.42043 0.0712,0.6212 0.23389,0.76502 0.99025,0.87558 1.09586,0.16019 1.27236,0.53707 0.55539,1.18593 -0.71311,0.64535 -2.90807,0.99368 -3.10056,0.49205 z m 8.95223,-0.18493 c -0.0226,-0.3081 -0.17587,-0.43767 -0.41101,-0.34744 -0.53584,0.20562 -0.71882,-0.48651 -0.52162,-1.97309 0.17425,-1.31355 0.63201,-1.7968 0.63201,-0.66721 0,0.34209 0.12827,0.98991 0.28503,1.43961 0.15677,0.4497 0.23251,1.09255 0.16833,1.42855 -0.085,0.44475 -0.12651,0.47727 -0.15274,0.11958 z m -46.0523,-1.15199 c 0.14999,-0.3945 0.20052,-1.00488 0.1123,-1.35638 -0.12653,-0.50414 -0.0738,-0.60586 0.24991,-0.48166 0.24901,0.0956 0.41032,0.0134 0.41032,-0.20907 0,-0.20158 0.13613,-0.4119 0.30252,-0.46736 0.22325,-0.0744 0.2173,-0.26009 -0.0227,-0.70854 -0.29635,-0.55374 -0.27742,-0.59253 0.21311,-0.43684 0.65921,0.20922 1.68554,-0.71024 1.45714,-1.30542 -0.20417,-0.53207 0.13718,-0.51152 0.75247,0.0453 0.46698,0.42262 0.48485,0.42112 0.3132,-0.0262 -0.16344,-0.42591 -0.12404,-0.43817 0.38549,-0.11996 0.65621,0.40981 0.69107,0.64937 0.2368,1.62753 -0.19903,0.42855 -0.54431,0.71296 -0.86708,0.71421 -0.60589,0.002 -1.78757,1.05744 -2.77094,2.47414 -0.78583,1.13211 -1.15305,1.25106 -0.77253,0.25023 z m 39.93616,-1.53808 c 0.18407,-0.2218 0.38917,-0.34878 0.45576,-0.28218 0.18349,0.18348 -0.18932,0.68545 -0.50908,0.68545 -0.17544,0 -0.15537,-0.15181 0.0533,-0.40327 z m -42.77283,-1.20723 c -0.6392,-1.61608 -1.28846,-4.02697 -1.56137,-5.79783 -0.10092,-0.65485 -0.22215,-1.39899 -0.2694,-1.65365 -0.0473,-0.25466 0.0561,-0.46484 0.22963,-0.46707 0.19101,-0.002 0.15891,-0.10687 -0.0813,-0.26458 -0.27168,-0.17835 -0.30567,-0.32313 -0.10775,-0.45897 0.15902,-0.10914 0.36314,-0.57906 0.4536,-1.04427 0.22836,-1.17442 0.95032,-2.841 1.14596,-2.64536 0.0891,0.0891 -0.0197,0.616 -0.2418,1.17097 -0.22205,0.55496 -0.44531,1.4231 -0.49614,1.9292 l -0.0924,0.92019 1.5875,-0.0171 c 0.87313,-0.009 2.00422,-0.11876 2.51354,-0.24306 0.84562,-0.20636 0.89451,-0.18765 0.56292,0.21551 -0.45687,0.55548 -0.0728,0.5717 0.70113,0.0296 0.32342,-0.22653 0.58803,-0.29668 0.58803,-0.15589 0,0.6714 -2.36438,1.40568 -4.24149,1.31723 -1.85631,-0.0875 -1.86701,-0.0841 -1.78955,0.57346 0.0992,0.84234 1.90553,1.03463 3.98707,0.42444 0.74978,-0.21979 1.40909,-0.35377 1.46512,-0.29774 0.22631,0.22631 -2.77708,0.93163 -3.96708,0.93163 -1.66745,0 -1.66761,0.013 -0.0599,4.81566 0.61232,1.82921 0.34555,2.41601 -0.32623,0.71759 z m 47.53441,-0.11874 c 0.007,-0.42751 1.28996,-3.71956 1.30474,-3.34886 0.0285,0.71431 -0.59843,2.84382 -0.94692,3.21657 -0.19921,0.21308 -0.36023,0.27261 -0.35782,0.13229 z m -3.64241,-0.8018 c -1.20406,-0.72165 -1.30202,-0.88975 -0.80698,-1.38479 0.49705,-0.49705 1.32499,-0.39794 1.21563,0.14552 -0.15539,0.77221 0.70351,1.48006 1.55971,1.28541 0.70478,-0.16022 0.7168,-0.14811 0.23003,0.23188 -0.68543,0.53508 -0.88355,0.51003 -2.19839,-0.27802 z m 5.4901,0.1781 c 0,-0.12995 0.18478,-0.30718 0.41062,-0.39385 0.22584,-0.0867 0.34416,-0.05 0.26294,0.0814 -0.0812,0.13143 0.002,0.29926 0.18469,0.37296 0.18281,0.0737 0.0645,0.1434 -0.26293,0.15489 -0.32743,0.0115 -0.59532,-0.0854 -0.59532,-0.21539 z m -8.99583,-1.77138 c 0,-0.47047 1.0356,-1.15946 1.48406,-0.98737 0.20074,0.077 0.29911,0.24664 0.2186,0.37692 -0.0805,0.13027 0.12257,0.23685 0.45131,0.23685 0.45441,0 0.52391,0.0738 0.2899,0.30781 -0.44511,0.44511 -2.44387,0.49891 -2.44387,0.0658 z m -30.51527,-0.54998 c -0.34453,-0.34453 -0.16873,-0.82223 0.35278,-0.95861 0.29104,-0.0761 0.52917,-0.32812 0.52917,-0.56003 0,-0.5146 0.36098,-0.54622 0.75911,-0.0665 0.40148,0.48376 -1.19772,2.02848 -1.64106,1.58514 z m 29.72152,-0.057 c 0,-0.14552 0.11906,-0.33817 0.26458,-0.4281 0.14552,-0.0899 0.26459,-0.0445 0.26459,0.10106 0,0.14552 -0.11907,0.33817 -0.26459,0.4281 -0.14552,0.0899 -0.26458,0.0445 -0.26458,-0.10106 z m 7.92851,-1.06905 c -1.20664,-0.23644 -1.48265,-0.41913 -1.66046,-1.09908 -0.13747,-0.52566 -0.11797,-0.53243 0.33992,-0.11805 0.58254,0.5272 2.78691,1.23017 3.06757,0.97825 0.10939,-0.0982 0.11324,-0.0297 0.009,0.15222 -0.2057,0.35744 -0.33989,0.36406 -1.75559,0.0867 z m 1.33191,-1.19552 c 0,-0.35522 0.0975,-0.70612 0.21671,-0.77978 0.11919,-0.0737 0.1652,0.21697 0.10226,0.64584 -0.13879,0.9456 -0.31897,1.02125 -0.31897,0.13394 z m -28.04584,-0.3878 c -0.9672,-0.13031 -1.07531,-0.19362 -0.57611,-0.33738 0.71849,-0.20692 2.37767,0.0169 2.58253,0.34835 0.15079,0.24398 -0.12533,0.24247 -2.00642,-0.011 z m -11.37707,-3.23613 c -1.81901,-1.75141 -4.05705,-3.664555 -4.97343,-4.251415 -0.91637,-0.58686 -1.61205,-1.12111 -1.54594,-1.18722 0.14706,-0.14706 1.60633,0.58395 2.6818,1.34345 0.43596,0.30786 1.20986,0.781345 1.71979,1.052175 0.50994,0.27082 1.61042,0.95543 2.44552,1.52135 0.8351,0.56592 1.59008,1.02894 1.67775,1.02894 0.29734,0 3.81533,2.71714 3.81533,2.9468 0,0.84334 -1.38627,0.0908 -4.02269,-2.1837 -1.17953,-1.0176 -2.51313,-2.03112 -2.96355,-2.25227 -0.81639,-0.40082 -0.81606,-0.39977 0.10709,0.3366 1.76129,1.40493 5.05464,4.86861 4.60506,4.84321 -0.1317,-0.007 -1.72772,-1.4465 -3.54673,-3.19792 z m 7.36672,2.89145 c -1.08121,-0.22589 -2.11381,-1.2675 -1.25654,-1.2675 0.13189,0 0.23981,0.13294 0.23981,0.29542 0,0.17246 0.27534,0.2428 0.66146,0.16899 0.44355,-0.0848 0.66146,-0.008 0.66146,0.23374 0,0.23407 0.31876,0.36018 0.91042,0.36018 0.50074,0 0.98402,0.11906 1.07395,0.26458 0.19584,0.31688 -0.60086,0.29761 -2.29056,-0.0554 z m 10.83991,-0.12533 c 0.191,-0.0764 0.4192,-0.067 0.50712,0.0209 0.0879,0.0879 -0.0683,0.15045 -0.34727,0.13897 -0.30822,-0.0127 -0.37092,-0.0754 -0.15985,-0.15986 z m 9.31003,-0.0617 c 0,-0.48095 2.70433,-4.27223 3.90095,-5.46885 1.3206,-1.320595 5.11658,-3.357695 6.01652,-3.228735 0.8629,0.12364 0.47329,0.59931 -0.55555,0.67826 -2.52403,0.19369 -6.58387,3.765305 -8.41367,7.401845 -0.40564,0.80617 -0.94825,1.1595 -0.94825,0.61748 z m 9.78958,-1.06689 c -0.50932,-0.27072 -1.2237,-0.81325 -1.5875,-1.20564 l -0.66146,-0.71343 1.05834,0.61295 c 0.58208,0.33713 1.17739,0.75835 1.32291,0.93605 0.14552,0.17771 0.6813,0.43894 1.19063,0.58051 0.75409,0.20962 0.80322,0.25968 0.26458,0.26959 -0.3638,0.007 -1.07818,-0.20932 -1.5875,-0.48003 z m 2.26705,-1.17581 c -0.16801,-1.12034 -0.21847,-1.17335 -1.40038,-1.47096 -1.09033,-0.27454 -2.88115,-1.26354 -2.66784,-1.47333 0.0448,-0.044 0.67669,0.08 1.4043,0.27559 0.7276,0.1956 1.08479,0.36549 0.79375,0.37754 -1.0795,0.0447 0.23175,0.53475 1.44197,0.53892 0.83584,0.003 1.09532,0.0861 0.89447,0.28698 -0.16007,0.16007 -0.22555,0.79199 -0.1508,1.45521 0.17122,1.51908 -0.0879,1.52733 -0.31547,0.01 z m -0.67215,-3.18392 c -0.39316,-1.034095 -0.31534,-1.196915 0.15619,-0.32681 0.22384,0.41305 0.34147,0.81652 0.26139,0.89659 -0.0801,0.0801 -0.26798,-0.17632 -0.41758,-0.56978 z M 104.341,100.48578 c 0.11919,-0.37553 0.0476,-0.529175 -0.24675,-0.529175 -0.61076,0 -0.50429,-0.88545 0.1806,-1.50202 0.8542,-0.76899 1.15488,-0.90172 1.62978,-0.71949 0.5962,0.22879 0.52134,0.61063 -0.17456,0.89035 -0.43133,0.17337 -0.47208,0.2439 -0.14791,0.25606 0.79956,0.03 0.79476,0.53509 -0.0127,1.342615 -0.91879,0.91878 -1.47455,1.03716 -1.22841,0.26166 z m 6.10067,-0.769095 c -0.0815,-0.13195 0.09,-0.17759 0.38126,-0.10143 0.6178,0.16156 0.69589,0.34134 0.14827,0.34134 -0.20969,0 -0.44798,-0.10796 -0.52953,-0.23991 z m 41.27675,-0.47628 c -0.14358,-0.37709 -0.11319,-0.40748 0.14812,-0.14812 0.18082,0.17948 0.26211,0.39297 0.18065,0.47444 -0.0815,0.0815 -0.22941,-0.0654 -0.32877,-0.32632 z"
       id="path1" /></g></svg>
